<svg width="34" height="34" viewBox="0 0 34 34" fill="none" xmlns="http://www.w3.org/2000/svg">
<path d="M16.6367 33.5927C25.8121 33.5927 33.25 26.1548 33.25 16.9795C33.25 7.80413 25.8121 0.366211 16.6367 0.366211C7.46139 0.366211 0.0234375 7.80413 0.0234375 16.9795C0.0234375 26.1548 7.46139 33.5927 16.6367 33.5927ZM12.9449 19.9067L22.715 10.1366C23.436 9.41561 24.6048 9.41561 25.3258 10.1366C26.0465 10.8573 26.0465 12.0261 25.3258 12.7471L14.2503 23.8227C13.5293 24.5433 12.3605 24.5433 11.6394 23.8227L7.94761 20.1308C7.22696 19.4098 7.22696 18.241 7.94761 17.5203C8.66862 16.7993 9.83745 16.7993 10.5585 17.5203L12.9449 19.9067Z" fill="white"/>
<path d="M16.6367 33.5927C25.8121 33.5927 33.25 26.1548 33.25 16.9795C33.25 7.80413 25.8121 0.366211 16.6367 0.366211C7.46139 0.366211 0.0234375 7.80413 0.0234375 16.9795C0.0234375 26.1548 7.46139 33.5927 16.6367 33.5927ZM12.9449 19.9067L22.715 10.1366C23.436 9.41561 24.6048 9.41561 25.3258 10.1366C26.0465 10.8573 26.0465 12.0261 25.3258 12.7471L14.2503 23.8227C13.5293 24.5433 12.3605 24.5433 11.6394 23.8227L7.94761 20.1308C7.22696 19.4098 7.22696 18.241 7.94761 17.5203C8.66862 16.7993 9.83745 16.7993 10.5585 17.5203L12.9449 19.9067Z" fill="url(#paint0_linear_1281_513)"/>
<path d="M16.6367 33.5927C25.8121 33.5927 33.25 26.1548 33.25 16.9795C33.25 7.80413 25.8121 0.366211 16.6367 0.366211C7.46139 0.366211 0.0234375 7.80413 0.0234375 16.9795C0.0234375 26.1548 7.46139 33.5927 16.6367 33.5927ZM12.9449 19.9067L22.715 10.1366C23.436 9.41561 24.6048 9.41561 25.3258 10.1366C26.0465 10.8573 26.0465 12.0261 25.3258 12.7471L14.2503 23.8227C13.5293 24.5433 12.3605 24.5433 11.6394 23.8227L7.94761 20.1308C7.22696 19.4098 7.22696 18.241 7.94761 17.5203C8.66862 16.7993 9.83745 16.7993 10.5585 17.5203L12.9449 19.9067Z" fill="url(#paint1_linear_1281_513)"/>
<defs>
<linearGradient id="paint0_linear_1281_513" x1="0.0234375" y1="16.9795" x2="33.25" y2="16.9795" gradientUnits="userSpaceOnUse">
<stop stop-color="#FF9900"/>
<stop offset="1" stop-color="#FF9B03"/>
</linearGradient>
<linearGradient id="paint1_linear_1281_513" x1="-6.1289" y1="-6.87516" x2="42.8825" y2="-5.23017" gradientUnits="userSpaceOnUse">
<stop stop-color="#FFA500"/>
<stop offset="0.5" stop-color="#FFCC70"/>
<stop offset="1" stop-color="#FF7E00"/>
</linearGradient>
</defs>
</svg>
