<svg width="113" height="17" viewBox="0 0 113 17" fill="none" xmlns="http://www.w3.org/2000/svg">
<path d="M0.448364 0.647217H4.02736V5.58226C5.29983 4.2231 7.00264 4.22314 7.498 4.22314C9.99959 4.22314 13.3804 6.01261 13.3804 10.539C13.3804 15.0654 10.3835 17.0035 7.3463 17.0035C5.66516 17.0035 4.37102 16.1831 3.91901 15.3224H3.87566V16.5948H0.448364V0.647217ZM6.80449 13.666C8.63734 13.666 9.80145 12.1799 9.80145 10.604C9.80145 9.02816 8.63734 7.56372 6.86951 7.56372C4.97165 7.56372 3.89424 9.09315 3.89424 10.5823C3.89424 12.2418 5.01499 13.6629 6.80449 13.6629V13.666Z" fill="#6F6F71"/>
<path d="M13.6655 0.647156H17.2445V16.5948H13.6655V0.647156Z" fill="#6F6F71"/>
<path d="M23.9753 4.24786C28.3283 4.24786 30.4182 7.67517 30.4182 10.6071C30.4182 13.539 28.3283 16.9663 23.9753 16.9663C19.6223 16.9663 17.5294 13.539 17.5294 10.6071C17.5294 7.67517 19.6192 4.24786 23.9753 4.24786ZM23.9753 13.6226C25.5264 13.6226 26.8422 12.3502 26.8422 10.604C26.8422 8.85785 25.5264 7.58538 23.9753 7.58538C22.4242 7.58538 21.1084 8.85785 21.1084 10.604C21.1084 12.3502 22.4242 13.6226 23.9753 13.6226Z" fill="#6F6F71"/>
<path d="M43.3782 12.0498C42.7312 14.765 40.3379 16.9849 37.1057 16.9849C33.4834 16.9849 30.7031 14.1396 30.7031 10.5823C30.7031 7.02496 33.44 4.22308 37.019 4.22308C40.1862 4.22308 42.7528 6.31289 43.3566 9.24482H39.7342C39.3472 8.42437 38.6351 7.56366 37.149 7.56366C35.4462 7.47698 34.3038 8.87949 34.3038 10.604C34.3038 12.3285 35.4462 13.6443 37.149 13.6443C38.6351 13.6443 39.3472 12.7836 39.7342 12.0498H43.3782Z" fill="#6F6F71"/>
<path d="M43.6662 0.647156H47.2452V8.96616H47.2886L50.6075 4.63483H54.8522L50.3475 9.89497L54.7221 16.5979H50.6694L47.2855 10.8423H47.2421V16.5979H43.6631V0.650255L43.6662 0.647156Z" fill="#6F6F71"/>
<path d="M68.2643 16.5979H64.6853V15.3037H64.6419C64.0382 16.4678 62.5521 17.0065 61.1496 17.0065C57.357 17.0065 55.1371 14.0313 55.1371 10.604C55.1371 6.68132 57.9607 4.22308 61.1496 4.22308C63.1094 4.22308 64.2116 5.17044 64.6419 5.9042H64.6853V4.63174H68.2643V16.5948V16.5979ZM61.6883 13.6659C63.9298 13.6659 64.6853 11.7681 64.6853 10.604C64.6853 9.16123 63.6946 7.56366 61.6667 7.56366C59.6388 7.56366 58.7131 9.28817 58.7131 10.6442C58.7131 11.765 59.5335 13.6628 61.6883 13.6628V13.6659Z" fill="#6F6F71"/>
<path d="M74.4069 7.99712C74.3852 7.73705 74.3418 7.09307 73.2861 7.09307C72.5307 7.09307 72.2737 7.56678 72.2737 7.89186C72.2737 8.53893 73.1561 8.90424 74.1065 9.18598C76.1313 9.74636 78.2893 10.3501 78.2893 12.9353C78.2893 15.5204 76.0694 17.0096 73.4192 17.0096C71.6081 17.0096 68.8712 16.1892 68.5492 13.0436H72.1065C72.2582 14.1427 73.314 14.1427 73.4657 14.1427C74.0694 14.1427 74.7165 13.7991 74.7165 13.217C74.7165 12.2913 73.8341 12.1829 71.5492 11.2975C69.9981 10.8021 68.704 9.7897 68.704 8.17358C68.704 5.80202 70.8588 4.22925 73.3387 4.22925C74.9115 4.22925 77.6267 4.85466 77.9301 8.00022H74.4161L74.4069 7.99712Z" fill="#6F6F71"/>
<path d="M84.4351 7.99712C84.4134 7.73705 84.3701 7.09307 83.3143 7.09307C82.5589 7.09307 82.3019 7.56678 82.3019 7.89186C82.3019 8.53893 83.1843 8.90424 84.1348 9.18598C86.1596 9.74636 88.3144 10.3501 88.3144 12.9353C88.3144 15.5204 86.0946 17.0096 83.4444 17.0096C81.6332 17.0096 78.8963 16.1892 78.5743 13.0436H82.1317C82.2834 14.1427 83.3391 14.1427 83.4908 14.1427C84.0945 14.1427 84.7416 13.7991 84.7416 13.217C84.7416 12.2913 83.8592 12.1829 81.5744 11.2975C80.0233 10.8021 78.7291 9.7897 78.7291 8.17358C78.7291 5.80202 80.884 4.22925 83.3639 4.22925C84.9367 4.22925 87.6519 4.85466 87.9553 8.00022H84.4413L84.4351 7.99712Z" fill="#6F6F71"/>
<path d="M100.779 12.8455C100.197 14.183 99.358 15.2171 98.3425 15.9075C97.3518 16.6195 96.166 16.9849 94.9369 16.9849C91.5096 16.9849 88.5994 14.2047 88.5994 10.6473C88.5994 7.30672 91.2279 4.22308 94.8719 4.22308C98.5159 4.22308 101.188 7.11166 101.188 10.7526C101.188 11.2263 101.144 11.4213 101.101 11.6999H92.135C92.3517 13.121 93.5375 13.9632 94.9369 13.9632C96.036 13.9632 96.6181 13.4678 97.1134 12.8424H100.776L100.779 12.8455ZM97.6119 9.29127C97.4602 8.57918 96.7512 7.24477 94.8967 7.24477C93.0422 7.24477 92.3332 8.58228 92.1815 9.29127H97.6119Z" fill="#6F6F71"/>
<path d="M106.82 4.63483H108.544V7.35005H106.82V16.5948H103.241V7.35005H101.473V4.63483H103.241V0.647156H106.82V4.63483Z" fill="#6F6F71"/>
<path d="M112.557 16.5979H108.829V12.9352H112.557V16.5979Z" fill="#6F6F71"/>
</svg>
