<svg width="97" height="18" viewBox="0 0 97 18" fill="none" xmlns="http://www.w3.org/2000/svg">
<path d="M12.1041 18.0077H9.6362C9.24908 18.0077 9.00713 17.8383 8.91035 17.4996C8.86196 17.1609 8.6684 17.0157 8.37807 17.0157H7.79739C7.55544 17.0157 7.41027 17.1609 7.36188 17.4996C7.33769 17.8383 7.09574 18.0077 6.66024 18.0077H3.5875C2.69229 18.0077 2.23259 17.6206 2.23259 16.8705V16.2898C2.23259 15.806 1.96644 15.564 1.40996 15.564H1.04704C0.393781 15.564 0.0550537 15.1285 0.0550537 14.3059V9.12819C0.0550537 8.28137 0.393781 7.87006 1.04704 7.87006H1.40996C1.96644 7.87006 2.23259 7.62811 2.23259 7.14421V6.53934C2.23259 5.78931 2.69229 5.42638 3.5875 5.42638H6.15214C6.56346 5.42638 6.78121 5.59575 6.8296 5.93447C6.85379 6.2732 6.99896 6.41837 7.21672 6.41837H7.70061C8.08773 6.41837 8.30548 6.22481 8.30548 5.8135V1.86975C8.30548 1.1439 8.6684 0.805176 9.39425 0.805176H12.1041C12.8299 0.805176 13.1928 1.1439 13.1928 1.86975V16.9189C13.1928 17.6448 12.8299 18.0077 12.1041 18.0077ZM8.30548 13.1445V10.2895C8.30548 9.68467 8.01514 9.37014 7.45866 9.37014H5.81342C5.25694 9.37014 4.9666 9.68467 4.9666 10.2895V13.0236C4.9666 13.6042 5.25694 13.9188 5.81342 13.9188H7.45866C7.96675 13.9188 8.25709 13.6526 8.30548 13.1445Z" fill="#6F6F71"/>
<path d="M25.7004 18.0077H17.5468C16.6516 18.0077 16.1919 17.6206 16.1919 16.8705V16.2898C16.1919 15.806 15.9257 15.564 15.3692 15.564H15.0063C14.353 15.564 14.0143 15.1285 14.0143 14.3059V9.12819C14.0143 8.28137 14.353 7.87006 15.0063 7.87006H15.3692C15.9257 7.87006 16.1919 7.62811 16.1919 7.14421V6.53934C16.1919 5.78931 16.6516 5.42638 17.5468 5.42638H23.8132C24.7084 5.42638 25.1681 5.78931 25.1681 6.53934V7.14421C25.1681 7.62811 25.4343 7.87006 25.9907 7.87006H26.644C27.0795 7.87006 27.2973 8.08781 27.2973 8.54751V12.2009C27.2973 12.709 27.0795 12.951 26.644 12.951H19.5549C19.0952 12.951 18.8533 13.1445 18.8533 13.58V13.9188C18.8533 14.3543 19.0952 14.572 19.5549 14.572H25.7004C26.3779 14.572 26.7166 14.9107 26.7166 15.6366V16.8705C26.7166 17.6206 26.3779 18.0077 25.7004 18.0077ZM22.7245 9.87823V9.39433C22.7245 8.98302 22.4825 8.78946 21.9986 8.78946H19.5307C19.071 8.78946 18.8533 8.98302 18.8533 9.39433V9.87823C18.8533 10.3137 19.071 10.5073 19.5307 10.5073H21.9986C22.4825 10.5073 22.7245 10.3137 22.7245 9.87823Z" fill="#6F6F71"/>
<path d="M39.9557 18.0077H37.2701C36.5442 18.0077 36.1571 17.6448 36.1571 16.9189V10.2895C36.1571 9.68467 35.8668 9.37014 35.3103 9.37014H33.665C33.1086 9.37014 32.8182 9.68467 32.8182 10.2895V16.9189C32.8182 17.6448 32.4553 18.0077 31.7295 18.0077H29.0196C28.2938 18.0077 27.9309 17.6448 27.9309 16.9189V1.86975C27.9309 1.1439 28.2938 0.805176 29.0196 0.805176H31.7295C32.4553 0.805176 32.8182 1.1439 32.8182 1.86975V5.8135C32.8182 6.22481 33.0118 6.41837 33.4231 6.41837H33.8102C34.028 6.41837 34.1973 6.2732 34.2941 5.93447C34.4151 5.59575 34.6328 5.42638 34.9716 5.42638H37.5362C38.4314 5.42638 38.8911 5.78931 38.8911 6.53934V7.14421C38.8911 7.62811 39.1573 7.87006 39.7137 7.87006H40.0767C40.7299 7.87006 41.0686 8.28137 41.0686 9.12819V16.9189C41.0686 17.6448 40.6815 18.0077 39.9557 18.0077Z" fill="#6F6F71"/>
<path d="M54.1546 15.564H53.8159C53.2594 15.564 52.9933 15.806 52.9933 16.2898V16.8705C52.9933 17.6206 52.5336 18.0077 51.6142 18.0077H45.3235C44.4283 18.0077 43.9686 17.6206 43.9686 16.8705V16.2898C43.9686 15.806 43.7025 15.564 43.146 15.564H42.7831C42.1298 15.564 41.7911 15.1285 41.7911 14.3059V9.12819C41.7911 8.28137 42.1298 7.87006 42.7831 7.87006H43.146C43.7025 7.87006 43.9686 7.62811 43.9686 7.14421V6.53934C43.9686 5.78931 44.4283 5.42638 45.3235 5.42638H51.6142C52.5336 5.42638 52.9933 5.78931 52.9933 6.53934V7.14421C52.9933 7.62811 53.2594 7.87006 53.8159 7.87006H54.1546C54.8321 7.87006 55.1466 8.28137 55.1466 9.12819V14.3059C55.1466 15.1285 54.8321 15.564 54.1546 15.564ZM50.2593 13.0236V10.2895C50.2593 9.68467 49.9689 9.37014 49.4125 9.37014H47.5495C46.993 9.37014 46.7026 9.68467 46.7026 10.2895V13.0236C46.7026 13.6042 46.993 13.9188 47.5495 13.9188H49.4125C49.9689 13.9188 50.2593 13.6042 50.2593 13.0236Z" fill="#6F6F71"/>
<path d="M67.9192 18.0077H65.4755C65.0884 18.0077 64.8465 17.8383 64.7497 17.4996C64.6771 17.1609 64.5077 17.0157 64.2174 17.0157H63.6125C63.3706 17.0157 63.2496 17.1609 63.2012 17.4996C63.1528 17.8383 62.9109 18.0077 62.4996 18.0077H59.4268C58.5316 18.0077 58.0477 17.6206 58.0477 16.8705V16.2898C58.0477 15.806 57.7816 15.564 57.2493 15.564H56.8864C56.2331 15.564 55.8944 15.1285 55.8944 14.3059V6.51515C55.8944 5.76511 56.2573 5.42638 57.0074 5.42638H59.693C60.4188 5.42638 60.8059 5.76511 60.8059 6.51515V13.0236C60.8059 13.6042 61.0721 13.9188 61.6286 13.9188H63.298C63.8061 13.9188 64.0964 13.6526 64.1206 13.1445V6.51515C64.1206 5.76511 64.5077 5.42638 65.2336 5.42638H67.9192C68.6451 5.42638 69.0322 5.76511 69.0322 6.51515V16.9189C69.0322 17.6448 68.6451 18.0077 67.9192 18.0077Z" fill="#6F6F71"/>
<path d="M81.2955 16.1205H80.9326C80.5939 16.1205 80.4245 16.314 80.4245 16.7012V17.0399C80.4245 17.669 80.0374 18.0077 79.2874 18.0077H70.674C70.0691 18.0077 69.803 17.7173 69.803 17.1367V15.5882C69.803 14.8865 70.0691 14.572 70.674 14.572H76.384C76.7953 14.572 77.0131 14.3543 77.0131 13.943V13.6042C77.0131 13.2171 76.7953 13.0236 76.384 13.0236H72.5854C71.8112 13.0236 71.3999 12.6606 71.3999 11.959V11.6444C71.3999 11.3299 71.2547 11.1364 70.916 11.1364H70.5288C69.8998 11.1364 69.5853 10.8218 69.5853 10.1444V8.28137C69.5853 7.6523 69.8998 7.31358 70.5288 7.31358H70.8918C71.2305 7.31358 71.3999 7.12002 71.3999 6.7329V6.39417C71.3999 5.76511 71.787 5.42638 72.537 5.42638H80.7632C81.4165 5.42638 81.7068 5.74091 81.7068 6.34578V7.91845C81.7068 8.54751 81.4165 8.86204 80.7632 8.86204H75.4404C75.0291 8.86204 74.8113 9.0556 74.8113 9.49111V9.80564C74.8113 10.217 75.0291 10.4105 75.4404 10.4105H79.2148C80.0132 10.4105 80.4245 10.7734 80.4245 11.4751V11.7896C80.4245 12.1041 80.5697 12.2977 80.9084 12.2977H81.2955C81.9246 12.2977 82.2149 12.6122 82.2149 13.2897V15.1285C82.2149 15.7818 81.9246 16.1205 81.2955 16.1205Z" fill="#6F6F71"/>
<path d="M94.4335 18.0077H86.2799C85.3847 18.0077 84.9249 17.6206 84.9249 16.8705V16.2898C84.9249 15.806 84.6588 15.564 84.1023 15.564H83.7394C83.0861 15.564 82.7474 15.1285 82.7474 14.3059V9.12819C82.7474 8.28137 83.0861 7.87006 83.7394 7.87006H84.1023C84.6588 7.87006 84.9249 7.62811 84.9249 7.14421V6.53934C84.9249 5.78931 85.3847 5.42638 86.2799 5.42638H92.5463C93.4415 5.42638 93.9012 5.78931 93.9012 6.53934V7.14421C93.9012 7.62811 94.1674 7.87006 94.7238 7.87006H95.3771C95.8126 7.87006 96.0304 8.08781 96.0304 8.54751V12.2009C96.0304 12.709 95.8126 12.951 95.3771 12.951H88.288C87.8283 12.951 87.5864 13.1445 87.5864 13.58V13.9188C87.5864 14.3543 87.8283 14.572 88.288 14.572H94.4335C95.111 14.572 95.4497 14.9107 95.4497 15.6366V16.8705C95.4497 17.6206 95.111 18.0077 94.4335 18.0077ZM91.4575 9.87823V9.39433C91.4575 8.98302 91.2156 8.78946 90.7317 8.78946H88.2638C87.8041 8.78946 87.5864 8.98302 87.5864 9.39433V9.87823C87.5864 10.3137 87.8041 10.5073 88.2638 10.5073H90.7317C91.2156 10.5073 91.4575 10.3137 91.4575 9.87823Z" fill="#6F6F71"/>
</svg>
