<svg width="112" height="16" viewBox="0 0 112 16" fill="none" xmlns="http://www.w3.org/2000/svg">
<mask id="path-1-outside-1_46_63" maskUnits="userSpaceOnUse" x="-0.527893" y="0.0314331" width="113" height="16" fill="black">
<rect fill="white" x="-0.527893" y="0.0314331" width="113" height="16"/>
<path d="M11.895 15.7362H11.1496C5.83611 8.62084 2.58144 4.29334 1.38559 2.75556V14.5476C1.38559 14.9674 1.4869 15.246 1.68771 15.3871C1.76551 15.4486 1.79264 15.5228 1.76913 15.6078C1.74561 15.6928 1.67867 15.7362 1.57193 15.7362H0.661923C0.567847 15.7362 0.509954 15.6928 0.486435 15.6078C0.462916 15.5228 0.490054 15.4486 0.567847 15.3871C0.770473 15.2478 0.869976 14.9764 0.869976 14.5711V2.22005C0.869976 1.80032 0.768664 1.51267 0.567847 1.35708C0.491863 1.29557 0.461107 1.22501 0.475581 1.14722C0.491863 1.07123 0.553374 1.03143 0.661923 1.03143H4.08665L11.3812 10.5621V2.22005C11.3812 1.78585 11.2799 1.49819 11.079 1.35708C11.0012 1.29557 10.9741 1.22501 10.9976 1.14722C11.0211 1.06943 11.0863 1.03143 11.1948 1.03143H12.103C12.2116 1.03143 12.2731 1.07123 12.2894 1.14722C12.3038 1.22501 12.2731 1.29557 12.1953 1.35708C12.0089 1.49639 11.9076 1.76957 11.8932 2.17301V15.7344L11.895 15.7362Z"/>
<path d="M24.9189 1.03144V4.73659H24.662C24.5227 4.33315 24.0126 3.7307 23.1351 2.93105C22.2577 2.13141 21.4291 1.64655 20.653 1.47468V14.5476C20.653 14.9511 20.7543 15.2315 20.9551 15.3871C21.0329 15.4486 21.06 15.5228 21.0365 15.6078C21.013 15.6928 20.9479 15.7362 20.8393 15.7362H17.3911C17.2825 15.7362 17.2156 15.6928 17.1939 15.6078C17.1703 15.5228 17.1975 15.4486 17.2753 15.3871C17.4779 15.2478 17.5774 14.9764 17.5774 14.5712V1.47468C16.7995 1.64655 15.9727 2.13502 15.0952 2.94191C14.2178 3.7506 13.7167 4.34762 13.5918 4.73659H13.3114V1.03144H24.9189Z"/>
<path d="M45.1236 1.26482C45.0928 1.54524 45.0024 1.9143 44.8558 2.37202C44.7075 2.82973 44.5682 3.22232 44.4361 3.54797C44.304 3.87362 44.134 4.28972 43.9241 4.79448C43.7143 5.29923 43.593 5.58327 43.5623 5.64478C42.7084 7.92793 41.489 10.9963 39.9042 14.8498C40.0905 15.208 40.2154 15.4016 40.2769 15.4323C40.3709 15.4631 40.4089 15.53 40.3927 15.6295C40.3764 15.7308 40.3311 15.7815 40.2533 15.7815H36.5717C36.4469 15.7815 36.3727 15.7272 36.351 15.6186C36.3275 15.5101 36.3546 15.4395 36.4324 15.4088C36.4939 15.3617 36.5337 15.293 36.5482 15.1989C36.5627 15.1048 36.5518 14.9782 36.5138 14.8136C36.474 14.6508 36.436 14.5078 36.398 14.383C36.3582 14.2582 36.2967 14.0881 36.2117 13.871C36.1267 13.6539 36.067 13.4983 36.0362 13.4042C36.0199 13.3264 35.9693 13.1745 35.8842 12.9501C35.7992 12.7258 35.687 12.4074 35.5459 11.9949C35.4066 11.5842 35.2746 11.1989 35.1497 10.8407C34.5437 12.3785 34.0081 13.7154 33.5414 14.8479C33.7277 15.2062 33.8526 15.3997 33.9141 15.4305C34.0081 15.4613 34.0461 15.5282 34.0299 15.6277C34.0136 15.729 33.9683 15.7797 33.8906 15.7797H30.2089C30.0841 15.7797 30.0117 15.7254 29.9882 15.6168C29.9647 15.5083 29.9918 15.4377 30.0696 15.407C30.1311 15.3599 30.1709 15.2912 30.1854 15.1971C30.1999 15.103 30.1854 14.9764 30.1384 14.8118C30.0913 14.6471 30.0533 14.5096 30.0226 14.392C29.9918 14.2763 29.9339 14.1008 29.8471 13.8674C29.7621 13.634 29.7024 13.4784 29.6716 13.4006C29.5468 13.0117 28.8991 11.1482 27.7268 7.80853C26.5544 4.46883 25.9285 2.7049 25.8507 2.51856C25.8036 2.39373 25.7566 2.28156 25.7114 2.18025C25.6643 2.07894 25.6263 2.00114 25.5956 1.94687C25.5648 1.89259 25.525 1.83832 25.4798 1.78404C25.4328 1.72977 25.402 1.69539 25.3857 1.67911C25.3694 1.66464 25.3351 1.63569 25.2808 1.5977C25.2265 1.55971 25.1903 1.53257 25.1759 1.51629C25.1143 1.46925 25.0944 1.38784 25.118 1.27205C25.1415 1.15627 25.2157 1.09656 25.3387 1.09656H28.928C29.0529 1.09656 29.1216 1.1436 29.1379 1.23587C29.1524 1.32995 29.1307 1.40774 29.0673 1.46925C29.0203 1.54704 29.3478 2.65063 30.0461 4.77819C30.7444 6.90757 31.4591 9.01162 32.1899 11.094L33.2628 14.2166C33.8218 12.8181 34.3664 11.4431 34.8946 10.0917C34.569 9.19072 34.1836 8.11066 33.7404 6.85329C33.2971 5.59412 32.9371 4.57014 32.6567 3.77773C32.3763 2.98532 32.2297 2.5656 32.2135 2.51856C32.1664 2.39373 32.1194 2.28156 32.0742 2.18025C32.0271 2.07894 31.9891 2.00114 31.9584 1.94687C31.9276 1.89259 31.8878 1.83832 31.8426 1.78404C31.7956 1.72977 31.7648 1.69539 31.7485 1.67911C31.7322 1.66464 31.6979 1.63569 31.6436 1.5977C31.5893 1.55971 31.5531 1.53257 31.5387 1.51629C31.4771 1.46925 31.4572 1.38784 31.4808 1.27205C31.5043 1.15627 31.5785 1.09656 31.7015 1.09656H35.2908C35.5242 1.09656 35.5785 1.2214 35.4537 1.46925C35.3922 1.54704 35.7106 2.65063 36.4089 4.77819C37.1072 6.90757 37.8146 9.01162 38.5292 11.094L39.6238 14.2166C41.0838 10.6435 41.9232 8.54666 42.1403 7.92431C42.4822 6.96184 42.6686 5.98671 42.6993 4.99891C42.7301 4.01292 42.6722 3.22413 42.5238 2.63435C42.3755 2.04456 42.209 1.62484 42.0227 1.37517C41.9757 1.31366 41.9612 1.24311 41.9757 1.16531C41.9901 1.08752 42.0372 1.04953 42.115 1.04953H44.9119C45.0512 1.04953 45.1218 1.12008 45.1218 1.25939L45.1236 1.26482Z"/>
<path d="M58.7103 15.3618C58.8189 15.3618 58.8732 15.4468 58.8732 15.6187C58.8876 15.7127 58.8569 15.758 58.7791 15.758H55.8899C55.2223 15.758 54.6633 15.4323 54.2128 14.7792C54.0409 14.5151 53.5868 13.8945 52.8505 12.9158C52.1123 11.937 51.5949 11.2224 51.3 10.7719C50.864 10.1351 50.4534 9.74614 50.0644 9.60683C49.9866 9.59236 49.8817 9.57246 49.7496 9.54894C49.6175 9.52542 49.5361 9.51457 49.5054 9.51457V14.5476C49.5054 14.9674 49.6067 15.246 49.8075 15.3871C49.8853 15.4486 49.9124 15.5228 49.8889 15.6078C49.8654 15.6928 49.7984 15.7362 49.6917 15.7362H46.2199C46.1259 15.7362 46.068 15.6928 46.0444 15.6078C46.0209 15.5228 46.0481 15.4486 46.1259 15.3871C46.3285 15.2478 46.428 14.9764 46.428 14.5712V2.22005C46.428 1.80033 46.3267 1.51267 46.1259 1.35709C46.0481 1.29558 46.0173 1.22502 46.0318 1.14723C46.0463 1.06943 46.1096 1.03144 46.2181 1.03144H51.6004C53.433 1.03144 54.7772 1.42041 55.6312 2.19654C56.4851 2.97266 56.912 3.93694 56.912 5.08576C56.912 6.31236 56.5737 7.27664 55.8989 7.97498C55.2223 8.67331 54.3485 9.15635 53.2774 9.42049C53.8057 9.57608 54.2164 9.86373 54.5131 10.2835C54.5909 10.392 54.7971 10.6959 55.13 11.1917C55.4647 11.6892 55.7741 12.1397 56.0617 12.5431C56.3494 12.9465 56.6678 13.3825 57.017 13.8475C57.3661 14.3143 57.6701 14.6833 57.9252 14.9547C58.1821 15.2261 58.372 15.3618 58.4969 15.3618H58.7103ZM49.5054 2.17302V9.14007C49.878 9.23415 50.2363 9.27938 50.5782 9.27938C51.5407 9.27938 52.3331 8.93021 52.9554 8.23007C53.576 7.53173 53.8871 6.55298 53.8871 5.29381C53.8871 4.30058 53.6429 3.40686 53.1526 2.61445C52.6623 1.82204 51.8753 1.42584 50.788 1.42584H50.0662C49.6935 1.42584 49.5072 1.67369 49.5072 2.17121L49.5054 2.17302Z"/>
<path d="M71.7815 15.3618C71.8593 15.3618 71.9009 15.4287 71.91 15.5608C71.9172 15.6928 71.8756 15.758 71.7815 15.758H68.8923C68.2247 15.758 67.72 15.4323 67.3781 14.7792C66.4463 12.9158 65.5906 11.1754 64.8145 9.5598C64.6281 9.18711 64.4291 8.91212 64.2211 8.73301C64.0112 8.55391 63.8484 8.45259 63.7326 8.43088C63.6168 8.40736 63.4558 8.39651 63.255 8.39651H63.1844V14.5476C63.1844 14.9674 63.2858 15.246 63.4866 15.3871C63.5644 15.4486 63.5915 15.5228 63.568 15.6078C63.5445 15.6928 63.4775 15.7362 63.3708 15.7362H59.899C59.8049 15.7362 59.747 15.6928 59.7235 15.6078C59.7 15.5228 59.7271 15.4486 59.8049 15.3871C60.0076 15.2478 60.1071 14.9764 60.1071 14.5712V2.22005C60.1071 1.80033 60.0058 1.51267 59.8049 1.35709C59.7271 1.29558 59.6964 1.22502 59.7109 1.14723C59.7253 1.06943 59.7887 1.03144 59.8972 1.03144H63.369C63.4775 1.03144 63.5445 1.07124 63.5662 1.14723C63.5897 1.22502 63.5625 1.29558 63.4848 1.35709C63.2821 1.49639 63.1826 1.76957 63.1826 2.17302V7.85919C64.4726 7.39243 65.5201 6.46433 66.3287 5.0749C67.1356 3.68547 67.3781 2.35212 67.0506 1.07848C67.1284 1.064 67.2297 1.05134 67.3527 1.0441C67.4776 1.03687 67.6983 1.0441 68.0167 1.06762C68.3351 1.09114 68.6137 1.13456 68.8561 1.19607C69.0968 1.25758 69.3175 1.38603 69.5201 1.58142C69.7227 1.775 69.8222 2.012 69.8222 2.29242C69.8222 3.14634 69.2089 4.17213 67.9805 5.36798C66.7539 6.56383 65.502 7.44128 64.2283 8.0003H65.9524C66.3559 8.0003 66.7286 8.11247 67.0705 8.33862C67.4124 8.56476 67.6766 8.86327 67.8629 9.23596C67.9244 9.34451 68.0963 9.70272 68.3749 10.307C68.6553 10.913 68.9176 11.4612 69.1673 11.9497C69.4152 12.44 69.6956 12.9664 70.0068 13.5345C70.3179 14.1026 70.6092 14.5476 70.8806 14.8751C71.1519 15.2007 71.3817 15.3636 71.5681 15.3636H71.7779L71.7815 15.3618Z"/>
<path d="M80.1562 1.52352L75.4325 10.9528H75.3926L71.5066 3.26212C71.3637 3.80849 71.1013 4.36571 70.7178 4.93921L75.2172 13.7534H75.5681L80.7387 3.62395H80.7785V15.2876H82.3724V1.52352H80.1562Z"/>
<path d="M91.2173 1.52352H89.9346L83.9861 15.2876H85.7157L87.2136 11.653H93.9003L95.3983 15.2876H97.1278L91.2173 1.52352ZM87.7763 10.2726L89.5655 5.89806C89.9346 4.98444 90.2458 4.2463 90.5172 3.52626H90.557C90.8283 4.2463 91.1395 4.98444 91.5104 5.89806L93.3177 10.2726H87.7763Z"/>
<path d="M105.779 8.23188V9.63036H109.958V9.74796C109.842 12.7023 107.373 14.1424 104.788 14.1424C101.658 14.1424 99.3838 11.7109 99.3838 8.42546C99.3838 5.14004 101.696 2.67054 104.923 2.67054C107.237 2.67054 108.695 3.56607 109.9 5.45121L110.231 5.52901L111.339 4.75107C109.958 2.37927 107.88 1.15447 104.904 1.15447C100.724 1.15447 97.6922 4.24632 97.6922 8.42546C97.6922 12.6046 100.627 15.6585 104.808 15.6585C106.964 15.6585 108.793 14.8606 110.018 13.1311L110.056 13.1492C109.958 13.4802 109.9 13.8692 109.9 14.3939V15.2876H111.416V8.23188H105.779Z"/>
</mask>
<path d="M11.895 15.7362H11.1496C5.83611 8.62084 2.58144 4.29334 1.38559 2.75556V14.5476C1.38559 14.9674 1.4869 15.246 1.68771 15.3871C1.76551 15.4486 1.79264 15.5228 1.76913 15.6078C1.74561 15.6928 1.67867 15.7362 1.57193 15.7362H0.661923C0.567847 15.7362 0.509954 15.6928 0.486435 15.6078C0.462916 15.5228 0.490054 15.4486 0.567847 15.3871C0.770473 15.2478 0.869976 14.9764 0.869976 14.5711V2.22005C0.869976 1.80032 0.768664 1.51267 0.567847 1.35708C0.491863 1.29557 0.461107 1.22501 0.475581 1.14722C0.491863 1.07123 0.553374 1.03143 0.661923 1.03143H4.08665L11.3812 10.5621V2.22005C11.3812 1.78585 11.2799 1.49819 11.079 1.35708C11.0012 1.29557 10.9741 1.22501 10.9976 1.14722C11.0211 1.06943 11.0863 1.03143 11.1948 1.03143H12.103C12.2116 1.03143 12.2731 1.07123 12.2894 1.14722C12.3038 1.22501 12.2731 1.29557 12.1953 1.35708C12.0089 1.49639 11.9076 1.76957 11.8932 2.17301V15.7344L11.895 15.7362Z" fill="#6F6F71"/>
<path d="M24.9189 1.03144V4.73659H24.662C24.5227 4.33315 24.0126 3.7307 23.1351 2.93105C22.2577 2.13141 21.4291 1.64655 20.653 1.47468V14.5476C20.653 14.9511 20.7543 15.2315 20.9551 15.3871C21.0329 15.4486 21.06 15.5228 21.0365 15.6078C21.013 15.6928 20.9479 15.7362 20.8393 15.7362H17.3911C17.2825 15.7362 17.2156 15.6928 17.1939 15.6078C17.1703 15.5228 17.1975 15.4486 17.2753 15.3871C17.4779 15.2478 17.5774 14.9764 17.5774 14.5712V1.47468C16.7995 1.64655 15.9727 2.13502 15.0952 2.94191C14.2178 3.7506 13.7167 4.34762 13.5918 4.73659H13.3114V1.03144H24.9189Z" fill="#6F6F71"/>
<path d="M45.1236 1.26482C45.0928 1.54524 45.0024 1.9143 44.8558 2.37202C44.7075 2.82973 44.5682 3.22232 44.4361 3.54797C44.304 3.87362 44.134 4.28972 43.9241 4.79448C43.7143 5.29923 43.593 5.58327 43.5623 5.64478C42.7084 7.92793 41.489 10.9963 39.9042 14.8498C40.0905 15.208 40.2154 15.4016 40.2769 15.4323C40.3709 15.4631 40.4089 15.53 40.3927 15.6295C40.3764 15.7308 40.3311 15.7815 40.2533 15.7815H36.5717C36.4469 15.7815 36.3727 15.7272 36.351 15.6186C36.3275 15.5101 36.3546 15.4395 36.4324 15.4088C36.4939 15.3617 36.5337 15.293 36.5482 15.1989C36.5627 15.1048 36.5518 14.9782 36.5138 14.8136C36.474 14.6508 36.436 14.5078 36.398 14.383C36.3582 14.2582 36.2967 14.0881 36.2117 13.871C36.1267 13.6539 36.067 13.4983 36.0362 13.4042C36.0199 13.3264 35.9693 13.1745 35.8842 12.9501C35.7992 12.7258 35.687 12.4074 35.5459 11.9949C35.4066 11.5842 35.2746 11.1989 35.1497 10.8407C34.5437 12.3785 34.0081 13.7154 33.5414 14.8479C33.7277 15.2062 33.8526 15.3997 33.9141 15.4305C34.0081 15.4613 34.0461 15.5282 34.0299 15.6277C34.0136 15.729 33.9683 15.7797 33.8906 15.7797H30.2089C30.0841 15.7797 30.0117 15.7254 29.9882 15.6168C29.9647 15.5083 29.9918 15.4377 30.0696 15.407C30.1311 15.3599 30.1709 15.2912 30.1854 15.1971C30.1999 15.103 30.1854 14.9764 30.1384 14.8118C30.0913 14.6471 30.0533 14.5096 30.0226 14.392C29.9918 14.2763 29.9339 14.1008 29.8471 13.8674C29.7621 13.634 29.7024 13.4784 29.6716 13.4006C29.5468 13.0117 28.8991 11.1482 27.7268 7.80853C26.5544 4.46883 25.9285 2.7049 25.8507 2.51856C25.8036 2.39373 25.7566 2.28156 25.7114 2.18025C25.6643 2.07894 25.6263 2.00114 25.5956 1.94687C25.5648 1.89259 25.525 1.83832 25.4798 1.78404C25.4328 1.72977 25.402 1.69539 25.3857 1.67911C25.3694 1.66464 25.3351 1.63569 25.2808 1.5977C25.2265 1.55971 25.1903 1.53257 25.1759 1.51629C25.1143 1.46925 25.0944 1.38784 25.118 1.27205C25.1415 1.15627 25.2157 1.09656 25.3387 1.09656H28.928C29.0529 1.09656 29.1216 1.1436 29.1379 1.23587C29.1524 1.32995 29.1307 1.40774 29.0673 1.46925C29.0203 1.54704 29.3478 2.65063 30.0461 4.77819C30.7444 6.90757 31.4591 9.01162 32.1899 11.094L33.2628 14.2166C33.8218 12.8181 34.3664 11.4431 34.8946 10.0917C34.569 9.19072 34.1836 8.11066 33.7404 6.85329C33.2971 5.59412 32.9371 4.57014 32.6567 3.77773C32.3763 2.98532 32.2297 2.5656 32.2135 2.51856C32.1664 2.39373 32.1194 2.28156 32.0742 2.18025C32.0271 2.07894 31.9891 2.00114 31.9584 1.94687C31.9276 1.89259 31.8878 1.83832 31.8426 1.78404C31.7956 1.72977 31.7648 1.69539 31.7485 1.67911C31.7322 1.66464 31.6979 1.63569 31.6436 1.5977C31.5893 1.55971 31.5531 1.53257 31.5387 1.51629C31.4771 1.46925 31.4572 1.38784 31.4808 1.27205C31.5043 1.15627 31.5785 1.09656 31.7015 1.09656H35.2908C35.5242 1.09656 35.5785 1.2214 35.4537 1.46925C35.3922 1.54704 35.7106 2.65063 36.4089 4.77819C37.1072 6.90757 37.8146 9.01162 38.5292 11.094L39.6238 14.2166C41.0838 10.6435 41.9232 8.54666 42.1403 7.92431C42.4822 6.96184 42.6686 5.98671 42.6993 4.99891C42.7301 4.01292 42.6722 3.22413 42.5238 2.63435C42.3755 2.04456 42.209 1.62484 42.0227 1.37517C41.9757 1.31366 41.9612 1.24311 41.9757 1.16531C41.9901 1.08752 42.0372 1.04953 42.115 1.04953H44.9119C45.0512 1.04953 45.1218 1.12008 45.1218 1.25939L45.1236 1.26482Z" fill="#6F6F71"/>
<path d="M58.7103 15.3618C58.8189 15.3618 58.8732 15.4468 58.8732 15.6187C58.8876 15.7127 58.8569 15.758 58.7791 15.758H55.8899C55.2223 15.758 54.6633 15.4323 54.2128 14.7792C54.0409 14.5151 53.5868 13.8945 52.8505 12.9158C52.1123 11.937 51.5949 11.2224 51.3 10.7719C50.864 10.1351 50.4534 9.74614 50.0644 9.60683C49.9866 9.59236 49.8817 9.57246 49.7496 9.54894C49.6175 9.52542 49.5361 9.51457 49.5054 9.51457V14.5476C49.5054 14.9674 49.6067 15.246 49.8075 15.3871C49.8853 15.4486 49.9124 15.5228 49.8889 15.6078C49.8654 15.6928 49.7984 15.7362 49.6917 15.7362H46.2199C46.1259 15.7362 46.068 15.6928 46.0444 15.6078C46.0209 15.5228 46.0481 15.4486 46.1259 15.3871C46.3285 15.2478 46.428 14.9764 46.428 14.5712V2.22005C46.428 1.80033 46.3267 1.51267 46.1259 1.35709C46.0481 1.29558 46.0173 1.22502 46.0318 1.14723C46.0463 1.06943 46.1096 1.03144 46.2181 1.03144H51.6004C53.433 1.03144 54.7772 1.42041 55.6312 2.19654C56.4851 2.97266 56.912 3.93694 56.912 5.08576C56.912 6.31236 56.5737 7.27664 55.8989 7.97498C55.2223 8.67331 54.3485 9.15635 53.2774 9.42049C53.8057 9.57608 54.2164 9.86373 54.5131 10.2835C54.5909 10.392 54.7971 10.6959 55.13 11.1917C55.4647 11.6892 55.7741 12.1397 56.0617 12.5431C56.3494 12.9465 56.6678 13.3825 57.017 13.8475C57.3661 14.3143 57.6701 14.6833 57.9252 14.9547C58.1821 15.2261 58.372 15.3618 58.4969 15.3618H58.7103ZM49.5054 2.17302V9.14007C49.878 9.23415 50.2363 9.27938 50.5782 9.27938C51.5407 9.27938 52.3331 8.93021 52.9554 8.23007C53.576 7.53173 53.8871 6.55298 53.8871 5.29381C53.8871 4.30058 53.6429 3.40686 53.1526 2.61445C52.6623 1.82204 51.8753 1.42584 50.788 1.42584H50.0662C49.6935 1.42584 49.5072 1.67369 49.5072 2.17121L49.5054 2.17302Z" fill="#6F6F71"/>
<path d="M71.7815 15.3618C71.8593 15.3618 71.9009 15.4287 71.91 15.5608C71.9172 15.6928 71.8756 15.758 71.7815 15.758H68.8923C68.2247 15.758 67.72 15.4323 67.3781 14.7792C66.4463 12.9158 65.5906 11.1754 64.8145 9.5598C64.6281 9.18711 64.4291 8.91212 64.2211 8.73301C64.0112 8.55391 63.8484 8.45259 63.7326 8.43088C63.6168 8.40736 63.4558 8.39651 63.255 8.39651H63.1844V14.5476C63.1844 14.9674 63.2858 15.246 63.4866 15.3871C63.5644 15.4486 63.5915 15.5228 63.568 15.6078C63.5445 15.6928 63.4775 15.7362 63.3708 15.7362H59.899C59.8049 15.7362 59.747 15.6928 59.7235 15.6078C59.7 15.5228 59.7271 15.4486 59.8049 15.3871C60.0076 15.2478 60.1071 14.9764 60.1071 14.5712V2.22005C60.1071 1.80033 60.0058 1.51267 59.8049 1.35709C59.7271 1.29558 59.6964 1.22502 59.7109 1.14723C59.7253 1.06943 59.7887 1.03144 59.8972 1.03144H63.369C63.4775 1.03144 63.5445 1.07124 63.5662 1.14723C63.5897 1.22502 63.5625 1.29558 63.4848 1.35709C63.2821 1.49639 63.1826 1.76957 63.1826 2.17302V7.85919C64.4726 7.39243 65.5201 6.46433 66.3287 5.0749C67.1356 3.68547 67.3781 2.35212 67.0506 1.07848C67.1284 1.064 67.2297 1.05134 67.3527 1.0441C67.4776 1.03687 67.6983 1.0441 68.0167 1.06762C68.3351 1.09114 68.6137 1.13456 68.8561 1.19607C69.0968 1.25758 69.3175 1.38603 69.5201 1.58142C69.7227 1.775 69.8222 2.012 69.8222 2.29242C69.8222 3.14634 69.2089 4.17213 67.9805 5.36798C66.7539 6.56383 65.502 7.44128 64.2283 8.0003H65.9524C66.3559 8.0003 66.7286 8.11247 67.0705 8.33862C67.4124 8.56476 67.6766 8.86327 67.8629 9.23596C67.9244 9.34451 68.0963 9.70272 68.3749 10.307C68.6553 10.913 68.9176 11.4612 69.1673 11.9497C69.4152 12.44 69.6956 12.9664 70.0068 13.5345C70.3179 14.1026 70.6092 14.5476 70.8806 14.8751C71.1519 15.2007 71.3817 15.3636 71.5681 15.3636H71.7779L71.7815 15.3618Z" fill="#6F6F71"/>
<path d="M80.1562 1.52352L75.4325 10.9528H75.3926L71.5066 3.26212C71.3637 3.80849 71.1013 4.36571 70.7178 4.93921L75.2172 13.7534H75.5681L80.7387 3.62395H80.7785V15.2876H82.3724V1.52352H80.1562Z" fill="#6F6F71"/>
<path d="M91.2173 1.52352H89.9346L83.9861 15.2876H85.7157L87.2136 11.653H93.9003L95.3983 15.2876H97.1278L91.2173 1.52352ZM87.7763 10.2726L89.5655 5.89806C89.9346 4.98444 90.2458 4.2463 90.5172 3.52626H90.557C90.8283 4.2463 91.1395 4.98444 91.5104 5.89806L93.3177 10.2726H87.7763Z" fill="#6F6F71"/>
<path d="M105.779 8.23188V9.63036H109.958V9.74796C109.842 12.7023 107.373 14.1424 104.788 14.1424C101.658 14.1424 99.3838 11.7109 99.3838 8.42546C99.3838 5.14004 101.696 2.67054 104.923 2.67054C107.237 2.67054 108.695 3.56607 109.9 5.45121L110.231 5.52901L111.339 4.75107C109.958 2.37927 107.88 1.15447 104.904 1.15447C100.724 1.15447 97.6922 4.24632 97.6922 8.42546C97.6922 12.6046 100.627 15.6585 104.808 15.6585C106.964 15.6585 108.793 14.8606 110.018 13.1311L110.056 13.1492C109.958 13.4802 109.9 13.8692 109.9 14.3939V15.2876H111.416V8.23188H105.779Z" fill="#6F6F71"/>
<path d="M11.895 15.7362H11.1496C5.83611 8.62084 2.58144 4.29334 1.38559 2.75556V14.5476C1.38559 14.9674 1.4869 15.246 1.68771 15.3871C1.76551 15.4486 1.79264 15.5228 1.76913 15.6078C1.74561 15.6928 1.67867 15.7362 1.57193 15.7362H0.661923C0.567847 15.7362 0.509954 15.6928 0.486435 15.6078C0.462916 15.5228 0.490054 15.4486 0.567847 15.3871C0.770473 15.2478 0.869976 14.9764 0.869976 14.5711V2.22005C0.869976 1.80032 0.768664 1.51267 0.567847 1.35708C0.491863 1.29557 0.461107 1.22501 0.475581 1.14722C0.491863 1.07123 0.553374 1.03143 0.661923 1.03143H4.08665L11.3812 10.5621V2.22005C11.3812 1.78585 11.2799 1.49819 11.079 1.35708C11.0012 1.29557 10.9741 1.22501 10.9976 1.14722C11.0211 1.06943 11.0863 1.03143 11.1948 1.03143H12.103C12.2116 1.03143 12.2731 1.07123 12.2894 1.14722C12.3038 1.22501 12.2731 1.29557 12.1953 1.35708C12.0089 1.49639 11.9076 1.76957 11.8932 2.17301V15.7344L11.895 15.7362Z" stroke="#6F6F71" stroke-width="0.292202" mask="url(#path-1-outside-1_46_63)"/>
<path d="M24.9189 1.03144V4.73659H24.662C24.5227 4.33315 24.0126 3.7307 23.1351 2.93105C22.2577 2.13141 21.4291 1.64655 20.653 1.47468V14.5476C20.653 14.9511 20.7543 15.2315 20.9551 15.3871C21.0329 15.4486 21.06 15.5228 21.0365 15.6078C21.013 15.6928 20.9479 15.7362 20.8393 15.7362H17.3911C17.2825 15.7362 17.2156 15.6928 17.1939 15.6078C17.1703 15.5228 17.1975 15.4486 17.2753 15.3871C17.4779 15.2478 17.5774 14.9764 17.5774 14.5712V1.47468C16.7995 1.64655 15.9727 2.13502 15.0952 2.94191C14.2178 3.7506 13.7167 4.34762 13.5918 4.73659H13.3114V1.03144H24.9189Z" stroke="#6F6F71" stroke-width="0.292202" mask="url(#path-1-outside-1_46_63)"/>
<path d="M45.1236 1.26482C45.0928 1.54524 45.0024 1.9143 44.8558 2.37202C44.7075 2.82973 44.5682 3.22232 44.4361 3.54797C44.304 3.87362 44.134 4.28972 43.9241 4.79448C43.7143 5.29923 43.593 5.58327 43.5623 5.64478C42.7084 7.92793 41.489 10.9963 39.9042 14.8498C40.0905 15.208 40.2154 15.4016 40.2769 15.4323C40.3709 15.4631 40.4089 15.53 40.3927 15.6295C40.3764 15.7308 40.3311 15.7815 40.2533 15.7815H36.5717C36.4469 15.7815 36.3727 15.7272 36.351 15.6186C36.3275 15.5101 36.3546 15.4395 36.4324 15.4088C36.4939 15.3617 36.5337 15.293 36.5482 15.1989C36.5627 15.1048 36.5518 14.9782 36.5138 14.8136C36.474 14.6508 36.436 14.5078 36.398 14.383C36.3582 14.2582 36.2967 14.0881 36.2117 13.871C36.1267 13.6539 36.067 13.4983 36.0362 13.4042C36.0199 13.3264 35.9693 13.1745 35.8842 12.9501C35.7992 12.7258 35.687 12.4074 35.5459 11.9949C35.4066 11.5842 35.2746 11.1989 35.1497 10.8407C34.5437 12.3785 34.0081 13.7154 33.5414 14.8479C33.7277 15.2062 33.8526 15.3997 33.9141 15.4305C34.0081 15.4613 34.0461 15.5282 34.0299 15.6277C34.0136 15.729 33.9683 15.7797 33.8906 15.7797H30.2089C30.0841 15.7797 30.0117 15.7254 29.9882 15.6168C29.9647 15.5083 29.9918 15.4377 30.0696 15.407C30.1311 15.3599 30.1709 15.2912 30.1854 15.1971C30.1999 15.103 30.1854 14.9764 30.1384 14.8118C30.0913 14.6471 30.0533 14.5096 30.0226 14.392C29.9918 14.2763 29.9339 14.1008 29.8471 13.8674C29.7621 13.634 29.7024 13.4784 29.6716 13.4006C29.5468 13.0117 28.8991 11.1482 27.7268 7.80853C26.5544 4.46883 25.9285 2.7049 25.8507 2.51856C25.8036 2.39373 25.7566 2.28156 25.7114 2.18025C25.6643 2.07894 25.6263 2.00114 25.5956 1.94687C25.5648 1.89259 25.525 1.83832 25.4798 1.78404C25.4328 1.72977 25.402 1.69539 25.3857 1.67911C25.3694 1.66464 25.3351 1.63569 25.2808 1.5977C25.2265 1.55971 25.1903 1.53257 25.1759 1.51629C25.1143 1.46925 25.0944 1.38784 25.118 1.27205C25.1415 1.15627 25.2157 1.09656 25.3387 1.09656H28.928C29.0529 1.09656 29.1216 1.1436 29.1379 1.23587C29.1524 1.32995 29.1307 1.40774 29.0673 1.46925C29.0203 1.54704 29.3478 2.65063 30.0461 4.77819C30.7444 6.90757 31.4591 9.01162 32.1899 11.094L33.2628 14.2166C33.8218 12.8181 34.3664 11.4431 34.8946 10.0917C34.569 9.19072 34.1836 8.11066 33.7404 6.85329C33.2971 5.59412 32.9371 4.57014 32.6567 3.77773C32.3763 2.98532 32.2297 2.5656 32.2135 2.51856C32.1664 2.39373 32.1194 2.28156 32.0742 2.18025C32.0271 2.07894 31.9891 2.00114 31.9584 1.94687C31.9276 1.89259 31.8878 1.83832 31.8426 1.78404C31.7956 1.72977 31.7648 1.69539 31.7485 1.67911C31.7322 1.66464 31.6979 1.63569 31.6436 1.5977C31.5893 1.55971 31.5531 1.53257 31.5387 1.51629C31.4771 1.46925 31.4572 1.38784 31.4808 1.27205C31.5043 1.15627 31.5785 1.09656 31.7015 1.09656H35.2908C35.5242 1.09656 35.5785 1.2214 35.4537 1.46925C35.3922 1.54704 35.7106 2.65063 36.4089 4.77819C37.1072 6.90757 37.8146 9.01162 38.5292 11.094L39.6238 14.2166C41.0838 10.6435 41.9232 8.54666 42.1403 7.92431C42.4822 6.96184 42.6686 5.98671 42.6993 4.99891C42.7301 4.01292 42.6722 3.22413 42.5238 2.63435C42.3755 2.04456 42.209 1.62484 42.0227 1.37517C41.9757 1.31366 41.9612 1.24311 41.9757 1.16531C41.9901 1.08752 42.0372 1.04953 42.115 1.04953H44.9119C45.0512 1.04953 45.1218 1.12008 45.1218 1.25939L45.1236 1.26482Z" stroke="#6F6F71" stroke-width="0.292202" mask="url(#path-1-outside-1_46_63)"/>
<path d="M58.7103 15.3618C58.8189 15.3618 58.8732 15.4468 58.8732 15.6187C58.8876 15.7127 58.8569 15.758 58.7791 15.758H55.8899C55.2223 15.758 54.6633 15.4323 54.2128 14.7792C54.0409 14.5151 53.5868 13.8945 52.8505 12.9158C52.1123 11.937 51.5949 11.2224 51.3 10.7719C50.864 10.1351 50.4534 9.74614 50.0644 9.60683C49.9866 9.59236 49.8817 9.57246 49.7496 9.54894C49.6175 9.52542 49.5361 9.51457 49.5054 9.51457V14.5476C49.5054 14.9674 49.6067 15.246 49.8075 15.3871C49.8853 15.4486 49.9124 15.5228 49.8889 15.6078C49.8654 15.6928 49.7984 15.7362 49.6917 15.7362H46.2199C46.1259 15.7362 46.068 15.6928 46.0444 15.6078C46.0209 15.5228 46.0481 15.4486 46.1259 15.3871C46.3285 15.2478 46.428 14.9764 46.428 14.5712V2.22005C46.428 1.80033 46.3267 1.51267 46.1259 1.35709C46.0481 1.29558 46.0173 1.22502 46.0318 1.14723C46.0463 1.06943 46.1096 1.03144 46.2181 1.03144H51.6004C53.433 1.03144 54.7772 1.42041 55.6312 2.19654C56.4851 2.97266 56.912 3.93694 56.912 5.08576C56.912 6.31236 56.5737 7.27664 55.8989 7.97498C55.2223 8.67331 54.3485 9.15635 53.2774 9.42049C53.8057 9.57608 54.2164 9.86373 54.5131 10.2835C54.5909 10.392 54.7971 10.6959 55.13 11.1917C55.4647 11.6892 55.7741 12.1397 56.0617 12.5431C56.3494 12.9465 56.6678 13.3825 57.017 13.8475C57.3661 14.3143 57.6701 14.6833 57.9252 14.9547C58.1821 15.2261 58.372 15.3618 58.4969 15.3618H58.7103ZM49.5054 2.17302V9.14007C49.878 9.23415 50.2363 9.27938 50.5782 9.27938C51.5407 9.27938 52.3331 8.93021 52.9554 8.23007C53.576 7.53173 53.8871 6.55298 53.8871 5.29381C53.8871 4.30058 53.6429 3.40686 53.1526 2.61445C52.6623 1.82204 51.8753 1.42584 50.788 1.42584H50.0662C49.6935 1.42584 49.5072 1.67369 49.5072 2.17121L49.5054 2.17302Z" stroke="#6F6F71" stroke-width="0.292202" mask="url(#path-1-outside-1_46_63)"/>
<path d="M71.7815 15.3618C71.8593 15.3618 71.9009 15.4287 71.91 15.5608C71.9172 15.6928 71.8756 15.758 71.7815 15.758H68.8923C68.2247 15.758 67.72 15.4323 67.3781 14.7792C66.4463 12.9158 65.5906 11.1754 64.8145 9.5598C64.6281 9.18711 64.4291 8.91212 64.2211 8.73301C64.0112 8.55391 63.8484 8.45259 63.7326 8.43088C63.6168 8.40736 63.4558 8.39651 63.255 8.39651H63.1844V14.5476C63.1844 14.9674 63.2858 15.246 63.4866 15.3871C63.5644 15.4486 63.5915 15.5228 63.568 15.6078C63.5445 15.6928 63.4775 15.7362 63.3708 15.7362H59.899C59.8049 15.7362 59.747 15.6928 59.7235 15.6078C59.7 15.5228 59.7271 15.4486 59.8049 15.3871C60.0076 15.2478 60.1071 14.9764 60.1071 14.5712V2.22005C60.1071 1.80033 60.0058 1.51267 59.8049 1.35709C59.7271 1.29558 59.6964 1.22502 59.7109 1.14723C59.7253 1.06943 59.7887 1.03144 59.8972 1.03144H63.369C63.4775 1.03144 63.5445 1.07124 63.5662 1.14723C63.5897 1.22502 63.5625 1.29558 63.4848 1.35709C63.2821 1.49639 63.1826 1.76957 63.1826 2.17302V7.85919C64.4726 7.39243 65.5201 6.46433 66.3287 5.0749C67.1356 3.68547 67.3781 2.35212 67.0506 1.07848C67.1284 1.064 67.2297 1.05134 67.3527 1.0441C67.4776 1.03687 67.6983 1.0441 68.0167 1.06762C68.3351 1.09114 68.6137 1.13456 68.8561 1.19607C69.0968 1.25758 69.3175 1.38603 69.5201 1.58142C69.7227 1.775 69.8222 2.012 69.8222 2.29242C69.8222 3.14634 69.2089 4.17213 67.9805 5.36798C66.7539 6.56383 65.502 7.44128 64.2283 8.0003H65.9524C66.3559 8.0003 66.7286 8.11247 67.0705 8.33862C67.4124 8.56476 67.6766 8.86327 67.8629 9.23596C67.9244 9.34451 68.0963 9.70272 68.3749 10.307C68.6553 10.913 68.9176 11.4612 69.1673 11.9497C69.4152 12.44 69.6956 12.9664 70.0068 13.5345C70.3179 14.1026 70.6092 14.5476 70.8806 14.8751C71.1519 15.2007 71.3817 15.3636 71.5681 15.3636H71.7779L71.7815 15.3618Z" stroke="#6F6F71" stroke-width="0.292202" mask="url(#path-1-outside-1_46_63)"/>
<path d="M80.1562 1.52352L75.4325 10.9528H75.3926L71.5066 3.26212C71.3637 3.80849 71.1013 4.36571 70.7178 4.93921L75.2172 13.7534H75.5681L80.7387 3.62395H80.7785V15.2876H82.3724V1.52352H80.1562Z" stroke="#6F6F71" stroke-width="0.292202" mask="url(#path-1-outside-1_46_63)"/>
<path d="M91.2173 1.52352H89.9346L83.9861 15.2876H85.7157L87.2136 11.653H93.9003L95.3983 15.2876H97.1278L91.2173 1.52352ZM87.7763 10.2726L89.5655 5.89806C89.9346 4.98444 90.2458 4.2463 90.5172 3.52626H90.557C90.8283 4.2463 91.1395 4.98444 91.5104 5.89806L93.3177 10.2726H87.7763Z" stroke="#6F6F71" stroke-width="0.292202" mask="url(#path-1-outside-1_46_63)"/>
<path d="M105.779 8.23188V9.63036H109.958V9.74796C109.842 12.7023 107.373 14.1424 104.788 14.1424C101.658 14.1424 99.3838 11.7109 99.3838 8.42546C99.3838 5.14004 101.696 2.67054 104.923 2.67054C107.237 2.67054 108.695 3.56607 109.9 5.45121L110.231 5.52901L111.339 4.75107C109.958 2.37927 107.88 1.15447 104.904 1.15447C100.724 1.15447 97.6922 4.24632 97.6922 8.42546C97.6922 12.6046 100.627 15.6585 104.808 15.6585C106.964 15.6585 108.793 14.8606 110.018 13.1311L110.056 13.1492C109.958 13.4802 109.9 13.8692 109.9 14.3939V15.2876H111.416V8.23188H105.779Z" stroke="#6F6F71" stroke-width="0.292202" mask="url(#path-1-outside-1_46_63)"/>
</svg>
