<svg width="108" height="14" viewBox="0 0 108 14" fill="none" xmlns="http://www.w3.org/2000/svg">
<path d="M0.105688 9.4883H2.51556C2.51556 10.7031 3.22849 11.9747 7.19976 11.9747C11.171 11.9747 11.9802 11.03 11.9802 9.93116C11.9802 9.2948 11.5942 8.89022 10.8047 8.67811C9.89935 8.46599 7.81645 8.40804 6.33266 8.33147C4.67503 8.23524 2.63145 8.06141 1.57189 7.5606C0.627189 7.11774 0.0301528 6.19166 0.0301528 4.99656C0.0280834 2.72223 2.26412 0.832825 7.14078 0.832825C12.9621 0.832825 14.0414 2.93435 14.0414 5.20867H11.6315C11.6315 3.76316 10.5326 2.83812 7.13974 2.83812C4.03661 2.83812 2.66767 3.60899 2.66767 4.8041C2.66767 5.44045 3.0143 5.78709 3.65065 6.01886C4.44118 6.28893 6.58099 6.3655 8.00684 6.4431C9.80002 6.53933 11.6304 6.65522 12.7686 7.0598C13.9638 7.52232 14.6384 8.52497 14.6384 9.73973C14.6384 11.6674 13.5395 13.98 7.19769 13.98C0.855863 13.98 0.105688 11.1645 0.105688 9.4883Z" fill="#6F6F71"/>
<path d="M16.9341 1.06451H19.5747V13.7482H16.9341V1.06451Z" fill="#6F6F71"/>
<path d="M22.235 1.06451H24.8953V11.5701H33.1451V13.7482H22.235V1.06451Z" fill="#6F6F71"/>
<path d="M35.0917 1.06451H37.7323V13.7482H35.0917V1.06451Z" fill="#6F6F71"/>
<path d="M39.9302 7.44471C39.9302 3.80145 42.5905 0.832825 47.6989 0.832825C53.1353 0.832825 54.9658 3.82111 54.9658 5.88331V6.13372H52.5559V6.05611C52.5559 4.72649 51.2449 2.93331 47.8334 2.93331C44.4219 2.93331 42.667 4.84135 42.667 7.44368C42.667 9.718 44.1508 11.8775 47.8717 11.8775C51.0711 11.8775 52.6325 10.4123 52.6325 8.81262V8.69673H55.0423V8.90885C55.0423 11.2991 52.9605 13.979 47.8137 13.979C41.9541 13.979 39.9302 10.6441 39.9302 7.44471Z" fill="#6F6F71"/>
<path d="M56.6995 7.34848C56.6995 3.76316 59.3597 0.832825 64.8727 0.832825C70.3858 0.832825 73.046 3.76316 73.046 7.34848C73.046 10.9338 70.5596 13.979 64.8727 13.979C59.1859 13.979 56.6995 11.2225 56.6995 7.34848ZM70.3082 7.34848C70.3082 4.90033 68.4964 2.93435 64.8717 2.93435C61.2471 2.93435 59.4353 4.90033 59.4353 7.34848C59.4353 10.0667 61.2284 11.8785 64.8717 11.8785C68.515 11.8785 70.3082 9.93116 70.3082 7.34848Z" fill="#6F6F71"/>
<path d="M75.1663 1.06451H78.944L87.6761 10.1628H87.7144V1.06451H90.2587V13.7482H87.6368L77.7479 3.39678H77.7282V13.7482H75.1642V1.06451H75.1663Z" fill="#6F6F71"/>
<path d="M92.5533 9.4883H94.9632C94.9632 10.7031 95.6761 11.9747 99.6474 11.9747C103.619 11.9747 104.428 11.03 104.428 9.93116C104.428 9.2948 104.042 8.89022 103.252 8.67811C102.346 8.46599 100.264 8.40804 98.7803 8.33147C97.1227 8.23524 95.0791 8.06141 94.0195 7.5606C93.0748 7.11774 92.4778 6.19166 92.4778 4.99656C92.4778 2.72223 94.7138 0.832825 99.5905 0.832825C105.412 0.832825 106.491 2.93435 106.491 5.20867H104.081C104.081 3.76316 102.982 2.83812 99.5894 2.83812C96.4863 2.83812 95.1174 3.60899 95.1174 4.8041C95.1174 5.44045 95.464 5.78709 96.1004 6.01886C96.8909 6.28893 99.0307 6.3655 100.457 6.4431C102.25 6.53933 104.08 6.65522 105.217 7.0598C106.412 7.52232 107.087 8.52497 107.087 9.73973C107.087 11.6674 105.988 13.98 99.6464 13.98C93.3045 13.98 92.5523 11.1656 92.5523 9.4883H92.5533Z" fill="#6F6F71"/>
</svg>
