<svg width="83" height="27" viewBox="0 0 83 27" fill="none" xmlns="http://www.w3.org/2000/svg">
<path d="M73.2882 10.2423C72.2365 10.2423 71.3668 10.4891 70.6794 10.9121C70.3503 11.0884 69.4102 11.7289 68.7227 13.0333V10.7359H64.2983V15.0076C64.0221 14.2379 63.6049 13.4622 62.9938 12.7513C61.9068 11.4762 60.0559 10.2423 56.8712 10.2423C54.9851 10.2423 52.8111 10.6301 50.9602 12.3987C50.3139 13.0274 49.6205 13.9147 49.1504 15.131V0.265198H44.726V12.716C43.2394 10.4538 40.8832 10.2423 39.6904 10.2423C36.2883 10.2423 33.6912 12.1754 32.5396 14.99C32.0754 13.9734 31.4114 13.0921 30.6241 12.3987C29.2844 11.1942 27.2572 10.2423 24.2841 10.2423C21.3109 10.2423 19.2779 11.1942 17.9382 12.3987C17.0451 13.192 16.3047 14.2261 15.8464 15.4365C15.7642 14.279 15.488 13.1332 14.6419 12.1167C13.408 10.6301 11.3808 10.2423 9.99999 10.2423C7.46165 10.2423 5.97507 11.582 5.14658 12.716V10.7359H0.722107V26.0482H5.14658V18.2334C5.14658 17.352 5.18184 16.2532 5.83405 15.2602C6.48627 14.3084 7.39114 13.9206 8.55455 13.9206C8.98936 13.9206 9.92948 13.9911 10.617 14.6962C11.4161 15.5129 11.4513 16.8526 11.4513 17.7046V26.0482H15.8758V21.4357C16.34 22.605 17.0627 23.6156 17.9382 24.3854C19.2779 25.5899 21.3109 26.5477 24.2841 26.5477C27.2572 26.5477 29.2844 25.5899 30.6241 24.3854C31.4173 23.6861 32.093 22.793 32.5572 21.7589C33.7265 24.5793 36.3765 26.5477 39.9078 26.5477C41.0301 26.5477 43.1336 26.295 44.726 24.0681V26.0482H49.1504V21.706C49.5441 22.699 50.1611 23.5921 51.0307 24.3854C52.5937 25.8367 54.5151 26.5477 57.0475 26.5477C61.4132 26.5477 63.4228 24.2326 64.2983 22.7225V26.0482H68.7227V18.6917C68.7227 17.6341 68.758 16.3238 69.5924 15.2955C70.462 14.2378 71.6959 14.0616 72.5244 14.0616C73.4351 14.0616 74.011 14.2379 74.5927 14.6257L75.1744 10.5949C74.6632 10.4186 74.0521 10.2423 73.2882 10.2423ZM24.2841 22.7284C21.7105 22.7284 19.8596 20.7424 19.8596 18.4097C19.8596 16.077 21.7457 14.0616 24.2841 14.0616C26.8224 14.0616 28.7027 16.0065 28.7027 18.4097C28.7027 20.8129 26.8577 22.7284 24.2841 22.7284ZM40.8127 22.7284C38.2743 22.7284 36.4587 20.8129 36.4587 18.3744C36.4587 15.936 38.2743 14.0616 40.8127 14.0616C43.351 14.0616 45.1608 15.936 45.1608 18.3744C45.1608 20.8129 43.351 22.7284 40.8127 22.7284ZM56.977 13.2801C58.6105 13.2801 60.3497 14.2731 60.7081 16.359H53.2811C53.6454 14.3084 55.3435 13.2801 56.977 13.2801ZM60.7081 21.136C59.9854 22.37 58.7163 23.1514 57.0475 23.1514C55.3788 23.1514 54.3682 22.3347 53.8981 21.7001C53.3869 21.0303 53.1342 20.0373 53.1342 19.1206H64.2983V21.6942L60.7081 21.136Z" fill="#6F6F71"/>
<path d="M79.5753 25.6487C81.1752 25.6487 82.4721 24.3517 82.4721 22.7519C82.4721 21.152 81.1752 19.8551 79.5753 19.8551C77.9755 19.8551 76.6786 21.152 76.6786 22.7519C76.6786 24.3517 77.9755 25.6487 79.5753 25.6487Z" fill="#6F6F71"/>
</svg>
