<svg width="97" height="29" viewBox="0 0 97 29" fill="none" xmlns="http://www.w3.org/2000/svg">
<mask id="path-1-outside-1_46_32" maskUnits="userSpaceOnUse" x="-0.0463867" y="-0.135254" width="97" height="30" fill="black">
<rect fill="white" x="-0.0463867" y="-0.135254" width="97" height="30"/>
<path d="M27.0019 28.7608C26.8685 28.7608 26.7433 28.6927 26.6726 28.5784L20.5216 18.6873C20.3774 18.4559 20.1515 18.4314 20.0617 18.4314C19.9718 18.4314 19.7432 18.4559 19.6017 18.6873L13.4508 28.5784C13.38 28.6927 13.2548 28.7608 13.1214 28.7608H11.8477C11.5429 28.7608 11.3578 28.426 11.5184 28.1674L18.0259 17.7074C18.4668 16.997 19.2288 16.5752 20.0644 16.5752C20.8999 16.5752 21.662 16.997 22.1029 17.7074L28.6104 28.1674C28.771 28.426 28.5859 28.7608 28.2811 28.7608H27.0019Z"/>
<path d="M31.7781 28.7605H30.5043C30.371 28.7605 30.2458 28.6924 30.175 28.5781L20.8969 13.6598C20.7118 13.3631 20.4097 13.1944 20.0613 13.1944C19.7129 13.1944 19.4081 13.3631 19.2258 13.6598L9.94765 28.5781C9.87689 28.6924 9.75169 28.7605 9.61832 28.7605H8.34459C8.03976 28.7605 7.8547 28.4257 8.01528 28.1671L17.6472 12.68C18.1698 11.8389 19.0706 11.3381 20.0613 11.3381C20.5567 11.3381 21.0275 11.4633 21.4439 11.6947C21.8576 11.926 22.2141 12.2608 22.4754 12.68L32.1074 28.1671C32.268 28.4257 32.0829 28.7605 31.7781 28.7605Z"/>
<path d="M35.2782 28.7613H34.0044C33.8711 28.7613 33.7459 28.6932 33.6751 28.5789L21.2725 8.63341C21.0058 8.20609 20.5649 7.96112 20.0614 7.96112C19.5579 7.96112 19.117 8.20609 18.8502 8.63341L6.44766 28.5789C6.3769 28.6932 6.25169 28.7613 6.11833 28.7613H4.8446C4.53977 28.7613 4.35469 28.4265 4.51527 28.1679L17.2744 7.65083C17.865 6.70092 18.8775 6.12389 19.9933 6.10212C21.1691 6.07762 22.2632 6.70364 22.8865 7.70255L35.6129 28.1652C35.7735 28.4238 35.5884 28.7586 35.2836 28.7586L35.2782 28.7613Z"/>
<path d="M37.5075 28.7607C37.3741 28.7607 37.2489 28.6927 37.1782 28.5783L21.6484 3.60562C21.3 3.04493 20.723 2.72375 20.0616 2.72375C19.4003 2.72375 18.8233 3.04493 18.4749 3.60562L2.94516 28.5783C2.8744 28.6927 2.7492 28.7607 2.61583 28.7607H1.3421C1.03728 28.7607 0.852197 28.4259 1.01277 28.1673L16.8991 2.62305C17.5849 1.52343 18.7661 0.864746 20.0644 0.864746C21.3626 0.864746 22.5438 1.52071 23.2297 2.62305L39.116 28.1673C39.2765 28.4259 39.0915 28.7607 38.7867 28.7607H37.5075Z"/>
<path d="M48.9276 14.1972H45.3519L44.7603 15.9079H42.8696L46.0979 6.91739H48.1944L51.4228 15.9079H49.5192L48.9276 14.1972ZM48.4388 12.7567L47.1398 9.00103L45.8407 12.7567H48.4388Z"/>
<path d="M54.4302 9.8885C54.6617 9.51122 54.9618 9.21539 55.3305 9.00103C55.7078 8.78666 56.1365 8.67948 56.6167 8.67948V10.5702H56.1408C55.5749 10.5702 55.1461 10.7031 54.8546 10.9689C54.5716 11.2347 54.4302 11.6977 54.4302 12.358V15.9079H52.6295V8.78237H54.4302V9.8885Z"/>
<path d="M57.3665 12.3451C57.3665 11.6077 57.5165 10.9646 57.8167 10.4158C58.1168 9.85849 58.5326 9.42976 59.0643 9.12965C59.5959 8.82096 60.2047 8.66662 60.8907 8.66662C61.7738 8.66662 62.5027 8.88956 63.0772 9.33544C63.6603 9.77274 64.0504 10.3901 64.2476 11.1876H62.3055C62.2026 10.8789 62.0268 10.6388 61.7781 10.4673C61.538 10.2872 61.2379 10.1972 60.8778 10.1972C60.3633 10.1972 59.956 10.3858 59.6559 10.7631C59.3558 11.1318 59.2057 11.6592 59.2057 12.3451C59.2057 13.0225 59.3558 13.5499 59.6559 13.9271C59.956 14.2959 60.3633 14.4802 60.8778 14.4802C61.6066 14.4802 62.0825 14.1544 62.3055 13.5027H64.2476C64.0504 14.2744 63.6603 14.8875 63.0772 15.342C62.4941 15.7964 61.7653 16.0236 60.8907 16.0236C60.2047 16.0236 59.5959 15.8736 59.0643 15.5735C58.5326 15.2648 58.1168 14.8361 57.8167 14.2873C57.5165 13.7299 57.3665 13.0825 57.3665 12.3451Z"/>
<path d="M69.5797 8.67948C70.1199 8.67948 70.6001 8.79952 71.0202 9.03961C71.4404 9.27113 71.7662 9.6184 71.9977 10.0814C72.2378 10.5359 72.3579 11.0847 72.3579 11.7278V15.9079H70.5572V11.9721C70.5572 11.4062 70.4157 10.9732 70.1328 10.6731C69.8498 10.3644 69.4639 10.21 68.9752 10.21C68.4779 10.21 68.0834 10.3644 67.7919 10.6731C67.5089 10.9732 67.3674 11.4062 67.3674 11.9721V15.9079H65.5668V6.39006H67.3674V9.66985C67.599 9.36116 67.9076 9.12107 68.2935 8.94958C68.6794 8.76951 69.1081 8.67948 69.5797 8.67948Z"/>
<path d="M51.1012 28.6763H49.3006L45.2233 22.5154V28.6763H43.4227V19.6858H45.2233L49.3006 25.8595V19.6858H51.1012V28.6763Z"/>
<path d="M59.5046 24.9592C59.5046 25.2164 59.4874 25.4479 59.4531 25.6537H54.2441C54.2869 26.1682 54.467 26.5712 54.7843 26.8628C55.1015 27.1543 55.4917 27.3001 55.9547 27.3001C56.6235 27.3001 57.0994 27.0128 57.3824 26.4383H59.3245C59.1187 27.1243 58.7243 27.6902 58.1412 28.1361C57.5581 28.5734 56.8422 28.792 55.9933 28.792C55.3073 28.792 54.6899 28.642 54.1412 28.3419C53.601 28.0332 53.1765 27.6002 52.8678 27.0428C52.5677 26.4855 52.4177 25.8424 52.4177 25.1135C52.4177 24.3761 52.5677 23.7287 52.8678 23.1714C53.1679 22.614 53.5881 22.1853 54.1283 21.8852C54.6685 21.5851 55.2902 21.435 55.9933 21.435C56.6707 21.435 57.2752 21.5808 57.8068 21.8723C58.347 22.1639 58.7629 22.5797 59.0544 23.1199C59.3545 23.6516 59.5046 24.2646 59.5046 24.9592ZM57.6396 24.4447C57.631 23.9817 57.4638 23.613 57.138 23.3386C56.8122 23.0556 56.4134 22.9141 55.9418 22.9141C55.496 22.9141 55.1187 23.0513 54.81 23.3257C54.5099 23.5915 54.3255 23.9645 54.2569 24.4447H57.6396Z"/>
<path d="M62.9154 23.0299V26.4769C62.9154 26.717 62.9711 26.8928 63.0826 27.0042C63.2027 27.1071 63.3999 27.1586 63.6743 27.1586H64.5103V28.6763H63.3784C61.8607 28.6763 61.1019 27.9389 61.1019 26.464V23.0299H60.253V21.5508H61.1019V19.7887H62.9154V21.5508H64.5103V23.0299H62.9154Z"/>
<path d="M75.6834 21.5508L73.5997 28.6763H71.6576L70.3585 23.6987L69.0595 28.6763H67.1045L65.008 21.5508H66.8344L68.0948 26.9785L69.4582 21.5508H71.3618L72.6994 26.9656L73.9599 21.5508H75.6834Z"/>
<path d="M79.8217 28.792C79.1357 28.792 78.5184 28.642 77.9696 28.3419C77.4208 28.0332 76.9878 27.6002 76.6705 27.0428C76.3618 26.4855 76.2075 25.8424 76.2075 25.1135C76.2075 24.3847 76.3661 23.7416 76.6834 23.1842C77.0092 22.6269 77.4508 22.1982 78.0082 21.8981C78.5655 21.5894 79.1872 21.435 79.8732 21.435C80.5591 21.435 81.1808 21.5894 81.7381 21.8981C82.2955 22.1982 82.7328 22.6269 83.05 23.1842C83.3759 23.7416 83.5388 24.3847 83.5388 25.1135C83.5388 25.8424 83.3716 26.4855 83.0372 27.0428C82.7113 27.6002 82.2655 28.0332 81.6995 28.3419C81.1422 28.642 80.5162 28.792 79.8217 28.792ZM79.8217 27.2229C80.1475 27.2229 80.4519 27.1457 80.7349 26.9914C81.0264 26.8285 81.2579 26.5884 81.4294 26.2711C81.6009 25.9538 81.6867 25.568 81.6867 25.1135C81.6867 24.4361 81.5066 23.9174 81.1465 23.5572C80.7949 23.1885 80.3619 23.0042 79.8474 23.0042C79.3329 23.0042 78.8999 23.1885 78.5484 23.5572C78.2054 23.9174 78.0339 24.4361 78.0339 25.1135C78.0339 25.7909 78.2011 26.314 78.5355 26.6827C78.8785 27.0428 79.3072 27.2229 79.8217 27.2229Z"/>
<path d="M86.6603 22.6569C86.8918 22.2796 87.1919 21.9838 87.5607 21.7694C87.9379 21.5551 88.3667 21.4479 88.8468 21.4479V23.3386H88.371C87.805 23.3386 87.3763 23.4715 87.0848 23.7373C86.8018 24.0031 86.6603 24.4661 86.6603 25.1264V28.6763H84.8597V21.5508H86.6603V22.6569Z"/>
<path d="M94.2784 28.6763L91.8604 25.6409V28.6763H90.0597V19.1585H91.8604V24.5733L94.2527 21.5508H96.5936L93.4552 25.1264L96.6193 28.6763H94.2784Z"/>
</mask>
<path d="M27.0019 28.7608C26.8685 28.7608 26.7433 28.6927 26.6726 28.5784L20.5216 18.6873C20.3774 18.4559 20.1515 18.4314 20.0617 18.4314C19.9718 18.4314 19.7432 18.4559 19.6017 18.6873L13.4508 28.5784C13.38 28.6927 13.2548 28.7608 13.1214 28.7608H11.8477C11.5429 28.7608 11.3578 28.426 11.5184 28.1674L18.0259 17.7074C18.4668 16.997 19.2288 16.5752 20.0644 16.5752C20.8999 16.5752 21.662 16.997 22.1029 17.7074L28.6104 28.1674C28.771 28.426 28.5859 28.7608 28.2811 28.7608H27.0019Z" fill="#6F6F71"/>
<path d="M31.7781 28.7605H30.5043C30.371 28.7605 30.2458 28.6924 30.175 28.5781L20.8969 13.6598C20.7118 13.3631 20.4097 13.1944 20.0613 13.1944C19.7129 13.1944 19.4081 13.3631 19.2258 13.6598L9.94765 28.5781C9.87689 28.6924 9.75169 28.7605 9.61832 28.7605H8.34459C8.03976 28.7605 7.8547 28.4257 8.01528 28.1671L17.6472 12.68C18.1698 11.8389 19.0706 11.3381 20.0613 11.3381C20.5567 11.3381 21.0275 11.4633 21.4439 11.6947C21.8576 11.926 22.2141 12.2608 22.4754 12.68L32.1074 28.1671C32.268 28.4257 32.0829 28.7605 31.7781 28.7605Z" fill="#6F6F71"/>
<path d="M35.2782 28.7613H34.0044C33.8711 28.7613 33.7459 28.6932 33.6751 28.5789L21.2725 8.63341C21.0058 8.20609 20.5649 7.96112 20.0614 7.96112C19.5579 7.96112 19.117 8.20609 18.8502 8.63341L6.44766 28.5789C6.3769 28.6932 6.25169 28.7613 6.11833 28.7613H4.8446C4.53977 28.7613 4.35469 28.4265 4.51527 28.1679L17.2744 7.65083C17.865 6.70092 18.8775 6.12389 19.9933 6.10212C21.1691 6.07762 22.2632 6.70364 22.8865 7.70255L35.6129 28.1652C35.7735 28.4238 35.5884 28.7586 35.2836 28.7586L35.2782 28.7613Z" fill="#6F6F71"/>
<path d="M37.5075 28.7607C37.3741 28.7607 37.2489 28.6927 37.1782 28.5783L21.6484 3.60562C21.3 3.04493 20.723 2.72375 20.0616 2.72375C19.4003 2.72375 18.8233 3.04493 18.4749 3.60562L2.94516 28.5783C2.8744 28.6927 2.7492 28.7607 2.61583 28.7607H1.3421C1.03728 28.7607 0.852197 28.4259 1.01277 28.1673L16.8991 2.62305C17.5849 1.52343 18.7661 0.864746 20.0644 0.864746C21.3626 0.864746 22.5438 1.52071 23.2297 2.62305L39.116 28.1673C39.2765 28.4259 39.0915 28.7607 38.7867 28.7607H37.5075Z" fill="#6F6F71"/>
<path d="M48.9276 14.1972H45.3519L44.7603 15.9079H42.8696L46.0979 6.91739H48.1944L51.4228 15.9079H49.5192L48.9276 14.1972ZM48.4388 12.7567L47.1398 9.00103L45.8407 12.7567H48.4388Z" fill="#6F6F71"/>
<path d="M54.4302 9.8885C54.6617 9.51122 54.9618 9.21539 55.3305 9.00103C55.7078 8.78666 56.1365 8.67948 56.6167 8.67948V10.5702H56.1408C55.5749 10.5702 55.1461 10.7031 54.8546 10.9689C54.5716 11.2347 54.4302 11.6977 54.4302 12.358V15.9079H52.6295V8.78237H54.4302V9.8885Z" fill="#6F6F71"/>
<path d="M57.3665 12.3451C57.3665 11.6077 57.5165 10.9646 57.8167 10.4158C58.1168 9.85849 58.5326 9.42976 59.0643 9.12965C59.5959 8.82096 60.2047 8.66662 60.8907 8.66662C61.7738 8.66662 62.5027 8.88956 63.0772 9.33544C63.6603 9.77274 64.0504 10.3901 64.2476 11.1876H62.3055C62.2026 10.8789 62.0268 10.6388 61.7781 10.4673C61.538 10.2872 61.2379 10.1972 60.8778 10.1972C60.3633 10.1972 59.956 10.3858 59.6559 10.7631C59.3558 11.1318 59.2057 11.6592 59.2057 12.3451C59.2057 13.0225 59.3558 13.5499 59.6559 13.9271C59.956 14.2959 60.3633 14.4802 60.8778 14.4802C61.6066 14.4802 62.0825 14.1544 62.3055 13.5027H64.2476C64.0504 14.2744 63.6603 14.8875 63.0772 15.342C62.4941 15.7964 61.7653 16.0236 60.8907 16.0236C60.2047 16.0236 59.5959 15.8736 59.0643 15.5735C58.5326 15.2648 58.1168 14.8361 57.8167 14.2873C57.5165 13.7299 57.3665 13.0825 57.3665 12.3451Z" fill="#6F6F71"/>
<path d="M69.5797 8.67948C70.1199 8.67948 70.6001 8.79952 71.0202 9.03961C71.4404 9.27113 71.7662 9.6184 71.9977 10.0814C72.2378 10.5359 72.3579 11.0847 72.3579 11.7278V15.9079H70.5572V11.9721C70.5572 11.4062 70.4157 10.9732 70.1328 10.6731C69.8498 10.3644 69.4639 10.21 68.9752 10.21C68.4779 10.21 68.0834 10.3644 67.7919 10.6731C67.5089 10.9732 67.3674 11.4062 67.3674 11.9721V15.9079H65.5668V6.39006H67.3674V9.66985C67.599 9.36116 67.9076 9.12107 68.2935 8.94958C68.6794 8.76951 69.1081 8.67948 69.5797 8.67948Z" fill="#6F6F71"/>
<path d="M51.1012 28.6763H49.3006L45.2233 22.5154V28.6763H43.4227V19.6858H45.2233L49.3006 25.8595V19.6858H51.1012V28.6763Z" fill="#6F6F71"/>
<path d="M59.5046 24.9592C59.5046 25.2164 59.4874 25.4479 59.4531 25.6537H54.2441C54.2869 26.1682 54.467 26.5712 54.7843 26.8628C55.1015 27.1543 55.4917 27.3001 55.9547 27.3001C56.6235 27.3001 57.0994 27.0128 57.3824 26.4383H59.3245C59.1187 27.1243 58.7243 27.6902 58.1412 28.1361C57.5581 28.5734 56.8422 28.792 55.9933 28.792C55.3073 28.792 54.6899 28.642 54.1412 28.3419C53.601 28.0332 53.1765 27.6002 52.8678 27.0428C52.5677 26.4855 52.4177 25.8424 52.4177 25.1135C52.4177 24.3761 52.5677 23.7287 52.8678 23.1714C53.1679 22.614 53.5881 22.1853 54.1283 21.8852C54.6685 21.5851 55.2902 21.435 55.9933 21.435C56.6707 21.435 57.2752 21.5808 57.8068 21.8723C58.347 22.1639 58.7629 22.5797 59.0544 23.1199C59.3545 23.6516 59.5046 24.2646 59.5046 24.9592ZM57.6396 24.4447C57.631 23.9817 57.4638 23.613 57.138 23.3386C56.8122 23.0556 56.4134 22.9141 55.9418 22.9141C55.496 22.9141 55.1187 23.0513 54.81 23.3257C54.5099 23.5915 54.3255 23.9645 54.2569 24.4447H57.6396Z" fill="#6F6F71"/>
<path d="M62.9154 23.0299V26.4769C62.9154 26.717 62.9711 26.8928 63.0826 27.0042C63.2027 27.1071 63.3999 27.1586 63.6743 27.1586H64.5103V28.6763H63.3784C61.8607 28.6763 61.1019 27.9389 61.1019 26.464V23.0299H60.253V21.5508H61.1019V19.7887H62.9154V21.5508H64.5103V23.0299H62.9154Z" fill="#6F6F71"/>
<path d="M75.6834 21.5508L73.5997 28.6763H71.6576L70.3585 23.6987L69.0595 28.6763H67.1045L65.008 21.5508H66.8344L68.0948 26.9785L69.4582 21.5508H71.3618L72.6994 26.9656L73.9599 21.5508H75.6834Z" fill="#6F6F71"/>
<path d="M79.8217 28.792C79.1357 28.792 78.5184 28.642 77.9696 28.3419C77.4208 28.0332 76.9878 27.6002 76.6705 27.0428C76.3618 26.4855 76.2075 25.8424 76.2075 25.1135C76.2075 24.3847 76.3661 23.7416 76.6834 23.1842C77.0092 22.6269 77.4508 22.1982 78.0082 21.8981C78.5655 21.5894 79.1872 21.435 79.8732 21.435C80.5591 21.435 81.1808 21.5894 81.7381 21.8981C82.2955 22.1982 82.7328 22.6269 83.05 23.1842C83.3759 23.7416 83.5388 24.3847 83.5388 25.1135C83.5388 25.8424 83.3716 26.4855 83.0372 27.0428C82.7113 27.6002 82.2655 28.0332 81.6995 28.3419C81.1422 28.642 80.5162 28.792 79.8217 28.792ZM79.8217 27.2229C80.1475 27.2229 80.4519 27.1457 80.7349 26.9914C81.0264 26.8285 81.2579 26.5884 81.4294 26.2711C81.6009 25.9538 81.6867 25.568 81.6867 25.1135C81.6867 24.4361 81.5066 23.9174 81.1465 23.5572C80.7949 23.1885 80.3619 23.0042 79.8474 23.0042C79.3329 23.0042 78.8999 23.1885 78.5484 23.5572C78.2054 23.9174 78.0339 24.4361 78.0339 25.1135C78.0339 25.7909 78.2011 26.314 78.5355 26.6827C78.8785 27.0428 79.3072 27.2229 79.8217 27.2229Z" fill="#6F6F71"/>
<path d="M86.6603 22.6569C86.8918 22.2796 87.1919 21.9838 87.5607 21.7694C87.9379 21.5551 88.3667 21.4479 88.8468 21.4479V23.3386H88.371C87.805 23.3386 87.3763 23.4715 87.0848 23.7373C86.8018 24.0031 86.6603 24.4661 86.6603 25.1264V28.6763H84.8597V21.5508H86.6603V22.6569Z" fill="#6F6F71"/>
<path d="M94.2784 28.6763L91.8604 25.6409V28.6763H90.0597V19.1585H91.8604V24.5733L94.2527 21.5508H96.5936L93.4552 25.1264L96.6193 28.6763H94.2784Z" fill="#6F6F71"/>
<path d="M27.0019 28.7608C26.8685 28.7608 26.7433 28.6927 26.6726 28.5784L20.5216 18.6873C20.3774 18.4559 20.1515 18.4314 20.0617 18.4314C19.9718 18.4314 19.7432 18.4559 19.6017 18.6873L13.4508 28.5784C13.38 28.6927 13.2548 28.7608 13.1214 28.7608H11.8477C11.5429 28.7608 11.3578 28.426 11.5184 28.1674L18.0259 17.7074C18.4668 16.997 19.2288 16.5752 20.0644 16.5752C20.8999 16.5752 21.662 16.997 22.1029 17.7074L28.6104 28.1674C28.771 28.426 28.5859 28.7608 28.2811 28.7608H27.0019Z" stroke="#6F6F71" stroke-width="0.2" mask="url(#path-1-outside-1_46_32)"/>
<path d="M31.7781 28.7605H30.5043C30.371 28.7605 30.2458 28.6924 30.175 28.5781L20.8969 13.6598C20.7118 13.3631 20.4097 13.1944 20.0613 13.1944C19.7129 13.1944 19.4081 13.3631 19.2258 13.6598L9.94765 28.5781C9.87689 28.6924 9.75169 28.7605 9.61832 28.7605H8.34459C8.03976 28.7605 7.8547 28.4257 8.01528 28.1671L17.6472 12.68C18.1698 11.8389 19.0706 11.3381 20.0613 11.3381C20.5567 11.3381 21.0275 11.4633 21.4439 11.6947C21.8576 11.926 22.2141 12.2608 22.4754 12.68L32.1074 28.1671C32.268 28.4257 32.0829 28.7605 31.7781 28.7605Z" stroke="#6F6F71" stroke-width="0.2" mask="url(#path-1-outside-1_46_32)"/>
<path d="M35.2782 28.7613H34.0044C33.8711 28.7613 33.7459 28.6932 33.6751 28.5789L21.2725 8.63341C21.0058 8.20609 20.5649 7.96112 20.0614 7.96112C19.5579 7.96112 19.117 8.20609 18.8502 8.63341L6.44766 28.5789C6.3769 28.6932 6.25169 28.7613 6.11833 28.7613H4.8446C4.53977 28.7613 4.35469 28.4265 4.51527 28.1679L17.2744 7.65083C17.865 6.70092 18.8775 6.12389 19.9933 6.10212C21.1691 6.07762 22.2632 6.70364 22.8865 7.70255L35.6129 28.1652C35.7735 28.4238 35.5884 28.7586 35.2836 28.7586L35.2782 28.7613Z" stroke="#6F6F71" stroke-width="0.2" mask="url(#path-1-outside-1_46_32)"/>
<path d="M37.5075 28.7607C37.3741 28.7607 37.2489 28.6927 37.1782 28.5783L21.6484 3.60562C21.3 3.04493 20.723 2.72375 20.0616 2.72375C19.4003 2.72375 18.8233 3.04493 18.4749 3.60562L2.94516 28.5783C2.8744 28.6927 2.7492 28.7607 2.61583 28.7607H1.3421C1.03728 28.7607 0.852197 28.4259 1.01277 28.1673L16.8991 2.62305C17.5849 1.52343 18.7661 0.864746 20.0644 0.864746C21.3626 0.864746 22.5438 1.52071 23.2297 2.62305L39.116 28.1673C39.2765 28.4259 39.0915 28.7607 38.7867 28.7607H37.5075Z" stroke="#6F6F71" stroke-width="0.2" mask="url(#path-1-outside-1_46_32)"/>
<path d="M48.9276 14.1972H45.3519L44.7603 15.9079H42.8696L46.0979 6.91739H48.1944L51.4228 15.9079H49.5192L48.9276 14.1972ZM48.4388 12.7567L47.1398 9.00103L45.8407 12.7567H48.4388Z" stroke="#6F6F71" stroke-width="0.2" mask="url(#path-1-outside-1_46_32)"/>
<path d="M54.4302 9.8885C54.6617 9.51122 54.9618 9.21539 55.3305 9.00103C55.7078 8.78666 56.1365 8.67948 56.6167 8.67948V10.5702H56.1408C55.5749 10.5702 55.1461 10.7031 54.8546 10.9689C54.5716 11.2347 54.4302 11.6977 54.4302 12.358V15.9079H52.6295V8.78237H54.4302V9.8885Z" stroke="#6F6F71" stroke-width="0.2" mask="url(#path-1-outside-1_46_32)"/>
<path d="M57.3665 12.3451C57.3665 11.6077 57.5165 10.9646 57.8167 10.4158C58.1168 9.85849 58.5326 9.42976 59.0643 9.12965C59.5959 8.82096 60.2047 8.66662 60.8907 8.66662C61.7738 8.66662 62.5027 8.88956 63.0772 9.33544C63.6603 9.77274 64.0504 10.3901 64.2476 11.1876H62.3055C62.2026 10.8789 62.0268 10.6388 61.7781 10.4673C61.538 10.2872 61.2379 10.1972 60.8778 10.1972C60.3633 10.1972 59.956 10.3858 59.6559 10.7631C59.3558 11.1318 59.2057 11.6592 59.2057 12.3451C59.2057 13.0225 59.3558 13.5499 59.6559 13.9271C59.956 14.2959 60.3633 14.4802 60.8778 14.4802C61.6066 14.4802 62.0825 14.1544 62.3055 13.5027H64.2476C64.0504 14.2744 63.6603 14.8875 63.0772 15.342C62.4941 15.7964 61.7653 16.0236 60.8907 16.0236C60.2047 16.0236 59.5959 15.8736 59.0643 15.5735C58.5326 15.2648 58.1168 14.8361 57.8167 14.2873C57.5165 13.7299 57.3665 13.0825 57.3665 12.3451Z" stroke="#6F6F71" stroke-width="0.2" mask="url(#path-1-outside-1_46_32)"/>
<path d="M69.5797 8.67948C70.1199 8.67948 70.6001 8.79952 71.0202 9.03961C71.4404 9.27113 71.7662 9.6184 71.9977 10.0814C72.2378 10.5359 72.3579 11.0847 72.3579 11.7278V15.9079H70.5572V11.9721C70.5572 11.4062 70.4157 10.9732 70.1328 10.6731C69.8498 10.3644 69.4639 10.21 68.9752 10.21C68.4779 10.21 68.0834 10.3644 67.7919 10.6731C67.5089 10.9732 67.3674 11.4062 67.3674 11.9721V15.9079H65.5668V6.39006H67.3674V9.66985C67.599 9.36116 67.9076 9.12107 68.2935 8.94958C68.6794 8.76951 69.1081 8.67948 69.5797 8.67948Z" stroke="#6F6F71" stroke-width="0.2" mask="url(#path-1-outside-1_46_32)"/>
<path d="M51.1012 28.6763H49.3006L45.2233 22.5154V28.6763H43.4227V19.6858H45.2233L49.3006 25.8595V19.6858H51.1012V28.6763Z" stroke="#6F6F71" stroke-width="0.2" mask="url(#path-1-outside-1_46_32)"/>
<path d="M59.5046 24.9592C59.5046 25.2164 59.4874 25.4479 59.4531 25.6537H54.2441C54.2869 26.1682 54.467 26.5712 54.7843 26.8628C55.1015 27.1543 55.4917 27.3001 55.9547 27.3001C56.6235 27.3001 57.0994 27.0128 57.3824 26.4383H59.3245C59.1187 27.1243 58.7243 27.6902 58.1412 28.1361C57.5581 28.5734 56.8422 28.792 55.9933 28.792C55.3073 28.792 54.6899 28.642 54.1412 28.3419C53.601 28.0332 53.1765 27.6002 52.8678 27.0428C52.5677 26.4855 52.4177 25.8424 52.4177 25.1135C52.4177 24.3761 52.5677 23.7287 52.8678 23.1714C53.1679 22.614 53.5881 22.1853 54.1283 21.8852C54.6685 21.5851 55.2902 21.435 55.9933 21.435C56.6707 21.435 57.2752 21.5808 57.8068 21.8723C58.347 22.1639 58.7629 22.5797 59.0544 23.1199C59.3545 23.6516 59.5046 24.2646 59.5046 24.9592ZM57.6396 24.4447C57.631 23.9817 57.4638 23.613 57.138 23.3386C56.8122 23.0556 56.4134 22.9141 55.9418 22.9141C55.496 22.9141 55.1187 23.0513 54.81 23.3257C54.5099 23.5915 54.3255 23.9645 54.2569 24.4447H57.6396Z" stroke="#6F6F71" stroke-width="0.2" mask="url(#path-1-outside-1_46_32)"/>
<path d="M62.9154 23.0299V26.4769C62.9154 26.717 62.9711 26.8928 63.0826 27.0042C63.2027 27.1071 63.3999 27.1586 63.6743 27.1586H64.5103V28.6763H63.3784C61.8607 28.6763 61.1019 27.9389 61.1019 26.464V23.0299H60.253V21.5508H61.1019V19.7887H62.9154V21.5508H64.5103V23.0299H62.9154Z" stroke="#6F6F71" stroke-width="0.2" mask="url(#path-1-outside-1_46_32)"/>
<path d="M75.6834 21.5508L73.5997 28.6763H71.6576L70.3585 23.6987L69.0595 28.6763H67.1045L65.008 21.5508H66.8344L68.0948 26.9785L69.4582 21.5508H71.3618L72.6994 26.9656L73.9599 21.5508H75.6834Z" stroke="#6F6F71" stroke-width="0.2" mask="url(#path-1-outside-1_46_32)"/>
<path d="M79.8217 28.792C79.1357 28.792 78.5184 28.642 77.9696 28.3419C77.4208 28.0332 76.9878 27.6002 76.6705 27.0428C76.3618 26.4855 76.2075 25.8424 76.2075 25.1135C76.2075 24.3847 76.3661 23.7416 76.6834 23.1842C77.0092 22.6269 77.4508 22.1982 78.0082 21.8981C78.5655 21.5894 79.1872 21.435 79.8732 21.435C80.5591 21.435 81.1808 21.5894 81.7381 21.8981C82.2955 22.1982 82.7328 22.6269 83.05 23.1842C83.3759 23.7416 83.5388 24.3847 83.5388 25.1135C83.5388 25.8424 83.3716 26.4855 83.0372 27.0428C82.7113 27.6002 82.2655 28.0332 81.6995 28.3419C81.1422 28.642 80.5162 28.792 79.8217 28.792ZM79.8217 27.2229C80.1475 27.2229 80.4519 27.1457 80.7349 26.9914C81.0264 26.8285 81.2579 26.5884 81.4294 26.2711C81.6009 25.9538 81.6867 25.568 81.6867 25.1135C81.6867 24.4361 81.5066 23.9174 81.1465 23.5572C80.7949 23.1885 80.3619 23.0042 79.8474 23.0042C79.3329 23.0042 78.8999 23.1885 78.5484 23.5572C78.2054 23.9174 78.0339 24.4361 78.0339 25.1135C78.0339 25.7909 78.2011 26.314 78.5355 26.6827C78.8785 27.0428 79.3072 27.2229 79.8217 27.2229Z" stroke="#6F6F71" stroke-width="0.2" mask="url(#path-1-outside-1_46_32)"/>
<path d="M86.6603 22.6569C86.8918 22.2796 87.1919 21.9838 87.5607 21.7694C87.9379 21.5551 88.3667 21.4479 88.8468 21.4479V23.3386H88.371C87.805 23.3386 87.3763 23.4715 87.0848 23.7373C86.8018 24.0031 86.6603 24.4661 86.6603 25.1264V28.6763H84.8597V21.5508H86.6603V22.6569Z" stroke="#6F6F71" stroke-width="0.2" mask="url(#path-1-outside-1_46_32)"/>
<path d="M94.2784 28.6763L91.8604 25.6409V28.6763H90.0597V19.1585H91.8604V24.5733L94.2527 21.5508H96.5936L93.4552 25.1264L96.6193 28.6763H94.2784Z" stroke="#6F6F71" stroke-width="0.2" mask="url(#path-1-outside-1_46_32)"/>
</svg>
