<svg width="138" height="22" viewBox="0 0 138 22" fill="none" xmlns="http://www.w3.org/2000/svg">
<path d="M35.5067 13.3999V12.2173H32.5543V9.86015H38.0702V14.5427C36.8956 15.7808 35.1654 16.765 33.4194 16.765C30.0622 16.765 27.3955 14.2015 27.3955 10.8205C27.3955 7.44744 30.0781 4.89187 33.4194 4.89187C35.3876 4.89187 37.3559 5.92362 38.2924 7.69347L36.1575 9.11412C35.6575 8.12205 34.5384 7.39982 33.4194 7.39982C31.5622 7.39982 30.1098 8.99507 30.1098 10.8205C30.1098 12.7411 31.459 14.257 33.4194 14.257C34.1654 14.257 34.9749 13.9237 35.5067 13.3999Z" fill="#6F6F71"/>
<path d="M41.0769 16.5189V5.1379H43.7991V16.5189H41.0769Z" fill="#6F6F71"/>
<path d="M54.3138 5.1379H57.1551L52.7185 16.5189H50.4646L46.028 5.1379H48.8693L51.5995 12.6618L54.3138 5.1379Z" fill="#6F6F71"/>
<path d="M59.3443 5.1379H61.5824L66.5428 11.7887V5.1379H69.2571V16.5189H67.011L62.0586 9.86809V16.5189H59.3443V5.1379Z" fill="#6F6F71"/>
<path d="M72.3114 5.1379H80.5654V7.66173L75.0336 7.65379V9.36809H79.3114V11.876H75.0336V13.9951H80.5654V16.5189H72.3114V5.1379Z" fill="#6F6F71"/>
<path d="M85.7943 7.73316V10.384H87.588C88.3499 10.384 88.9372 9.82047 88.9372 9.05062C88.9372 8.30459 88.3261 7.73316 87.588 7.73316H85.7943ZM89.3261 16.5189L87.1832 12.8126H85.8737V16.5189H83.1514V5.1379H87.588C89.707 5.1379 91.6674 6.78871 91.6674 8.9792C91.6674 10.249 91.0166 11.5586 89.8816 12.1856L92.4769 16.5189H89.3261Z" fill="#6F6F71"/>
<path d="M100.832 5.1379H103.546V14.003H108.07V16.5189H100.832V5.1379Z" fill="#6F6F71"/>
<path d="M114.005 5.1379H116.441L121.108 16.5189H118.18L117.307 14.384H113.14L112.259 16.5189H109.338L114.005 5.1379ZM115.227 8.86808L113.918 12.2887H116.521L115.227 8.86808Z" fill="#6F6F71"/>
<path d="M128.115 5.10615H130.361L132.575 12.2491L134.655 5.1379H137.448L133.797 16.5189H131.528L129.242 9.00301L126.948 16.5189H124.686L121.035 5.1379H123.829L125.901 12.2491L128.115 5.10615Z" fill="#6F6F71"/>
<path d="M4.57003 0.240173H17.6514V4.49562H4.57003V0.240173Z" fill="#6F6F71"/>
<path d="M4.57003 17.1612H17.6514V21.4166H4.57003V17.1612Z" fill="#6F6F71"/>
<path d="M9.03166 8.70068H17.6514V12.9561H9.03166V8.70068Z" fill="#6F6F71"/>
<path d="M17.6514 12.9561H21.9058V17.2116H17.6514V12.9561Z" fill="#6F6F71"/>
<path d="M0.314454 17.1612L0.314453 4.49562H4.57003V17.1612H0.314454Z" fill="#6F6F71"/>
</svg>
