<svg width="86" height="31" viewBox="0 0 86 31" fill="none" xmlns="http://www.w3.org/2000/svg">
<mask id="path-1-outside-1_46_49" maskUnits="userSpaceOnUse" x="-0.541016" y="-0.0303955" width="86" height="31" fill="black">
<rect fill="white" x="-0.541016" y="-0.0303955" width="86" height="31"/>
<path d="M15.0223 1.04233L14.9191 0.982694C14.9191 0.982694 14.9045 0.973968 14.8973 0.969604H14.8943C14.8856 0.975422 14.8783 0.979786 14.8696 0.984149L14.7707 1.04233C13.6159 1.7041 12.6414 2.43859 11.8589 3.23708C12.0669 3.41016 12.2647 3.59197 12.4538 3.77086C12.5381 3.85231 12.6181 3.93667 12.7054 4.02248C12.7781 4.0923 12.8436 4.16502 12.9148 4.24356C13.069 4.40646 13.2246 4.5839 13.3919 4.78752C13.8166 4.35119 14.3198 3.93376 14.8973 3.5367C15.4718 3.93231 15.9721 4.34828 16.3968 4.78316C16.8637 4.21738 17.3771 3.69814 17.9327 3.23417C17.1473 2.43568 16.1743 1.70264 15.0223 1.04233ZM5.52481 17.8906C4.83832 17.4746 4.18963 16.8929 3.58313 16.1496C3.3926 15.9169 3.20788 15.6697 3.02608 15.4064C3.20643 15.1446 3.3926 14.8974 3.58168 14.6661C4.18963 13.9214 4.83977 13.3382 5.52481 12.9222L6.33494 12.4306L6.89199 12.0946C6.08914 11.8532 5.25283 11.6889 4.38598 11.603C4.18236 11.5827 3.95401 11.5914 3.71403 11.603C3.67476 11.603 3.63549 11.606 3.59477 11.6074C3.12643 11.9681 2.67847 12.3884 2.24941 12.867C1.63563 13.552 1.05967 14.3592 0.531707 15.2799L0.47062 15.3861C0.47062 15.3861 0.467711 15.3904 0.466257 15.3933C0.463348 15.3977 0.461893 15.4021 0.458984 15.4079C0.463348 15.4151 0.469165 15.4239 0.473529 15.4311L0.531707 15.533C1.05967 16.4536 1.63563 17.2608 2.25086 17.9473C2.67847 18.4244 3.12643 18.8447 3.59331 19.2054C3.63404 19.2054 3.67621 19.2083 3.71694 19.2098C3.95401 19.2185 4.18236 19.2302 4.38598 19.2098C5.15538 19.1313 5.91024 18.9916 6.62728 18.7938C6.716 18.7691 6.80327 18.7444 6.89054 18.7182L6.33494 18.3822L5.52481 17.8906ZM8.97476 23.9556C8.82058 23.9687 8.6635 23.976 8.50352 23.9789C8.45406 23.9804 8.40461 23.9804 8.35516 23.9804C7.77484 23.9804 7.15525 23.9193 6.50365 23.8C6.46584 23.5949 6.43384 23.3942 6.40912 23.1964C5.71826 23.464 5.00994 23.6662 4.29145 23.7986C4.37435 24.3411 4.49507 24.901 4.65069 25.4755L4.68851 25.6152L4.82814 25.653C6.05278 25.9846 7.20761 26.1548 8.28389 26.162L8.21844 24.6945C8.21554 24.6392 8.22717 24.5883 8.25626 24.5418C8.37989 24.3542 8.68241 24.1404 8.97476 23.9556ZM17.7029 27.3809C17.5923 27.2849 17.4876 27.1874 17.3858 27.0929C17.2811 26.9911 17.1764 26.8878 17.0775 26.7874C17.0091 26.7205 16.9437 26.6507 16.8782 26.5824C16.7822 26.4762 16.6906 26.3729 16.599 26.2668L16.5568 26.2188C16.5073 26.1606 16.4608 26.1053 16.4055 26.0399C16.4026 26.037 16.3997 26.0326 16.3968 26.0297C15.9721 26.4646 15.4718 26.8805 14.8958 27.2761C14.3213 26.8805 13.8195 26.4646 13.3948 26.0282C12.9308 26.5925 12.4189 27.1089 11.8589 27.5772C12.6443 28.3757 13.6188 29.1087 14.7707 29.772L14.8769 29.8331C14.8769 29.8331 14.8885 29.8403 14.8943 29.8432L15.0209 29.772C16.1728 29.1102 17.1458 28.3771 17.9312 27.5787C17.8541 27.5147 17.7771 27.4478 17.7014 27.3809H17.7029ZM29.2613 15.2799C28.7334 14.3592 28.1574 13.552 27.5407 12.867C27.1131 12.3884 26.6652 11.9681 26.1983 11.6074C26.1561 11.6074 26.1154 11.6045 26.0747 11.603C25.8332 11.5914 25.6092 11.5827 25.4013 11.603C24.5359 11.6889 23.701 11.8518 22.8981 12.0932L24.2682 12.9222C24.9547 13.3382 25.6034 13.9214 26.2114 14.6632C26.4005 14.8959 26.5866 15.1432 26.767 15.4064C26.5852 15.6697 26.399 15.9169 26.2085 16.1496C25.602 16.8929 24.9533 17.4746 24.2682 17.8906L23.4567 18.3822L22.9025 18.7167C22.952 18.7342 23.0029 18.7487 23.0538 18.7633C23.8043 18.9756 24.594 19.1298 25.4013 19.2098C25.6063 19.2302 25.8303 19.2185 26.0717 19.2098C26.1125 19.2098 26.1547 19.2069 26.1968 19.2054C26.6637 18.8447 27.1117 18.4258 27.5393 17.9473C28.1574 17.2608 28.7334 16.4536 29.2613 15.533L29.3297 15.4122C29.3297 15.4122 29.3297 15.4093 29.3326 15.4079L29.2613 15.2799ZM25.1424 5.33876L25.1045 5.19913L24.9649 5.16131C23.7388 4.8297 22.5825 4.65953 21.5048 4.65226L21.5702 6.11979C21.5731 6.17361 21.5601 6.22742 21.5324 6.27105C21.4088 6.46159 21.1034 6.67539 20.8096 6.85865C20.9666 6.84556 21.1266 6.83829 21.2895 6.83538C21.339 6.83538 21.3884 6.83538 21.4379 6.83538C22.0197 6.83538 22.6393 6.89501 23.2894 7.01573C23.3272 7.21935 23.3578 7.42007 23.3839 7.61642C24.0733 7.35025 24.7817 7.14808 25.5002 7.01573C25.4172 6.47322 25.298 5.91472 25.1424 5.34021V5.33876ZM23.3839 23.1979C23.3592 23.3942 23.3272 23.5964 23.2894 23.8C22.6378 23.9193 22.0197 23.9804 21.4393 23.9804C21.3884 23.9804 21.3375 23.9804 21.2866 23.9789C21.1266 23.976 20.9681 23.9687 20.8139 23.9556C21.1063 24.1404 21.4103 24.3542 21.5324 24.5418C21.5601 24.5883 21.5731 24.6392 21.5702 24.693L21.5048 26.162C22.5811 26.1548 23.7388 25.9846 24.9649 25.653L25.1045 25.6152L25.1424 25.4755C25.298 24.901 25.4172 24.3411 25.5002 23.7986C24.7817 23.6677 24.0733 23.464 23.3839 23.1979ZM8.25626 6.27105C8.22717 6.22742 8.21554 6.17361 8.21844 6.11979L8.28389 4.65226C7.20906 4.65953 6.05278 4.8297 4.82814 5.16131L4.68851 5.19913L4.65069 5.33876C4.49507 5.91181 4.3758 6.47177 4.29145 7.01428C5.00994 7.14663 5.71971 7.35025 6.40912 7.61642C6.43384 7.42007 6.46584 7.2179 6.50365 7.01428C7.15379 6.89501 7.77338 6.83392 8.35371 6.83392C8.40316 6.83392 8.45261 6.83392 8.50206 6.83392C8.6635 6.83683 8.82204 6.84411 8.97621 6.8572C8.68532 6.67394 8.37989 6.46013 8.25626 6.2696V6.27105Z"/>
<path d="M12.1033 13.7905C10.4757 12.419 8.64023 11.4721 6.61856 10.9602C5.92915 10.7871 5.21938 10.662 4.48779 10.5893C4.42525 10.5835 4.3598 10.5791 4.2929 10.5762C4.23181 10.5733 4.16782 10.5718 4.10237 10.5718C3.95256 10.5718 3.80421 10.5791 3.66603 10.5849C3.5584 10.5893 3.43914 10.5951 3.32278 10.5951C3.26897 10.5951 3.22388 10.5951 3.18752 10.5922C3.12789 10.4919 3.04062 10.3362 2.91263 10.0962L2.85445 9.98716C2.82536 9.92898 2.79628 9.87371 2.76864 9.82862C2.44866 9.25557 2.02833 8.42363 1.77235 7.86221H1.78835C1.95997 7.85203 2.13305 7.84767 2.30322 7.84767C2.93008 7.84767 3.55695 7.9073 4.17364 8.02366C4.90813 8.16329 5.62953 8.38 6.32767 8.67089C8.68532 9.64973 10.7637 11.4503 12.1033 13.7905Z"/>
<path d="M28.0178 7.86221C27.7589 8.42654 27.3371 9.26139 27.0142 9.83735L26.9779 9.90425C26.9531 9.95225 26.924 10.0046 26.8935 10.0657C26.7772 10.2897 26.6768 10.4686 26.6041 10.5922C26.5677 10.5937 26.5226 10.5951 26.4688 10.5951C26.3525 10.5951 26.2317 10.5893 26.1168 10.5849C25.9918 10.5791 25.839 10.5718 25.6878 10.5718C25.6223 10.5718 25.5612 10.5733 25.5016 10.5762C25.4347 10.5762 25.3722 10.582 25.3096 10.5878C24.5766 10.6606 23.8654 10.7856 23.1759 10.9602C21.1514 11.4721 19.3129 12.419 17.684 13.792C19.0264 11.4489 21.1063 9.64827 23.4654 8.66943C24.1621 8.38 24.8849 8.16183 25.6194 8.02366C26.2346 7.9073 26.8601 7.84767 27.4869 7.84767C27.6585 7.84767 27.8302 7.85203 27.9989 7.86076C28.0062 7.86076 28.012 7.86076 28.0178 7.86076V7.86221Z"/>
<path d="M28.0192 22.9521C28.0192 22.9521 28.0062 22.9521 27.9989 22.9535C27.8302 22.9623 27.6585 22.9666 27.4869 22.9666C26.8601 22.9666 26.2346 22.907 25.6194 22.7892C24.8849 22.651 24.1635 22.4343 23.4654 22.1434C21.1063 21.1646 19.025 19.3625 17.6825 17.0194C19.1937 18.292 20.9027 19.2054 22.7745 19.7407C22.9069 19.7785 23.0392 19.8148 23.173 19.8468C23.8697 20.0257 24.5838 20.1508 25.3009 20.2221C25.362 20.2294 25.4289 20.2337 25.5001 20.2366C25.554 20.2366 25.6107 20.2395 25.6689 20.2395C25.7969 20.2395 25.9307 20.2337 26.0717 20.2279L26.1416 20.225C26.2477 20.2221 26.3554 20.2177 26.4615 20.2177C26.5183 20.2177 26.5648 20.2177 26.6026 20.2206C26.6652 20.3268 26.7641 20.5013 26.8964 20.7559L26.956 20.8649C26.9793 20.9086 27.0011 20.9479 27.0215 20.9828C27.3487 21.5747 27.7633 22.395 28.0192 22.9521Z"/>
<path d="M12.1062 17.0209C10.7666 19.3611 8.68532 21.1631 6.32767 22.1434C5.62953 22.4328 4.90813 22.651 4.17364 22.7892C3.55695 22.9055 2.93008 22.9666 2.30322 22.9666C2.13305 22.9666 1.96143 22.9623 1.79271 22.9535C1.78544 22.9521 1.77962 22.9521 1.77235 22.9521C2.03124 22.3877 2.45157 21.5558 2.77155 20.9798C2.80209 20.9289 2.83845 20.8591 2.88063 20.7791L2.9199 20.705C3.03044 20.4984 3.11916 20.3355 3.18752 20.2206C3.22097 20.2192 3.2617 20.2177 3.3126 20.2177C3.41005 20.2177 3.51041 20.2206 3.61076 20.2235L3.71258 20.2279C3.85075 20.2337 3.98892 20.2395 4.11982 20.2395C4.17945 20.2395 4.23763 20.2381 4.2929 20.2352C4.36417 20.2337 4.43107 20.2279 4.49507 20.2206C5.22665 20.1465 5.94078 20.0214 6.62001 19.8483C6.71455 19.825 6.80763 19.8003 6.90072 19.7741C8.81622 19.2447 10.563 18.3197 12.1062 17.0209Z"/>
<path d="M20.0009 24.6494C20.1318 24.7279 20.3674 24.8719 20.5376 24.9941L20.4023 28.0499C20.2191 27.9466 20.0242 27.8245 19.9151 27.7561L19.8104 27.6907C19.4162 27.4419 19.0395 27.17 18.689 26.8834L18.6439 26.8442L18.6294 26.8325C18.6294 26.8325 18.6163 26.8223 18.6104 26.8165C18.5348 26.7554 18.4621 26.69 18.3879 26.626L18.3777 26.6173C18.2672 26.5227 18.1698 26.4311 18.0839 26.3511C17.9952 26.2638 17.8934 26.1635 17.7989 26.0689C17.7552 26.0253 17.7145 25.9831 17.6752 25.941L17.6214 25.8842C17.5371 25.7941 17.4542 25.6981 17.3713 25.6006L17.3218 25.5453C17.2796 25.4973 17.2375 25.4464 17.188 25.3883L17.1807 25.381L17.0702 25.2399L17.0513 25.2152C16.9684 25.1105 16.8927 25.0145 16.8244 24.9185L16.804 24.8908L16.7938 24.8778C16.7749 24.8545 16.756 24.8269 16.7357 24.7963L16.7153 24.7658L16.7022 24.7483C16.6644 24.6974 16.6266 24.645 16.5888 24.5898C16.5233 24.4909 16.4564 24.3905 16.3895 24.2873L16.3008 24.1447C16.263 24.0851 16.231 24.0313 16.1975 23.9731L16.183 23.9498C16.135 23.8698 16.0943 23.7986 16.0535 23.7258L16.0099 23.6502C15.7874 23.2459 15.3583 22.9928 14.8929 22.9928C14.4856 22.9928 14.1017 23.1877 13.8617 23.5164L13.8311 23.5499L13.7715 23.656C13.4632 24.2189 13.1126 24.7469 12.7214 25.2385C12.2647 25.8159 11.7498 26.3424 11.1826 26.8151C10.8059 27.1307 10.4045 27.4216 9.97978 27.6892L9.87942 27.7532C9.77906 27.8172 9.57835 27.9437 9.38927 28.0499L9.2511 24.9941C9.42709 24.8705 9.67434 24.7192 9.79361 24.6465C9.99723 24.5258 10.211 24.3949 10.3856 24.2669C10.7245 24.008 11.0502 23.7404 11.3615 23.4611C12.6487 22.3092 13.6872 20.9929 14.4566 19.5327L14.6238 19.2171L14.602 18.8375C14.57 18.4433 14.5584 18.0535 14.5642 17.6754L14.5685 17.5619C14.5787 17.2099 14.4507 16.8812 14.2093 16.634C13.9693 16.3867 13.6333 16.2456 13.2872 16.2456C13.1505 16.2456 13.0196 16.266 12.8959 16.3053C13.1301 16.0682 13.2654 15.7438 13.2654 15.4108C13.2654 15.0748 13.133 14.7476 12.8974 14.509C13.021 14.5483 13.1519 14.5687 13.2872 14.5687C13.6333 14.5687 13.9693 14.4261 14.2093 14.1803C14.4507 13.9331 14.5787 13.6044 14.5685 13.2553L14.5656 13.1098V13.1069C14.5584 12.7361 14.5715 12.3594 14.602 11.9841L14.6238 11.5914L14.4493 11.27C13.6828 9.81553 12.6472 8.50072 11.363 7.35316C11.0561 7.07827 10.7332 6.81211 10.3972 6.55612C10.2285 6.42522 10.0278 6.30596 9.81397 6.17797L9.79215 6.16488C9.68452 6.09943 9.43145 5.94671 9.2511 5.81872L9.38927 2.76293C9.56962 2.86329 9.7587 2.98256 9.86633 3.04946L9.97105 3.11782C10.339 3.34762 10.691 3.59924 11.0197 3.86686C11.0735 3.90904 11.1273 3.95267 11.1811 3.99776C11.3644 4.15047 11.552 4.31773 11.7527 4.50827C11.7935 4.54899 11.8371 4.59408 11.8836 4.63917L11.9855 4.74243C12.0509 4.80643 12.1018 4.86024 12.1629 4.92715C12.3083 5.08277 12.4494 5.24276 12.6094 5.43766C12.6472 5.4842 12.685 5.52929 12.7214 5.57583C12.749 5.61219 12.7781 5.64855 12.8072 5.68637C13.1679 6.14888 13.4923 6.64194 13.7701 7.15245L13.8399 7.28044L13.882 7.32262C14.122 7.63387 14.4987 7.81858 14.8929 7.81858C15.3598 7.81858 15.7903 7.56405 16.0143 7.1539C16.3139 6.61139 16.6499 6.10379 17.012 5.64419C17.0309 5.61946 17.0498 5.59619 17.0702 5.57147C17.5312 4.9926 18.049 4.46318 18.6104 3.99776C18.6744 3.94249 18.7384 3.89013 18.8024 3.83922C19.1079 3.59488 19.4482 3.35489 19.8133 3.12218L19.9107 3.0611C20.0125 2.9971 20.2118 2.87056 20.4023 2.76293L20.539 5.82018C20.3601 5.94526 20.1071 6.09797 19.998 6.16342L19.9194 6.21142C19.726 6.32923 19.5486 6.43686 19.39 6.55612C19.0555 6.81211 18.7341 7.07682 18.4272 7.35171C17.1473 8.49926 16.1088 9.81553 15.3336 11.2802L15.1489 11.619L15.1925 12.003C15.223 12.3972 15.2332 12.8088 15.2216 13.2495V13.2669C15.2143 13.6102 15.3423 13.9345 15.5779 14.1774C15.8179 14.4261 16.1553 14.5687 16.503 14.5687C16.6368 14.5687 16.7677 14.5483 16.8913 14.509L16.7191 14.7431L16.6033 14.9599C16.5495 15.1039 16.5219 15.2537 16.5219 15.4064C16.5219 15.7409 16.6571 16.0667 16.8913 16.3038C16.7691 16.2645 16.6382 16.2442 16.503 16.2442C16.1553 16.2442 15.8179 16.3867 15.5779 16.6354C15.3423 16.8798 15.2143 17.2027 15.2201 17.5459V17.5604C15.2332 18.0041 15.223 18.4142 15.191 18.82L15.1489 19.188L15.3336 19.5356C16.1088 20.9973 17.1473 22.3136 18.4257 23.4597C18.7326 23.7346 19.0555 24.0007 19.39 24.2553C19.5747 24.392 19.7769 24.5141 19.9893 24.6421L20.0009 24.6494Z"/>
<path d="M47.2059 19.9267C47.2059 20.2836 47.1105 20.6533 46.9196 21.0352C46.7286 21.417 46.4754 21.7906 46.1598 22.1557C45.8442 22.5208 45.483 22.8696 45.0763 23.2019C44.6695 23.5339 44.2481 23.8266 43.8121 24.0799C43.3762 24.3331 42.9423 24.5387 42.511 24.6965C42.0793 24.8539 41.685 24.9412 41.328 24.9579C41.0791 24.9743 40.8361 24.9868 40.5996 24.9953C40.3631 25.0035 40.1327 25.0078 39.9086 25.0078C39.0121 25.0078 38.2128 24.9519 37.5114 24.8397C36.8097 24.7275 36.2142 24.5657 35.7244 24.3542C35.2347 24.1426 34.861 23.8808 34.6038 23.5695C34.3463 23.2582 34.2177 22.9034 34.2177 22.5048C34.2177 22.181 34.2861 21.8925 34.4233 21.6393C34.5604 21.386 34.7385 21.1702 34.9586 20.9917C35.1784 20.8132 35.4256 20.6765 35.6995 20.5807C35.9734 20.4852 36.2516 20.4375 36.5337 20.4375H36.6085L36.6334 20.4873C36.4425 20.5454 36.2869 20.6181 36.1665 20.7053C36.0461 20.7926 35.9527 20.8859 35.8861 20.9856C35.8195 21.0854 35.7739 21.189 35.749 21.297C35.7241 21.4049 35.7116 21.5128 35.7116 21.6207C35.7116 21.9445 35.8982 22.2142 36.2719 22.43C36.6455 22.6459 37.1207 22.8161 37.6977 22.9404C38.2748 23.0651 38.9099 23.152 39.603 23.2019C40.2962 23.2517 40.9622 23.2767 41.6016 23.2767C41.8257 23.2767 42.0415 23.2745 42.2492 23.2706C42.4565 23.2664 42.6559 23.2603 42.8469 23.2521C43.2205 23.2354 43.5254 23.1691 43.7623 23.053C43.9988 22.9365 44.1815 22.7748 44.3101 22.5675C44.4387 22.3598 44.5281 22.1087 44.578 21.8142C44.6278 21.5192 44.6528 21.1851 44.6528 20.8118V11.6331C44.6528 11.5583 44.7315 11.4258 44.8893 11.2345C45.0467 11.0436 45.238 10.8277 45.462 10.587C45.1714 10.6949 44.8601 10.7718 44.5281 10.8174C44.1961 10.863 43.8556 10.8858 43.5069 10.8858C43.0502 10.8858 42.5854 10.8548 42.112 10.7925C41.6386 10.7301 41.1738 10.6514 40.7172 10.556C40.2605 10.4605 39.8246 10.3569 39.4096 10.2446C38.9943 10.1324 38.6167 10.0288 38.2765 9.93334C37.936 9.83788 37.6432 9.75916 37.3985 9.69683C37.1535 9.63449 36.9772 9.6035 36.8692 9.6035C36.695 9.6035 36.5248 9.63663 36.3588 9.70324C36.1925 9.76985 36.0475 9.86317 35.9228 9.98356C35.7982 10.104 35.6988 10.2493 35.624 10.4195C35.5492 10.5898 35.5118 10.7743 35.5118 10.9738L35.4494 10.9488C35.4658 10.401 35.5406 9.94438 35.6735 9.57893C35.8064 9.21383 35.9787 8.92317 36.1903 8.70732C36.4019 8.49147 36.6448 8.33795 36.9187 8.24641C37.1926 8.15522 37.4748 8.10927 37.7654 8.10927C37.9895 8.10927 38.3382 8.16128 38.8115 8.26493C39.2849 8.36894 39.8242 8.48506 40.4304 8.61364C41.0363 8.74258 41.6821 8.8587 42.3667 8.96236C43.0517 9.06636 43.7135 9.11801 44.3528 9.11801C44.9338 9.11801 45.4734 9.05782 45.9717 8.93742C46.4697 8.81703 46.885 8.60759 47.217 8.30839L47.2045 15.917V16.0292C47.5782 16.0292 47.9725 16.021 48.3874 16.0043C48.8024 15.9879 49.2092 15.9484 49.6078 15.886C50.0063 15.8237 50.3757 15.7304 50.7162 15.6057C51.0564 15.481 51.3346 15.3111 51.5504 15.0953C51.7 14.9457 51.8161 14.701 51.8991 14.3605C51.9821 14.0203 52.0238 13.6092 52.0238 13.1277C52.0238 12.7209 51.9907 12.2746 51.9241 11.7891C51.8575 11.3036 51.7499 10.7992 51.6003 10.276C51.4507 9.75275 51.258 9.21953 51.0211 8.67598C50.7846 8.13243 50.5 7.59885 50.168 7.07596L52.4612 5.80506C52.785 6.27025 53.0318 6.86153 53.2021 7.57961C53.372 8.2977 53.4575 9.06779 53.4575 9.88953C53.4575 10.7113 53.3681 11.5376 53.1896 12.3676C53.0112 13.1978 52.7351 13.9491 52.3615 14.6215C52.3116 14.7045 52.214 14.8395 52.0687 15.0262C51.9234 15.2128 51.7634 15.4102 51.5893 15.6178C51.4151 15.8255 51.247 16.0164 51.0849 16.1906C50.9228 16.3648 50.8046 16.4812 50.7301 16.5393C50.4313 16.7551 50.0765 16.9005 49.6655 16.9753C49.2544 17.0501 48.8206 17.0957 48.3643 17.1124C48.879 17.2951 49.3395 17.563 49.7467 17.9156C50.1534 18.2686 50.5314 18.6565 50.8797 19.08C51.2281 19.5035 51.5561 19.9374 51.8635 20.3812C52.1706 20.8254 52.4819 21.2279 52.7975 21.589C53.1127 21.9502 53.4429 22.2448 53.7873 22.4731C54.1318 22.7014 54.5115 22.8154 54.9268 22.8154C55.2338 22.8154 55.4871 22.7303 55.6865 22.56C55.8857 22.3898 55.9854 22.1344 55.9854 21.7942H56.1471V21.9189C56.1471 22.2095 56.0641 22.5084 55.8981 22.8154C55.7318 23.1224 55.5141 23.4006 55.2445 23.6496C54.9745 23.8986 54.6717 24.1041 54.3355 24.2662C53.9993 24.4283 53.657 24.5091 53.3082 24.5091C52.8765 24.5091 52.4947 24.4176 52.1627 24.2352C51.8308 24.0525 51.5316 23.8095 51.2662 23.5068C51.0005 23.2037 50.764 22.8571 50.5563 22.4671C50.3486 22.0767 50.1495 21.6763 49.9586 21.2653C49.7677 20.8542 49.5789 20.4478 49.3919 20.0449C49.2053 19.6424 49.0058 19.277 48.7942 18.9489C48.5826 18.6212 48.3479 18.3491 48.0907 18.1333C47.8332 17.9174 47.5386 17.7845 47.2067 17.7347V19.9263L47.2059 19.9267ZM43.4827 14.4848L42.3371 15.6303L41.1916 14.4848L42.3371 13.3517L43.4827 14.4848ZM43.4827 17.1869L42.3371 18.3324L41.1916 17.1869L42.3371 16.0538L43.4827 17.1869ZM43.4827 19.7148L42.3371 20.8603L41.1916 19.7148L42.3371 18.5817L43.4827 19.7148Z"/>
<path d="M83.518 8.37035L82.3725 9.51586L83.518 10.6493L84.6511 9.51586L83.518 8.37035Z"/>
<path d="M85.055 15.0326V21.1221H80.5171C80.2097 21.1221 79.8945 21.0348 79.5707 20.8606C79.2469 20.6861 78.9541 20.4621 78.6927 20.1882C78.4312 19.9142 78.2132 19.609 78.0391 19.2727C77.8645 18.9365 77.7691 18.6109 77.7523 18.2953C77.6195 18.6608 77.4763 19.0134 77.3228 19.354C77.1693 19.6945 77.0072 19.9951 76.8373 20.2565C76.667 20.518 76.4864 20.7278 76.2955 20.8856C76.1046 21.0434 75.9094 21.1221 75.7103 21.1221C75.6202 21.1221 75.5329 21.1153 75.4488 21.1014V21.1221H73.2198C72.896 21.1221 72.5701 21.0309 72.2424 20.8482C71.9143 20.6655 71.6176 20.4332 71.3519 20.1508C71.0862 19.8686 70.8703 19.5573 70.7043 19.2168C70.538 18.8767 70.4554 18.5443 70.4554 18.2205V15.8422C70.4554 15.5929 70.4511 15.3546 70.4429 15.1259C70.4344 14.898 70.4073 14.6964 70.362 14.5222C70.3161 14.3477 70.2498 14.2087 70.1626 14.1051C70.0753 14.0011 69.9528 13.9494 69.7953 13.9494C69.6379 13.9494 69.4673 14.0032 69.2846 14.1111C69.1018 14.2191 68.9337 14.3687 68.7802 14.5596C68.6267 14.7505 68.5002 14.9767 68.4005 15.2381C68.3008 15.4996 68.2512 15.7842 68.2512 16.0912V21.1221H65.8726V15.8422C65.8726 15.5929 65.8683 15.3546 65.8601 15.1259C65.8519 14.898 65.8249 14.6964 65.7793 14.5222C65.7337 14.3477 65.6671 14.2087 65.5802 14.1051C65.4929 14.0011 65.3704 13.9494 65.2126 13.9494C65.0633 13.9494 64.9013 13.9972 64.7271 14.0926C64.5525 14.1881 64.3908 14.3227 64.2412 14.4973C64.092 14.6714 63.9652 14.8791 63.8615 15.1199C63.7575 15.3607 63.6934 15.6221 63.6685 15.9042V21.1221H59.3475C59.0401 21.1221 58.7249 21.0348 58.4011 20.8606C58.0773 20.6861 57.7845 20.4621 57.5231 20.1882C57.2616 19.9142 57.0436 19.609 56.8695 19.2727C56.6949 18.9365 56.5995 18.6109 56.5831 18.2953C56.4502 18.6608 56.307 19.0134 56.1532 19.354C55.9996 19.6945 55.8376 19.9951 55.6677 20.2565C55.4974 20.518 55.3168 20.7278 55.1259 20.8856C54.935 21.0434 54.7398 21.1221 54.5407 21.1221C54.2087 21.1221 53.9159 21.0288 53.6627 20.8418C53.4094 20.6551 53.2 20.4104 53.034 20.1073C52.8676 19.8042 52.7433 19.4576 52.6603 19.0672C52.5773 18.6772 52.5357 18.2829 52.5357 17.8843V17.7475C52.5524 17.4319 52.5855 17.1185 52.6354 16.8072C52.6853 16.4959 52.7601 16.2073 52.8594 15.9416C52.951 15.7012 53.0878 15.4519 53.2705 15.1947C53.4529 14.9372 53.6627 14.686 53.8995 14.441C54.136 14.1963 54.3975 13.964 54.6839 13.7439C54.9702 13.5238 55.2648 13.3307 55.5679 13.1647C55.871 12.9988 56.1781 12.868 56.4894 12.7726C56.8007 12.6771 57.0978 12.6294 57.3799 12.6294C57.4711 12.6294 57.5811 12.6315 57.7101 12.6354C57.8387 12.6397 57.9754 12.6461 58.1208 12.6543C58.2661 12.6625 58.4136 12.675 58.5628 12.6914C58.7124 12.7081 58.8495 12.7288 58.9738 12.7537L58.9614 14.5347C58.8866 14.5179 58.7623 14.4973 58.5877 14.4723C58.4136 14.4474 58.2287 14.4267 58.0339 14.41C57.8387 14.3936 57.6517 14.379 57.4732 14.3665C57.2948 14.3541 57.1598 14.3477 57.0686 14.3477H57.0187C56.5706 14.3893 56.2052 14.5407 55.9231 14.8022C55.6406 15.064 55.4247 15.3813 55.2755 15.755C55.1259 16.1286 55.0326 16.529 54.9952 16.9568C54.9578 17.3842 54.9535 17.7785 54.9827 18.1397C55.0119 18.5009 55.0678 18.7997 55.1508 19.0362C55.2338 19.2727 55.3168 19.391 55.3998 19.391C55.4746 19.391 55.5576 19.3144 55.6491 19.1609C55.7403 19.0074 55.8358 18.804 55.9355 18.5507C56.0349 18.2975 56.1389 18.0132 56.2468 17.6977C56.3544 17.3821 56.4605 17.0647 56.5642 16.7448C56.6679 16.4253 56.7654 16.1162 56.857 15.8173C56.9482 15.5185 57.0312 15.2652 57.106 15.0576H58.9614V19.0426C58.9614 19.1588 58.9927 19.2624 59.0547 19.354C59.117 19.4451 59.1979 19.5075 59.2976 19.5406C59.3806 19.5655 59.4761 19.5801 59.584 19.5841C59.6919 19.5883 59.8041 19.5905 59.9203 19.5905H61.2898V14.6465C61.2898 14.5304 61.261 14.4185 61.2029 14.3103C61.1445 14.2027 61.0658 14.1485 60.966 14.1485H59.8454L60.493 12.6294H60.929C61.1114 12.6294 61.3418 12.6999 61.62 12.841C61.8982 12.9824 62.1742 13.163 62.4482 13.3827C62.7221 13.6029 62.971 13.8394 63.1951 14.0926C63.4195 14.3459 63.5645 14.5845 63.6311 14.8086C63.7223 14.4185 63.8615 14.0759 64.0482 13.7813C64.2352 13.4867 64.4532 13.2374 64.7021 13.034C64.9511 12.8306 65.2208 12.6771 65.5114 12.5731C65.8021 12.4695 66.0966 12.4174 66.3955 12.4174C66.736 12.4174 67.016 12.4905 67.2361 12.6354C67.4562 12.7808 67.6347 12.9678 67.7718 13.1957C67.9086 13.4244 68.0101 13.6816 68.0767 13.968C68.143 14.2543 68.1889 14.5389 68.2138 14.821C68.305 14.431 68.4443 14.0884 68.6309 13.7938C68.8176 13.4989 69.0356 13.2477 69.2846 13.0401C69.5339 12.8328 69.8035 12.6771 70.0942 12.5731C70.3845 12.4695 70.6794 12.4174 70.9783 12.4174C71.2771 12.4174 71.5428 12.478 71.7505 12.598C71.9578 12.7184 72.132 12.8741 72.2734 13.065C72.4144 13.2563 72.5224 13.4743 72.5972 13.719C72.672 13.964 72.7257 14.2152 72.7589 14.4723C72.792 14.7299 72.813 14.981 72.8212 15.2257C72.8294 15.4707 72.8337 15.6845 72.8337 15.8672V19.0426C72.8337 19.1588 72.8629 19.2624 72.9209 19.354C72.979 19.4451 73.0581 19.5075 73.1574 19.5406C73.2404 19.5655 73.3359 19.5801 73.4438 19.5841C73.5518 19.5883 73.6639 19.5905 73.7801 19.5905H73.9749C73.9176 19.4259 73.8688 19.2514 73.8299 19.0672C73.7466 18.6772 73.7053 18.2829 73.7053 17.8843V17.7475C73.722 17.4319 73.7551 17.1185 73.805 16.8072C73.8549 16.4959 73.9293 16.2073 74.0291 15.9416C74.1202 15.7012 74.2574 15.4519 74.4401 15.1947C74.6225 14.9372 74.8323 14.686 75.0688 14.441C75.3056 14.1963 75.5671 13.964 75.8535 13.7439C76.1398 13.5238 76.4344 13.3307 76.7375 13.1647C77.0407 12.9988 77.3477 12.868 77.659 12.7726C77.9703 12.6771 78.267 12.6294 78.5495 12.6294C78.6407 12.6294 78.7507 12.6315 78.8793 12.6354C79.0079 12.6397 79.1451 12.6461 79.2904 12.6543C79.4357 12.6625 79.5832 12.675 79.7324 12.6914C79.882 12.7081 80.0188 12.7288 80.1435 12.7537L80.131 14.5347C80.0562 14.5179 79.9319 14.4973 79.7573 14.4723C79.5832 14.4474 79.3983 14.4267 79.2031 14.41C79.0079 14.3936 78.8213 14.379 78.6428 14.3665C78.4644 14.3541 78.3294 14.3477 78.2382 14.3477H78.1883C77.7399 14.3893 77.3748 14.5407 77.0927 14.8022C76.8102 15.064 76.5944 15.3813 76.4451 15.755C76.2955 16.1286 76.2022 16.529 76.1648 16.9568C76.1274 17.3842 76.1231 17.7785 76.1523 18.1397C76.1812 18.5009 76.2374 18.7997 76.3204 19.0362C76.4034 19.2727 76.4864 19.391 76.5694 19.391C76.6442 19.391 76.7272 19.3144 76.8184 19.1609C76.9099 19.0074 77.0054 18.804 77.1048 18.5507C77.2045 18.2975 77.3082 18.0132 77.4161 17.6977C77.524 17.3821 77.6298 17.0647 77.7338 16.7448C77.8375 16.4253 77.9351 16.1162 78.0266 15.8173C78.1178 15.5185 78.2008 15.2652 78.2756 15.0576H80.131V19.0426C80.131 19.1588 80.162 19.2624 80.2243 19.354C80.2867 19.4451 80.3675 19.5075 80.4672 19.5406C80.5502 19.5655 80.6457 19.5801 80.7536 19.5841C80.8615 19.5883 80.9734 19.5905 81.0899 19.5905H82.6763V14.6465C82.6763 14.5304 82.6471 14.4185 82.5891 14.3103C82.531 14.2027 82.448 14.1485 82.3401 14.1485H81.2195L81.8795 12.6294H82.3027C82.4356 12.6294 82.5955 12.6689 82.7821 12.7476C82.9691 12.8267 83.164 12.9304 83.3677 13.059C83.5707 13.1875 83.7741 13.335 83.9779 13.501C84.1809 13.667 84.3615 13.8394 84.5193 14.0178C84.6771 14.1963 84.806 14.3726 84.9054 14.5471C85.0051 14.7213 85.055 14.8834 85.055 15.0326Z"/>
</mask>
<path d="M15.0223 1.04233L14.9191 0.982694C14.9191 0.982694 14.9045 0.973968 14.8973 0.969604H14.8943C14.8856 0.975422 14.8783 0.979786 14.8696 0.984149L14.7707 1.04233C13.6159 1.7041 12.6414 2.43859 11.8589 3.23708C12.0669 3.41016 12.2647 3.59197 12.4538 3.77086C12.5381 3.85231 12.6181 3.93667 12.7054 4.02248C12.7781 4.0923 12.8436 4.16502 12.9148 4.24356C13.069 4.40646 13.2246 4.5839 13.3919 4.78752C13.8166 4.35119 14.3198 3.93376 14.8973 3.5367C15.4718 3.93231 15.9721 4.34828 16.3968 4.78316C16.8637 4.21738 17.3771 3.69814 17.9327 3.23417C17.1473 2.43568 16.1743 1.70264 15.0223 1.04233ZM5.52481 17.8906C4.83832 17.4746 4.18963 16.8929 3.58313 16.1496C3.3926 15.9169 3.20788 15.6697 3.02608 15.4064C3.20643 15.1446 3.3926 14.8974 3.58168 14.6661C4.18963 13.9214 4.83977 13.3382 5.52481 12.9222L6.33494 12.4306L6.89199 12.0946C6.08914 11.8532 5.25283 11.6889 4.38598 11.603C4.18236 11.5827 3.95401 11.5914 3.71403 11.603C3.67476 11.603 3.63549 11.606 3.59477 11.6074C3.12643 11.9681 2.67847 12.3884 2.24941 12.867C1.63563 13.552 1.05967 14.3592 0.531707 15.2799L0.47062 15.3861C0.47062 15.3861 0.467711 15.3904 0.466257 15.3933C0.463348 15.3977 0.461893 15.4021 0.458984 15.4079C0.463348 15.4151 0.469165 15.4239 0.473529 15.4311L0.531707 15.533C1.05967 16.4536 1.63563 17.2608 2.25086 17.9473C2.67847 18.4244 3.12643 18.8447 3.59331 19.2054C3.63404 19.2054 3.67621 19.2083 3.71694 19.2098C3.95401 19.2185 4.18236 19.2302 4.38598 19.2098C5.15538 19.1313 5.91024 18.9916 6.62728 18.7938C6.716 18.7691 6.80327 18.7444 6.89054 18.7182L6.33494 18.3822L5.52481 17.8906ZM8.97476 23.9556C8.82058 23.9687 8.6635 23.976 8.50352 23.9789C8.45406 23.9804 8.40461 23.9804 8.35516 23.9804C7.77484 23.9804 7.15525 23.9193 6.50365 23.8C6.46584 23.5949 6.43384 23.3942 6.40912 23.1964C5.71826 23.464 5.00994 23.6662 4.29145 23.7986C4.37435 24.3411 4.49507 24.901 4.65069 25.4755L4.68851 25.6152L4.82814 25.653C6.05278 25.9846 7.20761 26.1548 8.28389 26.162L8.21844 24.6945C8.21554 24.6392 8.22717 24.5883 8.25626 24.5418C8.37989 24.3542 8.68241 24.1404 8.97476 23.9556ZM17.7029 27.3809C17.5923 27.2849 17.4876 27.1874 17.3858 27.0929C17.2811 26.9911 17.1764 26.8878 17.0775 26.7874C17.0091 26.7205 16.9437 26.6507 16.8782 26.5824C16.7822 26.4762 16.6906 26.3729 16.599 26.2668L16.5568 26.2188C16.5073 26.1606 16.4608 26.1053 16.4055 26.0399C16.4026 26.037 16.3997 26.0326 16.3968 26.0297C15.9721 26.4646 15.4718 26.8805 14.8958 27.2761C14.3213 26.8805 13.8195 26.4646 13.3948 26.0282C12.9308 26.5925 12.4189 27.1089 11.8589 27.5772C12.6443 28.3757 13.6188 29.1087 14.7707 29.772L14.8769 29.8331C14.8769 29.8331 14.8885 29.8403 14.8943 29.8432L15.0209 29.772C16.1728 29.1102 17.1458 28.3771 17.9312 27.5787C17.8541 27.5147 17.7771 27.4478 17.7014 27.3809H17.7029ZM29.2613 15.2799C28.7334 14.3592 28.1574 13.552 27.5407 12.867C27.1131 12.3884 26.6652 11.9681 26.1983 11.6074C26.1561 11.6074 26.1154 11.6045 26.0747 11.603C25.8332 11.5914 25.6092 11.5827 25.4013 11.603C24.5359 11.6889 23.701 11.8518 22.8981 12.0932L24.2682 12.9222C24.9547 13.3382 25.6034 13.9214 26.2114 14.6632C26.4005 14.8959 26.5866 15.1432 26.767 15.4064C26.5852 15.6697 26.399 15.9169 26.2085 16.1496C25.602 16.8929 24.9533 17.4746 24.2682 17.8906L23.4567 18.3822L22.9025 18.7167C22.952 18.7342 23.0029 18.7487 23.0538 18.7633C23.8043 18.9756 24.594 19.1298 25.4013 19.2098C25.6063 19.2302 25.8303 19.2185 26.0717 19.2098C26.1125 19.2098 26.1547 19.2069 26.1968 19.2054C26.6637 18.8447 27.1117 18.4258 27.5393 17.9473C28.1574 17.2608 28.7334 16.4536 29.2613 15.533L29.3297 15.4122C29.3297 15.4122 29.3297 15.4093 29.3326 15.4079L29.2613 15.2799ZM25.1424 5.33876L25.1045 5.19913L24.9649 5.16131C23.7388 4.8297 22.5825 4.65953 21.5048 4.65226L21.5702 6.11979C21.5731 6.17361 21.5601 6.22742 21.5324 6.27105C21.4088 6.46159 21.1034 6.67539 20.8096 6.85865C20.9666 6.84556 21.1266 6.83829 21.2895 6.83538C21.339 6.83538 21.3884 6.83538 21.4379 6.83538C22.0197 6.83538 22.6393 6.89501 23.2894 7.01573C23.3272 7.21935 23.3578 7.42007 23.3839 7.61642C24.0733 7.35025 24.7817 7.14808 25.5002 7.01573C25.4172 6.47322 25.298 5.91472 25.1424 5.34021V5.33876ZM23.3839 23.1979C23.3592 23.3942 23.3272 23.5964 23.2894 23.8C22.6378 23.9193 22.0197 23.9804 21.4393 23.9804C21.3884 23.9804 21.3375 23.9804 21.2866 23.9789C21.1266 23.976 20.9681 23.9687 20.8139 23.9556C21.1063 24.1404 21.4103 24.3542 21.5324 24.5418C21.5601 24.5883 21.5731 24.6392 21.5702 24.693L21.5048 26.162C22.5811 26.1548 23.7388 25.9846 24.9649 25.653L25.1045 25.6152L25.1424 25.4755C25.298 24.901 25.4172 24.3411 25.5002 23.7986C24.7817 23.6677 24.0733 23.464 23.3839 23.1979ZM8.25626 6.27105C8.22717 6.22742 8.21554 6.17361 8.21844 6.11979L8.28389 4.65226C7.20906 4.65953 6.05278 4.8297 4.82814 5.16131L4.68851 5.19913L4.65069 5.33876C4.49507 5.91181 4.3758 6.47177 4.29145 7.01428C5.00994 7.14663 5.71971 7.35025 6.40912 7.61642C6.43384 7.42007 6.46584 7.2179 6.50365 7.01428C7.15379 6.89501 7.77338 6.83392 8.35371 6.83392C8.40316 6.83392 8.45261 6.83392 8.50206 6.83392C8.6635 6.83683 8.82204 6.84411 8.97621 6.8572C8.68532 6.67394 8.37989 6.46013 8.25626 6.2696V6.27105Z" fill="#6F6F71"/>
<path d="M12.1033 13.7905C10.4757 12.419 8.64023 11.4721 6.61856 10.9602C5.92915 10.7871 5.21938 10.662 4.48779 10.5893C4.42525 10.5835 4.3598 10.5791 4.2929 10.5762C4.23181 10.5733 4.16782 10.5718 4.10237 10.5718C3.95256 10.5718 3.80421 10.5791 3.66603 10.5849C3.5584 10.5893 3.43914 10.5951 3.32278 10.5951C3.26897 10.5951 3.22388 10.5951 3.18752 10.5922C3.12789 10.4919 3.04062 10.3362 2.91263 10.0962L2.85445 9.98716C2.82536 9.92898 2.79628 9.87371 2.76864 9.82862C2.44866 9.25557 2.02833 8.42363 1.77235 7.86221H1.78835C1.95997 7.85203 2.13305 7.84767 2.30322 7.84767C2.93008 7.84767 3.55695 7.9073 4.17364 8.02366C4.90813 8.16329 5.62953 8.38 6.32767 8.67089C8.68532 9.64973 10.7637 11.4503 12.1033 13.7905Z" fill="#6F6F71"/>
<path d="M28.0178 7.86221C27.7589 8.42654 27.3371 9.26139 27.0142 9.83735L26.9779 9.90425C26.9531 9.95225 26.924 10.0046 26.8935 10.0657C26.7772 10.2897 26.6768 10.4686 26.6041 10.5922C26.5677 10.5937 26.5226 10.5951 26.4688 10.5951C26.3525 10.5951 26.2317 10.5893 26.1168 10.5849C25.9918 10.5791 25.839 10.5718 25.6878 10.5718C25.6223 10.5718 25.5612 10.5733 25.5016 10.5762C25.4347 10.5762 25.3722 10.582 25.3096 10.5878C24.5766 10.6606 23.8654 10.7856 23.1759 10.9602C21.1514 11.4721 19.3129 12.419 17.684 13.792C19.0264 11.4489 21.1063 9.64827 23.4654 8.66943C24.1621 8.38 24.8849 8.16183 25.6194 8.02366C26.2346 7.9073 26.8601 7.84767 27.4869 7.84767C27.6585 7.84767 27.8302 7.85203 27.9989 7.86076C28.0062 7.86076 28.012 7.86076 28.0178 7.86076V7.86221Z" fill="#6F6F71"/>
<path d="M28.0192 22.9521C28.0192 22.9521 28.0062 22.9521 27.9989 22.9535C27.8302 22.9623 27.6585 22.9666 27.4869 22.9666C26.8601 22.9666 26.2346 22.907 25.6194 22.7892C24.8849 22.651 24.1635 22.4343 23.4654 22.1434C21.1063 21.1646 19.025 19.3625 17.6825 17.0194C19.1937 18.292 20.9027 19.2054 22.7745 19.7407C22.9069 19.7785 23.0392 19.8148 23.173 19.8468C23.8697 20.0257 24.5838 20.1508 25.3009 20.2221C25.362 20.2294 25.4289 20.2337 25.5001 20.2366C25.554 20.2366 25.6107 20.2395 25.6689 20.2395C25.7969 20.2395 25.9307 20.2337 26.0717 20.2279L26.1416 20.225C26.2477 20.2221 26.3554 20.2177 26.4615 20.2177C26.5183 20.2177 26.5648 20.2177 26.6026 20.2206C26.6652 20.3268 26.7641 20.5013 26.8964 20.7559L26.956 20.8649C26.9793 20.9086 27.0011 20.9479 27.0215 20.9828C27.3487 21.5747 27.7633 22.395 28.0192 22.9521Z" fill="#6F6F71"/>
<path d="M12.1062 17.0209C10.7666 19.3611 8.68532 21.1631 6.32767 22.1434C5.62953 22.4328 4.90813 22.651 4.17364 22.7892C3.55695 22.9055 2.93008 22.9666 2.30322 22.9666C2.13305 22.9666 1.96143 22.9623 1.79271 22.9535C1.78544 22.9521 1.77962 22.9521 1.77235 22.9521C2.03124 22.3877 2.45157 21.5558 2.77155 20.9798C2.80209 20.9289 2.83845 20.8591 2.88063 20.7791L2.9199 20.705C3.03044 20.4984 3.11916 20.3355 3.18752 20.2206C3.22097 20.2192 3.2617 20.2177 3.3126 20.2177C3.41005 20.2177 3.51041 20.2206 3.61076 20.2235L3.71258 20.2279C3.85075 20.2337 3.98892 20.2395 4.11982 20.2395C4.17945 20.2395 4.23763 20.2381 4.2929 20.2352C4.36417 20.2337 4.43107 20.2279 4.49507 20.2206C5.22665 20.1465 5.94078 20.0214 6.62001 19.8483C6.71455 19.825 6.80763 19.8003 6.90072 19.7741C8.81622 19.2447 10.563 18.3197 12.1062 17.0209Z" fill="#6F6F71"/>
<path d="M20.0009 24.6494C20.1318 24.7279 20.3674 24.8719 20.5376 24.9941L20.4023 28.0499C20.2191 27.9466 20.0242 27.8245 19.9151 27.7561L19.8104 27.6907C19.4162 27.4419 19.0395 27.17 18.689 26.8834L18.6439 26.8442L18.6294 26.8325C18.6294 26.8325 18.6163 26.8223 18.6104 26.8165C18.5348 26.7554 18.4621 26.69 18.3879 26.626L18.3777 26.6173C18.2672 26.5227 18.1698 26.4311 18.0839 26.3511C17.9952 26.2638 17.8934 26.1635 17.7989 26.0689C17.7552 26.0253 17.7145 25.9831 17.6752 25.941L17.6214 25.8842C17.5371 25.7941 17.4542 25.6981 17.3713 25.6006L17.3218 25.5453C17.2796 25.4973 17.2375 25.4464 17.188 25.3883L17.1807 25.381L17.0702 25.2399L17.0513 25.2152C16.9684 25.1105 16.8927 25.0145 16.8244 24.9185L16.804 24.8908L16.7938 24.8778C16.7749 24.8545 16.756 24.8269 16.7357 24.7963L16.7153 24.7658L16.7022 24.7483C16.6644 24.6974 16.6266 24.645 16.5888 24.5898C16.5233 24.4909 16.4564 24.3905 16.3895 24.2873L16.3008 24.1447C16.263 24.0851 16.231 24.0313 16.1975 23.9731L16.183 23.9498C16.135 23.8698 16.0943 23.7986 16.0535 23.7258L16.0099 23.6502C15.7874 23.2459 15.3583 22.9928 14.8929 22.9928C14.4856 22.9928 14.1017 23.1877 13.8617 23.5164L13.8311 23.5499L13.7715 23.656C13.4632 24.2189 13.1126 24.7469 12.7214 25.2385C12.2647 25.8159 11.7498 26.3424 11.1826 26.8151C10.8059 27.1307 10.4045 27.4216 9.97978 27.6892L9.87942 27.7532C9.77906 27.8172 9.57835 27.9437 9.38927 28.0499L9.2511 24.9941C9.42709 24.8705 9.67434 24.7192 9.79361 24.6465C9.99723 24.5258 10.211 24.3949 10.3856 24.2669C10.7245 24.008 11.0502 23.7404 11.3615 23.4611C12.6487 22.3092 13.6872 20.9929 14.4566 19.5327L14.6238 19.2171L14.602 18.8375C14.57 18.4433 14.5584 18.0535 14.5642 17.6754L14.5685 17.5619C14.5787 17.2099 14.4507 16.8812 14.2093 16.634C13.9693 16.3867 13.6333 16.2456 13.2872 16.2456C13.1505 16.2456 13.0196 16.266 12.8959 16.3053C13.1301 16.0682 13.2654 15.7438 13.2654 15.4108C13.2654 15.0748 13.133 14.7476 12.8974 14.509C13.021 14.5483 13.1519 14.5687 13.2872 14.5687C13.6333 14.5687 13.9693 14.4261 14.2093 14.1803C14.4507 13.9331 14.5787 13.6044 14.5685 13.2553L14.5656 13.1098V13.1069C14.5584 12.7361 14.5715 12.3594 14.602 11.9841L14.6238 11.5914L14.4493 11.27C13.6828 9.81553 12.6472 8.50072 11.363 7.35316C11.0561 7.07827 10.7332 6.81211 10.3972 6.55612C10.2285 6.42522 10.0278 6.30596 9.81397 6.17797L9.79215 6.16488C9.68452 6.09943 9.43145 5.94671 9.2511 5.81872L9.38927 2.76293C9.56962 2.86329 9.7587 2.98256 9.86633 3.04946L9.97105 3.11782C10.339 3.34762 10.691 3.59924 11.0197 3.86686C11.0735 3.90904 11.1273 3.95267 11.1811 3.99776C11.3644 4.15047 11.552 4.31773 11.7527 4.50827C11.7935 4.54899 11.8371 4.59408 11.8836 4.63917L11.9855 4.74243C12.0509 4.80643 12.1018 4.86024 12.1629 4.92715C12.3083 5.08277 12.4494 5.24276 12.6094 5.43766C12.6472 5.4842 12.685 5.52929 12.7214 5.57583C12.749 5.61219 12.7781 5.64855 12.8072 5.68637C13.1679 6.14888 13.4923 6.64194 13.7701 7.15245L13.8399 7.28044L13.882 7.32262C14.122 7.63387 14.4987 7.81858 14.8929 7.81858C15.3598 7.81858 15.7903 7.56405 16.0143 7.1539C16.3139 6.61139 16.6499 6.10379 17.012 5.64419C17.0309 5.61946 17.0498 5.59619 17.0702 5.57147C17.5312 4.9926 18.049 4.46318 18.6104 3.99776C18.6744 3.94249 18.7384 3.89013 18.8024 3.83922C19.1079 3.59488 19.4482 3.35489 19.8133 3.12218L19.9107 3.0611C20.0125 2.9971 20.2118 2.87056 20.4023 2.76293L20.539 5.82018C20.3601 5.94526 20.1071 6.09797 19.998 6.16342L19.9194 6.21142C19.726 6.32923 19.5486 6.43686 19.39 6.55612C19.0555 6.81211 18.7341 7.07682 18.4272 7.35171C17.1473 8.49926 16.1088 9.81553 15.3336 11.2802L15.1489 11.619L15.1925 12.003C15.223 12.3972 15.2332 12.8088 15.2216 13.2495V13.2669C15.2143 13.6102 15.3423 13.9345 15.5779 14.1774C15.8179 14.4261 16.1553 14.5687 16.503 14.5687C16.6368 14.5687 16.7677 14.5483 16.8913 14.509L16.7191 14.7431L16.6033 14.9599C16.5495 15.1039 16.5219 15.2537 16.5219 15.4064C16.5219 15.7409 16.6571 16.0667 16.8913 16.3038C16.7691 16.2645 16.6382 16.2442 16.503 16.2442C16.1553 16.2442 15.8179 16.3867 15.5779 16.6354C15.3423 16.8798 15.2143 17.2027 15.2201 17.5459V17.5604C15.2332 18.0041 15.223 18.4142 15.191 18.82L15.1489 19.188L15.3336 19.5356C16.1088 20.9973 17.1473 22.3136 18.4257 23.4597C18.7326 23.7346 19.0555 24.0007 19.39 24.2553C19.5747 24.392 19.7769 24.5141 19.9893 24.6421L20.0009 24.6494Z" fill="#6F6F71"/>
<path d="M47.2059 19.9267C47.2059 20.2836 47.1105 20.6533 46.9196 21.0352C46.7286 21.417 46.4754 21.7906 46.1598 22.1557C45.8442 22.5208 45.483 22.8696 45.0763 23.2019C44.6695 23.5339 44.2481 23.8266 43.8121 24.0799C43.3762 24.3331 42.9423 24.5387 42.511 24.6965C42.0793 24.8539 41.685 24.9412 41.328 24.9579C41.0791 24.9743 40.8361 24.9868 40.5996 24.9953C40.3631 25.0035 40.1327 25.0078 39.9086 25.0078C39.0121 25.0078 38.2128 24.9519 37.5114 24.8397C36.8097 24.7275 36.2142 24.5657 35.7244 24.3542C35.2347 24.1426 34.861 23.8808 34.6038 23.5695C34.3463 23.2582 34.2177 22.9034 34.2177 22.5048C34.2177 22.181 34.2861 21.8925 34.4233 21.6393C34.5604 21.386 34.7385 21.1702 34.9586 20.9917C35.1784 20.8132 35.4256 20.6765 35.6995 20.5807C35.9734 20.4852 36.2516 20.4375 36.5337 20.4375H36.6085L36.6334 20.4873C36.4425 20.5454 36.2869 20.6181 36.1665 20.7053C36.0461 20.7926 35.9527 20.8859 35.8861 20.9856C35.8195 21.0854 35.7739 21.189 35.749 21.297C35.7241 21.4049 35.7116 21.5128 35.7116 21.6207C35.7116 21.9445 35.8982 22.2142 36.2719 22.43C36.6455 22.6459 37.1207 22.8161 37.6977 22.9404C38.2748 23.0651 38.9099 23.152 39.603 23.2019C40.2962 23.2517 40.9622 23.2767 41.6016 23.2767C41.8257 23.2767 42.0415 23.2745 42.2492 23.2706C42.4565 23.2664 42.6559 23.2603 42.8469 23.2521C43.2205 23.2354 43.5254 23.1691 43.7623 23.053C43.9988 22.9365 44.1815 22.7748 44.3101 22.5675C44.4387 22.3598 44.5281 22.1087 44.578 21.8142C44.6278 21.5192 44.6528 21.1851 44.6528 20.8118V11.6331C44.6528 11.5583 44.7315 11.4258 44.8893 11.2345C45.0467 11.0436 45.238 10.8277 45.462 10.587C45.1714 10.6949 44.8601 10.7718 44.5281 10.8174C44.1961 10.863 43.8556 10.8858 43.5069 10.8858C43.0502 10.8858 42.5854 10.8548 42.112 10.7925C41.6386 10.7301 41.1738 10.6514 40.7172 10.556C40.2605 10.4605 39.8246 10.3569 39.4096 10.2446C38.9943 10.1324 38.6167 10.0288 38.2765 9.93334C37.936 9.83788 37.6432 9.75916 37.3985 9.69683C37.1535 9.63449 36.9772 9.6035 36.8692 9.6035C36.695 9.6035 36.5248 9.63663 36.3588 9.70324C36.1925 9.76985 36.0475 9.86317 35.9228 9.98356C35.7982 10.104 35.6988 10.2493 35.624 10.4195C35.5492 10.5898 35.5118 10.7743 35.5118 10.9738L35.4494 10.9488C35.4658 10.401 35.5406 9.94438 35.6735 9.57893C35.8064 9.21383 35.9787 8.92317 36.1903 8.70732C36.4019 8.49147 36.6448 8.33795 36.9187 8.24641C37.1926 8.15522 37.4748 8.10927 37.7654 8.10927C37.9895 8.10927 38.3382 8.16128 38.8115 8.26493C39.2849 8.36894 39.8242 8.48506 40.4304 8.61364C41.0363 8.74258 41.6821 8.8587 42.3667 8.96236C43.0517 9.06636 43.7135 9.11801 44.3528 9.11801C44.9338 9.11801 45.4734 9.05782 45.9717 8.93742C46.4697 8.81703 46.885 8.60759 47.217 8.30839L47.2045 15.917V16.0292C47.5782 16.0292 47.9725 16.021 48.3874 16.0043C48.8024 15.9879 49.2092 15.9484 49.6078 15.886C50.0063 15.8237 50.3757 15.7304 50.7162 15.6057C51.0564 15.481 51.3346 15.3111 51.5504 15.0953C51.7 14.9457 51.8161 14.701 51.8991 14.3605C51.9821 14.0203 52.0238 13.6092 52.0238 13.1277C52.0238 12.7209 51.9907 12.2746 51.9241 11.7891C51.8575 11.3036 51.7499 10.7992 51.6003 10.276C51.4507 9.75275 51.258 9.21953 51.0211 8.67598C50.7846 8.13243 50.5 7.59885 50.168 7.07596L52.4612 5.80506C52.785 6.27025 53.0318 6.86153 53.2021 7.57961C53.372 8.2977 53.4575 9.06779 53.4575 9.88953C53.4575 10.7113 53.3681 11.5376 53.1896 12.3676C53.0112 13.1978 52.7351 13.9491 52.3615 14.6215C52.3116 14.7045 52.214 14.8395 52.0687 15.0262C51.9234 15.2128 51.7634 15.4102 51.5893 15.6178C51.4151 15.8255 51.247 16.0164 51.0849 16.1906C50.9228 16.3648 50.8046 16.4812 50.7301 16.5393C50.4313 16.7551 50.0765 16.9005 49.6655 16.9753C49.2544 17.0501 48.8206 17.0957 48.3643 17.1124C48.879 17.2951 49.3395 17.563 49.7467 17.9156C50.1534 18.2686 50.5314 18.6565 50.8797 19.08C51.2281 19.5035 51.5561 19.9374 51.8635 20.3812C52.1706 20.8254 52.4819 21.2279 52.7975 21.589C53.1127 21.9502 53.4429 22.2448 53.7873 22.4731C54.1318 22.7014 54.5115 22.8154 54.9268 22.8154C55.2338 22.8154 55.4871 22.7303 55.6865 22.56C55.8857 22.3898 55.9854 22.1344 55.9854 21.7942H56.1471V21.9189C56.1471 22.2095 56.0641 22.5084 55.8981 22.8154C55.7318 23.1224 55.5141 23.4006 55.2445 23.6496C54.9745 23.8986 54.6717 24.1041 54.3355 24.2662C53.9993 24.4283 53.657 24.5091 53.3082 24.5091C52.8765 24.5091 52.4947 24.4176 52.1627 24.2352C51.8308 24.0525 51.5316 23.8095 51.2662 23.5068C51.0005 23.2037 50.764 22.8571 50.5563 22.4671C50.3486 22.0767 50.1495 21.6763 49.9586 21.2653C49.7677 20.8542 49.5789 20.4478 49.3919 20.0449C49.2053 19.6424 49.0058 19.277 48.7942 18.9489C48.5826 18.6212 48.3479 18.3491 48.0907 18.1333C47.8332 17.9174 47.5386 17.7845 47.2067 17.7347V19.9263L47.2059 19.9267ZM43.4827 14.4848L42.3371 15.6303L41.1916 14.4848L42.3371 13.3517L43.4827 14.4848ZM43.4827 17.1869L42.3371 18.3324L41.1916 17.1869L42.3371 16.0538L43.4827 17.1869ZM43.4827 19.7148L42.3371 20.8603L41.1916 19.7148L42.3371 18.5817L43.4827 19.7148Z" fill="#6F6F71"/>
<path d="M83.518 8.37035L82.3725 9.51586L83.518 10.6493L84.6511 9.51586L83.518 8.37035Z" fill="#6F6F71"/>
<path d="M85.055 15.0326V21.1221H80.5171C80.2097 21.1221 79.8945 21.0348 79.5707 20.8606C79.2469 20.6861 78.9541 20.4621 78.6927 20.1882C78.4312 19.9142 78.2132 19.609 78.0391 19.2727C77.8645 18.9365 77.7691 18.6109 77.7523 18.2953C77.6195 18.6608 77.4763 19.0134 77.3228 19.354C77.1693 19.6945 77.0072 19.9951 76.8373 20.2565C76.667 20.518 76.4864 20.7278 76.2955 20.8856C76.1046 21.0434 75.9094 21.1221 75.7103 21.1221C75.6202 21.1221 75.5329 21.1153 75.4488 21.1014V21.1221H73.2198C72.896 21.1221 72.5701 21.0309 72.2424 20.8482C71.9143 20.6655 71.6176 20.4332 71.3519 20.1508C71.0862 19.8686 70.8703 19.5573 70.7043 19.2168C70.538 18.8767 70.4554 18.5443 70.4554 18.2205V15.8422C70.4554 15.5929 70.4511 15.3546 70.4429 15.1259C70.4344 14.898 70.4073 14.6964 70.362 14.5222C70.3161 14.3477 70.2498 14.2087 70.1626 14.1051C70.0753 14.0011 69.9528 13.9494 69.7953 13.9494C69.6379 13.9494 69.4673 14.0032 69.2846 14.1111C69.1018 14.2191 68.9337 14.3687 68.7802 14.5596C68.6267 14.7505 68.5002 14.9767 68.4005 15.2381C68.3008 15.4996 68.2512 15.7842 68.2512 16.0912V21.1221H65.8726V15.8422C65.8726 15.5929 65.8683 15.3546 65.8601 15.1259C65.8519 14.898 65.8249 14.6964 65.7793 14.5222C65.7337 14.3477 65.6671 14.2087 65.5802 14.1051C65.4929 14.0011 65.3704 13.9494 65.2126 13.9494C65.0633 13.9494 64.9013 13.9972 64.7271 14.0926C64.5525 14.1881 64.3908 14.3227 64.2412 14.4973C64.092 14.6714 63.9652 14.8791 63.8615 15.1199C63.7575 15.3607 63.6934 15.6221 63.6685 15.9042V21.1221H59.3475C59.0401 21.1221 58.7249 21.0348 58.4011 20.8606C58.0773 20.6861 57.7845 20.4621 57.5231 20.1882C57.2616 19.9142 57.0436 19.609 56.8695 19.2727C56.6949 18.9365 56.5995 18.6109 56.5831 18.2953C56.4502 18.6608 56.307 19.0134 56.1532 19.354C55.9996 19.6945 55.8376 19.9951 55.6677 20.2565C55.4974 20.518 55.3168 20.7278 55.1259 20.8856C54.935 21.0434 54.7398 21.1221 54.5407 21.1221C54.2087 21.1221 53.9159 21.0288 53.6627 20.8418C53.4094 20.6551 53.2 20.4104 53.034 20.1073C52.8676 19.8042 52.7433 19.4576 52.6603 19.0672C52.5773 18.6772 52.5357 18.2829 52.5357 17.8843V17.7475C52.5524 17.4319 52.5855 17.1185 52.6354 16.8072C52.6853 16.4959 52.7601 16.2073 52.8594 15.9416C52.951 15.7012 53.0878 15.4519 53.2705 15.1947C53.4529 14.9372 53.6627 14.686 53.8995 14.441C54.136 14.1963 54.3975 13.964 54.6839 13.7439C54.9702 13.5238 55.2648 13.3307 55.5679 13.1647C55.871 12.9988 56.1781 12.868 56.4894 12.7726C56.8007 12.6771 57.0978 12.6294 57.3799 12.6294C57.4711 12.6294 57.5811 12.6315 57.7101 12.6354C57.8387 12.6397 57.9754 12.6461 58.1208 12.6543C58.2661 12.6625 58.4136 12.675 58.5628 12.6914C58.7124 12.7081 58.8495 12.7288 58.9738 12.7537L58.9614 14.5347C58.8866 14.5179 58.7623 14.4973 58.5877 14.4723C58.4136 14.4474 58.2287 14.4267 58.0339 14.41C57.8387 14.3936 57.6517 14.379 57.4732 14.3665C57.2948 14.3541 57.1598 14.3477 57.0686 14.3477H57.0187C56.5706 14.3893 56.2052 14.5407 55.9231 14.8022C55.6406 15.064 55.4247 15.3813 55.2755 15.755C55.1259 16.1286 55.0326 16.529 54.9952 16.9568C54.9578 17.3842 54.9535 17.7785 54.9827 18.1397C55.0119 18.5009 55.0678 18.7997 55.1508 19.0362C55.2338 19.2727 55.3168 19.391 55.3998 19.391C55.4746 19.391 55.5576 19.3144 55.6491 19.1609C55.7403 19.0074 55.8358 18.804 55.9355 18.5507C56.0349 18.2975 56.1389 18.0132 56.2468 17.6977C56.3544 17.3821 56.4605 17.0647 56.5642 16.7448C56.6679 16.4253 56.7654 16.1162 56.857 15.8173C56.9482 15.5185 57.0312 15.2652 57.106 15.0576H58.9614V19.0426C58.9614 19.1588 58.9927 19.2624 59.0547 19.354C59.117 19.4451 59.1979 19.5075 59.2976 19.5406C59.3806 19.5655 59.4761 19.5801 59.584 19.5841C59.6919 19.5883 59.8041 19.5905 59.9203 19.5905H61.2898V14.6465C61.2898 14.5304 61.261 14.4185 61.2029 14.3103C61.1445 14.2027 61.0658 14.1485 60.966 14.1485H59.8454L60.493 12.6294H60.929C61.1114 12.6294 61.3418 12.6999 61.62 12.841C61.8982 12.9824 62.1742 13.163 62.4482 13.3827C62.7221 13.6029 62.971 13.8394 63.1951 14.0926C63.4195 14.3459 63.5645 14.5845 63.6311 14.8086C63.7223 14.4185 63.8615 14.0759 64.0482 13.7813C64.2352 13.4867 64.4532 13.2374 64.7021 13.034C64.9511 12.8306 65.2208 12.6771 65.5114 12.5731C65.8021 12.4695 66.0966 12.4174 66.3955 12.4174C66.736 12.4174 67.016 12.4905 67.2361 12.6354C67.4562 12.7808 67.6347 12.9678 67.7718 13.1957C67.9086 13.4244 68.0101 13.6816 68.0767 13.968C68.143 14.2543 68.1889 14.5389 68.2138 14.821C68.305 14.431 68.4443 14.0884 68.6309 13.7938C68.8176 13.4989 69.0356 13.2477 69.2846 13.0401C69.5339 12.8328 69.8035 12.6771 70.0942 12.5731C70.3845 12.4695 70.6794 12.4174 70.9783 12.4174C71.2771 12.4174 71.5428 12.478 71.7505 12.598C71.9578 12.7184 72.132 12.8741 72.2734 13.065C72.4144 13.2563 72.5224 13.4743 72.5972 13.719C72.672 13.964 72.7257 14.2152 72.7589 14.4723C72.792 14.7299 72.813 14.981 72.8212 15.2257C72.8294 15.4707 72.8337 15.6845 72.8337 15.8672V19.0426C72.8337 19.1588 72.8629 19.2624 72.9209 19.354C72.979 19.4451 73.0581 19.5075 73.1574 19.5406C73.2404 19.5655 73.3359 19.5801 73.4438 19.5841C73.5518 19.5883 73.6639 19.5905 73.7801 19.5905H73.9749C73.9176 19.4259 73.8688 19.2514 73.8299 19.0672C73.7466 18.6772 73.7053 18.2829 73.7053 17.8843V17.7475C73.722 17.4319 73.7551 17.1185 73.805 16.8072C73.8549 16.4959 73.9293 16.2073 74.0291 15.9416C74.1202 15.7012 74.2574 15.4519 74.4401 15.1947C74.6225 14.9372 74.8323 14.686 75.0688 14.441C75.3056 14.1963 75.5671 13.964 75.8535 13.7439C76.1398 13.5238 76.4344 13.3307 76.7375 13.1647C77.0407 12.9988 77.3477 12.868 77.659 12.7726C77.9703 12.6771 78.267 12.6294 78.5495 12.6294C78.6407 12.6294 78.7507 12.6315 78.8793 12.6354C79.0079 12.6397 79.1451 12.6461 79.2904 12.6543C79.4357 12.6625 79.5832 12.675 79.7324 12.6914C79.882 12.7081 80.0188 12.7288 80.1435 12.7537L80.131 14.5347C80.0562 14.5179 79.9319 14.4973 79.7573 14.4723C79.5832 14.4474 79.3983 14.4267 79.2031 14.41C79.0079 14.3936 78.8213 14.379 78.6428 14.3665C78.4644 14.3541 78.3294 14.3477 78.2382 14.3477H78.1883C77.7399 14.3893 77.3748 14.5407 77.0927 14.8022C76.8102 15.064 76.5944 15.3813 76.4451 15.755C76.2955 16.1286 76.2022 16.529 76.1648 16.9568C76.1274 17.3842 76.1231 17.7785 76.1523 18.1397C76.1812 18.5009 76.2374 18.7997 76.3204 19.0362C76.4034 19.2727 76.4864 19.391 76.5694 19.391C76.6442 19.391 76.7272 19.3144 76.8184 19.1609C76.9099 19.0074 77.0054 18.804 77.1048 18.5507C77.2045 18.2975 77.3082 18.0132 77.4161 17.6977C77.524 17.3821 77.6298 17.0647 77.7338 16.7448C77.8375 16.4253 77.9351 16.1162 78.0266 15.8173C78.1178 15.5185 78.2008 15.2652 78.2756 15.0576H80.131V19.0426C80.131 19.1588 80.162 19.2624 80.2243 19.354C80.2867 19.4451 80.3675 19.5075 80.4672 19.5406C80.5502 19.5655 80.6457 19.5801 80.7536 19.5841C80.8615 19.5883 80.9734 19.5905 81.0899 19.5905H82.6763V14.6465C82.6763 14.5304 82.6471 14.4185 82.5891 14.3103C82.531 14.2027 82.448 14.1485 82.3401 14.1485H81.2195L81.8795 12.6294H82.3027C82.4356 12.6294 82.5955 12.6689 82.7821 12.7476C82.9691 12.8267 83.164 12.9304 83.3677 13.059C83.5707 13.1875 83.7741 13.335 83.9779 13.501C84.1809 13.667 84.3615 13.8394 84.5193 14.0178C84.6771 14.1963 84.806 14.3726 84.9054 14.5471C85.0051 14.7213 85.055 14.8834 85.055 15.0326Z" fill="#6F6F71"/>
<path d="M15.0223 1.04233L14.9191 0.982694C14.9191 0.982694 14.9045 0.973968 14.8973 0.969604H14.8943C14.8856 0.975422 14.8783 0.979786 14.8696 0.984149L14.7707 1.04233C13.6159 1.7041 12.6414 2.43859 11.8589 3.23708C12.0669 3.41016 12.2647 3.59197 12.4538 3.77086C12.5381 3.85231 12.6181 3.93667 12.7054 4.02248C12.7781 4.0923 12.8436 4.16502 12.9148 4.24356C13.069 4.40646 13.2246 4.5839 13.3919 4.78752C13.8166 4.35119 14.3198 3.93376 14.8973 3.5367C15.4718 3.93231 15.9721 4.34828 16.3968 4.78316C16.8637 4.21738 17.3771 3.69814 17.9327 3.23417C17.1473 2.43568 16.1743 1.70264 15.0223 1.04233ZM5.52481 17.8906C4.83832 17.4746 4.18963 16.8929 3.58313 16.1496C3.3926 15.9169 3.20788 15.6697 3.02608 15.4064C3.20643 15.1446 3.3926 14.8974 3.58168 14.6661C4.18963 13.9214 4.83977 13.3382 5.52481 12.9222L6.33494 12.4306L6.89199 12.0946C6.08914 11.8532 5.25283 11.6889 4.38598 11.603C4.18236 11.5827 3.95401 11.5914 3.71403 11.603C3.67476 11.603 3.63549 11.606 3.59477 11.6074C3.12643 11.9681 2.67847 12.3884 2.24941 12.867C1.63563 13.552 1.05967 14.3592 0.531707 15.2799L0.47062 15.3861C0.47062 15.3861 0.467711 15.3904 0.466257 15.3933C0.463348 15.3977 0.461893 15.4021 0.458984 15.4079C0.463348 15.4151 0.469165 15.4239 0.473529 15.4311L0.531707 15.533C1.05967 16.4536 1.63563 17.2608 2.25086 17.9473C2.67847 18.4244 3.12643 18.8447 3.59331 19.2054C3.63404 19.2054 3.67621 19.2083 3.71694 19.2098C3.95401 19.2185 4.18236 19.2302 4.38598 19.2098C5.15538 19.1313 5.91024 18.9916 6.62728 18.7938C6.716 18.7691 6.80327 18.7444 6.89054 18.7182L6.33494 18.3822L5.52481 17.8906ZM8.97476 23.9556C8.82058 23.9687 8.6635 23.976 8.50352 23.9789C8.45406 23.9804 8.40461 23.9804 8.35516 23.9804C7.77484 23.9804 7.15525 23.9193 6.50365 23.8C6.46584 23.5949 6.43384 23.3942 6.40912 23.1964C5.71826 23.464 5.00994 23.6662 4.29145 23.7986C4.37435 24.3411 4.49507 24.901 4.65069 25.4755L4.68851 25.6152L4.82814 25.653C6.05278 25.9846 7.20761 26.1548 8.28389 26.162L8.21844 24.6945C8.21554 24.6392 8.22717 24.5883 8.25626 24.5418C8.37989 24.3542 8.68241 24.1404 8.97476 23.9556ZM17.7029 27.3809C17.5923 27.2849 17.4876 27.1874 17.3858 27.0929C17.2811 26.9911 17.1764 26.8878 17.0775 26.7874C17.0091 26.7205 16.9437 26.6507 16.8782 26.5824C16.7822 26.4762 16.6906 26.3729 16.599 26.2668L16.5568 26.2188C16.5073 26.1606 16.4608 26.1053 16.4055 26.0399C16.4026 26.037 16.3997 26.0326 16.3968 26.0297C15.9721 26.4646 15.4718 26.8805 14.8958 27.2761C14.3213 26.8805 13.8195 26.4646 13.3948 26.0282C12.9308 26.5925 12.4189 27.1089 11.8589 27.5772C12.6443 28.3757 13.6188 29.1087 14.7707 29.772L14.8769 29.8331C14.8769 29.8331 14.8885 29.8403 14.8943 29.8432L15.0209 29.772C16.1728 29.1102 17.1458 28.3771 17.9312 27.5787C17.8541 27.5147 17.7771 27.4478 17.7014 27.3809H17.7029ZM29.2613 15.2799C28.7334 14.3592 28.1574 13.552 27.5407 12.867C27.1131 12.3884 26.6652 11.9681 26.1983 11.6074C26.1561 11.6074 26.1154 11.6045 26.0747 11.603C25.8332 11.5914 25.6092 11.5827 25.4013 11.603C24.5359 11.6889 23.701 11.8518 22.8981 12.0932L24.2682 12.9222C24.9547 13.3382 25.6034 13.9214 26.2114 14.6632C26.4005 14.8959 26.5866 15.1432 26.767 15.4064C26.5852 15.6697 26.399 15.9169 26.2085 16.1496C25.602 16.8929 24.9533 17.4746 24.2682 17.8906L23.4567 18.3822L22.9025 18.7167C22.952 18.7342 23.0029 18.7487 23.0538 18.7633C23.8043 18.9756 24.594 19.1298 25.4013 19.2098C25.6063 19.2302 25.8303 19.2185 26.0717 19.2098C26.1125 19.2098 26.1547 19.2069 26.1968 19.2054C26.6637 18.8447 27.1117 18.4258 27.5393 17.9473C28.1574 17.2608 28.7334 16.4536 29.2613 15.533L29.3297 15.4122C29.3297 15.4122 29.3297 15.4093 29.3326 15.4079L29.2613 15.2799ZM25.1424 5.33876L25.1045 5.19913L24.9649 5.16131C23.7388 4.8297 22.5825 4.65953 21.5048 4.65226L21.5702 6.11979C21.5731 6.17361 21.5601 6.22742 21.5324 6.27105C21.4088 6.46159 21.1034 6.67539 20.8096 6.85865C20.9666 6.84556 21.1266 6.83829 21.2895 6.83538C21.339 6.83538 21.3884 6.83538 21.4379 6.83538C22.0197 6.83538 22.6393 6.89501 23.2894 7.01573C23.3272 7.21935 23.3578 7.42007 23.3839 7.61642C24.0733 7.35025 24.7817 7.14808 25.5002 7.01573C25.4172 6.47322 25.298 5.91472 25.1424 5.34021V5.33876ZM23.3839 23.1979C23.3592 23.3942 23.3272 23.5964 23.2894 23.8C22.6378 23.9193 22.0197 23.9804 21.4393 23.9804C21.3884 23.9804 21.3375 23.9804 21.2866 23.9789C21.1266 23.976 20.9681 23.9687 20.8139 23.9556C21.1063 24.1404 21.4103 24.3542 21.5324 24.5418C21.5601 24.5883 21.5731 24.6392 21.5702 24.693L21.5048 26.162C22.5811 26.1548 23.7388 25.9846 24.9649 25.653L25.1045 25.6152L25.1424 25.4755C25.298 24.901 25.4172 24.3411 25.5002 23.7986C24.7817 23.6677 24.0733 23.464 23.3839 23.1979ZM8.25626 6.27105C8.22717 6.22742 8.21554 6.17361 8.21844 6.11979L8.28389 4.65226C7.20906 4.65953 6.05278 4.8297 4.82814 5.16131L4.68851 5.19913L4.65069 5.33876C4.49507 5.91181 4.3758 6.47177 4.29145 7.01428C5.00994 7.14663 5.71971 7.35025 6.40912 7.61642C6.43384 7.42007 6.46584 7.2179 6.50365 7.01428C7.15379 6.89501 7.77338 6.83392 8.35371 6.83392C8.40316 6.83392 8.45261 6.83392 8.50206 6.83392C8.6635 6.83683 8.82204 6.84411 8.97621 6.8572C8.68532 6.67394 8.37989 6.46013 8.25626 6.2696V6.27105Z" stroke="#6F6F71" stroke-width="0.4" mask="url(#path-1-outside-1_46_49)"/>
<path d="M12.1033 13.7905C10.4757 12.419 8.64023 11.4721 6.61856 10.9602C5.92915 10.7871 5.21938 10.662 4.48779 10.5893C4.42525 10.5835 4.3598 10.5791 4.2929 10.5762C4.23181 10.5733 4.16782 10.5718 4.10237 10.5718C3.95256 10.5718 3.80421 10.5791 3.66603 10.5849C3.5584 10.5893 3.43914 10.5951 3.32278 10.5951C3.26897 10.5951 3.22388 10.5951 3.18752 10.5922C3.12789 10.4919 3.04062 10.3362 2.91263 10.0962L2.85445 9.98716C2.82536 9.92898 2.79628 9.87371 2.76864 9.82862C2.44866 9.25557 2.02833 8.42363 1.77235 7.86221H1.78835C1.95997 7.85203 2.13305 7.84767 2.30322 7.84767C2.93008 7.84767 3.55695 7.9073 4.17364 8.02366C4.90813 8.16329 5.62953 8.38 6.32767 8.67089C8.68532 9.64973 10.7637 11.4503 12.1033 13.7905Z" stroke="#6F6F71" stroke-width="0.4" mask="url(#path-1-outside-1_46_49)"/>
<path d="M28.0178 7.86221C27.7589 8.42654 27.3371 9.26139 27.0142 9.83735L26.9779 9.90425C26.9531 9.95225 26.924 10.0046 26.8935 10.0657C26.7772 10.2897 26.6768 10.4686 26.6041 10.5922C26.5677 10.5937 26.5226 10.5951 26.4688 10.5951C26.3525 10.5951 26.2317 10.5893 26.1168 10.5849C25.9918 10.5791 25.839 10.5718 25.6878 10.5718C25.6223 10.5718 25.5612 10.5733 25.5016 10.5762C25.4347 10.5762 25.3722 10.582 25.3096 10.5878C24.5766 10.6606 23.8654 10.7856 23.1759 10.9602C21.1514 11.4721 19.3129 12.419 17.684 13.792C19.0264 11.4489 21.1063 9.64827 23.4654 8.66943C24.1621 8.38 24.8849 8.16183 25.6194 8.02366C26.2346 7.9073 26.8601 7.84767 27.4869 7.84767C27.6585 7.84767 27.8302 7.85203 27.9989 7.86076C28.0062 7.86076 28.012 7.86076 28.0178 7.86076V7.86221Z" stroke="#6F6F71" stroke-width="0.4" mask="url(#path-1-outside-1_46_49)"/>
<path d="M28.0192 22.9521C28.0192 22.9521 28.0062 22.9521 27.9989 22.9535C27.8302 22.9623 27.6585 22.9666 27.4869 22.9666C26.8601 22.9666 26.2346 22.907 25.6194 22.7892C24.8849 22.651 24.1635 22.4343 23.4654 22.1434C21.1063 21.1646 19.025 19.3625 17.6825 17.0194C19.1937 18.292 20.9027 19.2054 22.7745 19.7407C22.9069 19.7785 23.0392 19.8148 23.173 19.8468C23.8697 20.0257 24.5838 20.1508 25.3009 20.2221C25.362 20.2294 25.4289 20.2337 25.5001 20.2366C25.554 20.2366 25.6107 20.2395 25.6689 20.2395C25.7969 20.2395 25.9307 20.2337 26.0717 20.2279L26.1416 20.225C26.2477 20.2221 26.3554 20.2177 26.4615 20.2177C26.5183 20.2177 26.5648 20.2177 26.6026 20.2206C26.6652 20.3268 26.7641 20.5013 26.8964 20.7559L26.956 20.8649C26.9793 20.9086 27.0011 20.9479 27.0215 20.9828C27.3487 21.5747 27.7633 22.395 28.0192 22.9521Z" stroke="#6F6F71" stroke-width="0.4" mask="url(#path-1-outside-1_46_49)"/>
<path d="M12.1062 17.0209C10.7666 19.3611 8.68532 21.1631 6.32767 22.1434C5.62953 22.4328 4.90813 22.651 4.17364 22.7892C3.55695 22.9055 2.93008 22.9666 2.30322 22.9666C2.13305 22.9666 1.96143 22.9623 1.79271 22.9535C1.78544 22.9521 1.77962 22.9521 1.77235 22.9521C2.03124 22.3877 2.45157 21.5558 2.77155 20.9798C2.80209 20.9289 2.83845 20.8591 2.88063 20.7791L2.9199 20.705C3.03044 20.4984 3.11916 20.3355 3.18752 20.2206C3.22097 20.2192 3.2617 20.2177 3.3126 20.2177C3.41005 20.2177 3.51041 20.2206 3.61076 20.2235L3.71258 20.2279C3.85075 20.2337 3.98892 20.2395 4.11982 20.2395C4.17945 20.2395 4.23763 20.2381 4.2929 20.2352C4.36417 20.2337 4.43107 20.2279 4.49507 20.2206C5.22665 20.1465 5.94078 20.0214 6.62001 19.8483C6.71455 19.825 6.80763 19.8003 6.90072 19.7741C8.81622 19.2447 10.563 18.3197 12.1062 17.0209Z" stroke="#6F6F71" stroke-width="0.4" mask="url(#path-1-outside-1_46_49)"/>
<path d="M20.0009 24.6494C20.1318 24.7279 20.3674 24.8719 20.5376 24.9941L20.4023 28.0499C20.2191 27.9466 20.0242 27.8245 19.9151 27.7561L19.8104 27.6907C19.4162 27.4419 19.0395 27.17 18.689 26.8834L18.6439 26.8442L18.6294 26.8325C18.6294 26.8325 18.6163 26.8223 18.6104 26.8165C18.5348 26.7554 18.4621 26.69 18.3879 26.626L18.3777 26.6173C18.2672 26.5227 18.1698 26.4311 18.0839 26.3511C17.9952 26.2638 17.8934 26.1635 17.7989 26.0689C17.7552 26.0253 17.7145 25.9831 17.6752 25.941L17.6214 25.8842C17.5371 25.7941 17.4542 25.6981 17.3713 25.6006L17.3218 25.5453C17.2796 25.4973 17.2375 25.4464 17.188 25.3883L17.1807 25.381L17.0702 25.2399L17.0513 25.2152C16.9684 25.1105 16.8927 25.0145 16.8244 24.9185L16.804 24.8908L16.7938 24.8778C16.7749 24.8545 16.756 24.8269 16.7357 24.7963L16.7153 24.7658L16.7022 24.7483C16.6644 24.6974 16.6266 24.645 16.5888 24.5898C16.5233 24.4909 16.4564 24.3905 16.3895 24.2873L16.3008 24.1447C16.263 24.0851 16.231 24.0313 16.1975 23.9731L16.183 23.9498C16.135 23.8698 16.0943 23.7986 16.0535 23.7258L16.0099 23.6502C15.7874 23.2459 15.3583 22.9928 14.8929 22.9928C14.4856 22.9928 14.1017 23.1877 13.8617 23.5164L13.8311 23.5499L13.7715 23.656C13.4632 24.2189 13.1126 24.7469 12.7214 25.2385C12.2647 25.8159 11.7498 26.3424 11.1826 26.8151C10.8059 27.1307 10.4045 27.4216 9.97978 27.6892L9.87942 27.7532C9.77906 27.8172 9.57835 27.9437 9.38927 28.0499L9.2511 24.9941C9.42709 24.8705 9.67434 24.7192 9.79361 24.6465C9.99723 24.5258 10.211 24.3949 10.3856 24.2669C10.7245 24.008 11.0502 23.7404 11.3615 23.4611C12.6487 22.3092 13.6872 20.9929 14.4566 19.5327L14.6238 19.2171L14.602 18.8375C14.57 18.4433 14.5584 18.0535 14.5642 17.6754L14.5685 17.5619C14.5787 17.2099 14.4507 16.8812 14.2093 16.634C13.9693 16.3867 13.6333 16.2456 13.2872 16.2456C13.1505 16.2456 13.0196 16.266 12.8959 16.3053C13.1301 16.0682 13.2654 15.7438 13.2654 15.4108C13.2654 15.0748 13.133 14.7476 12.8974 14.509C13.021 14.5483 13.1519 14.5687 13.2872 14.5687C13.6333 14.5687 13.9693 14.4261 14.2093 14.1803C14.4507 13.9331 14.5787 13.6044 14.5685 13.2553L14.5656 13.1098V13.1069C14.5584 12.7361 14.5715 12.3594 14.602 11.9841L14.6238 11.5914L14.4493 11.27C13.6828 9.81553 12.6472 8.50072 11.363 7.35316C11.0561 7.07827 10.7332 6.81211 10.3972 6.55612C10.2285 6.42522 10.0278 6.30596 9.81397 6.17797L9.79215 6.16488C9.68452 6.09943 9.43145 5.94671 9.2511 5.81872L9.38927 2.76293C9.56962 2.86329 9.7587 2.98256 9.86633 3.04946L9.97105 3.11782C10.339 3.34762 10.691 3.59924 11.0197 3.86686C11.0735 3.90904 11.1273 3.95267 11.1811 3.99776C11.3644 4.15047 11.552 4.31773 11.7527 4.50827C11.7935 4.54899 11.8371 4.59408 11.8836 4.63917L11.9855 4.74243C12.0509 4.80643 12.1018 4.86024 12.1629 4.92715C12.3083 5.08277 12.4494 5.24276 12.6094 5.43766C12.6472 5.4842 12.685 5.52929 12.7214 5.57583C12.749 5.61219 12.7781 5.64855 12.8072 5.68637C13.1679 6.14888 13.4923 6.64194 13.7701 7.15245L13.8399 7.28044L13.882 7.32262C14.122 7.63387 14.4987 7.81858 14.8929 7.81858C15.3598 7.81858 15.7903 7.56405 16.0143 7.1539C16.3139 6.61139 16.6499 6.10379 17.012 5.64419C17.0309 5.61946 17.0498 5.59619 17.0702 5.57147C17.5312 4.9926 18.049 4.46318 18.6104 3.99776C18.6744 3.94249 18.7384 3.89013 18.8024 3.83922C19.1079 3.59488 19.4482 3.35489 19.8133 3.12218L19.9107 3.0611C20.0125 2.9971 20.2118 2.87056 20.4023 2.76293L20.539 5.82018C20.3601 5.94526 20.1071 6.09797 19.998 6.16342L19.9194 6.21142C19.726 6.32923 19.5486 6.43686 19.39 6.55612C19.0555 6.81211 18.7341 7.07682 18.4272 7.35171C17.1473 8.49926 16.1088 9.81553 15.3336 11.2802L15.1489 11.619L15.1925 12.003C15.223 12.3972 15.2332 12.8088 15.2216 13.2495V13.2669C15.2143 13.6102 15.3423 13.9345 15.5779 14.1774C15.8179 14.4261 16.1553 14.5687 16.503 14.5687C16.6368 14.5687 16.7677 14.5483 16.8913 14.509L16.7191 14.7431L16.6033 14.9599C16.5495 15.1039 16.5219 15.2537 16.5219 15.4064C16.5219 15.7409 16.6571 16.0667 16.8913 16.3038C16.7691 16.2645 16.6382 16.2442 16.503 16.2442C16.1553 16.2442 15.8179 16.3867 15.5779 16.6354C15.3423 16.8798 15.2143 17.2027 15.2201 17.5459V17.5604C15.2332 18.0041 15.223 18.4142 15.191 18.82L15.1489 19.188L15.3336 19.5356C16.1088 20.9973 17.1473 22.3136 18.4257 23.4597C18.7326 23.7346 19.0555 24.0007 19.39 24.2553C19.5747 24.392 19.7769 24.5141 19.9893 24.6421L20.0009 24.6494Z" stroke="#6F6F71" stroke-width="0.4" mask="url(#path-1-outside-1_46_49)"/>
<path d="M47.2059 19.9267C47.2059 20.2836 47.1105 20.6533 46.9196 21.0352C46.7286 21.417 46.4754 21.7906 46.1598 22.1557C45.8442 22.5208 45.483 22.8696 45.0763 23.2019C44.6695 23.5339 44.2481 23.8266 43.8121 24.0799C43.3762 24.3331 42.9423 24.5387 42.511 24.6965C42.0793 24.8539 41.685 24.9412 41.328 24.9579C41.0791 24.9743 40.8361 24.9868 40.5996 24.9953C40.3631 25.0035 40.1327 25.0078 39.9086 25.0078C39.0121 25.0078 38.2128 24.9519 37.5114 24.8397C36.8097 24.7275 36.2142 24.5657 35.7244 24.3542C35.2347 24.1426 34.861 23.8808 34.6038 23.5695C34.3463 23.2582 34.2177 22.9034 34.2177 22.5048C34.2177 22.181 34.2861 21.8925 34.4233 21.6393C34.5604 21.386 34.7385 21.1702 34.9586 20.9917C35.1784 20.8132 35.4256 20.6765 35.6995 20.5807C35.9734 20.4852 36.2516 20.4375 36.5337 20.4375H36.6085L36.6334 20.4873C36.4425 20.5454 36.2869 20.6181 36.1665 20.7053C36.0461 20.7926 35.9527 20.8859 35.8861 20.9856C35.8195 21.0854 35.7739 21.189 35.749 21.297C35.7241 21.4049 35.7116 21.5128 35.7116 21.6207C35.7116 21.9445 35.8982 22.2142 36.2719 22.43C36.6455 22.6459 37.1207 22.8161 37.6977 22.9404C38.2748 23.0651 38.9099 23.152 39.603 23.2019C40.2962 23.2517 40.9622 23.2767 41.6016 23.2767C41.8257 23.2767 42.0415 23.2745 42.2492 23.2706C42.4565 23.2664 42.6559 23.2603 42.8469 23.2521C43.2205 23.2354 43.5254 23.1691 43.7623 23.053C43.9988 22.9365 44.1815 22.7748 44.3101 22.5675C44.4387 22.3598 44.5281 22.1087 44.578 21.8142C44.6278 21.5192 44.6528 21.1851 44.6528 20.8118V11.6331C44.6528 11.5583 44.7315 11.4258 44.8893 11.2345C45.0467 11.0436 45.238 10.8277 45.462 10.587C45.1714 10.6949 44.8601 10.7718 44.5281 10.8174C44.1961 10.863 43.8556 10.8858 43.5069 10.8858C43.0502 10.8858 42.5854 10.8548 42.112 10.7925C41.6386 10.7301 41.1738 10.6514 40.7172 10.556C40.2605 10.4605 39.8246 10.3569 39.4096 10.2446C38.9943 10.1324 38.6167 10.0288 38.2765 9.93334C37.936 9.83788 37.6432 9.75916 37.3985 9.69683C37.1535 9.63449 36.9772 9.6035 36.8692 9.6035C36.695 9.6035 36.5248 9.63663 36.3588 9.70324C36.1925 9.76985 36.0475 9.86317 35.9228 9.98356C35.7982 10.104 35.6988 10.2493 35.624 10.4195C35.5492 10.5898 35.5118 10.7743 35.5118 10.9738L35.4494 10.9488C35.4658 10.401 35.5406 9.94438 35.6735 9.57893C35.8064 9.21383 35.9787 8.92317 36.1903 8.70732C36.4019 8.49147 36.6448 8.33795 36.9187 8.24641C37.1926 8.15522 37.4748 8.10927 37.7654 8.10927C37.9895 8.10927 38.3382 8.16128 38.8115 8.26493C39.2849 8.36894 39.8242 8.48506 40.4304 8.61364C41.0363 8.74258 41.6821 8.8587 42.3667 8.96236C43.0517 9.06636 43.7135 9.11801 44.3528 9.11801C44.9338 9.11801 45.4734 9.05782 45.9717 8.93742C46.4697 8.81703 46.885 8.60759 47.217 8.30839L47.2045 15.917V16.0292C47.5782 16.0292 47.9725 16.021 48.3874 16.0043C48.8024 15.9879 49.2092 15.9484 49.6078 15.886C50.0063 15.8237 50.3757 15.7304 50.7162 15.6057C51.0564 15.481 51.3346 15.3111 51.5504 15.0953C51.7 14.9457 51.8161 14.701 51.8991 14.3605C51.9821 14.0203 52.0238 13.6092 52.0238 13.1277C52.0238 12.7209 51.9907 12.2746 51.9241 11.7891C51.8575 11.3036 51.7499 10.7992 51.6003 10.276C51.4507 9.75275 51.258 9.21953 51.0211 8.67598C50.7846 8.13243 50.5 7.59885 50.168 7.07596L52.4612 5.80506C52.785 6.27025 53.0318 6.86153 53.2021 7.57961C53.372 8.2977 53.4575 9.06779 53.4575 9.88953C53.4575 10.7113 53.3681 11.5376 53.1896 12.3676C53.0112 13.1978 52.7351 13.9491 52.3615 14.6215C52.3116 14.7045 52.214 14.8395 52.0687 15.0262C51.9234 15.2128 51.7634 15.4102 51.5893 15.6178C51.4151 15.8255 51.247 16.0164 51.0849 16.1906C50.9228 16.3648 50.8046 16.4812 50.7301 16.5393C50.4313 16.7551 50.0765 16.9005 49.6655 16.9753C49.2544 17.0501 48.8206 17.0957 48.3643 17.1124C48.879 17.2951 49.3395 17.563 49.7467 17.9156C50.1534 18.2686 50.5314 18.6565 50.8797 19.08C51.2281 19.5035 51.5561 19.9374 51.8635 20.3812C52.1706 20.8254 52.4819 21.2279 52.7975 21.589C53.1127 21.9502 53.4429 22.2448 53.7873 22.4731C54.1318 22.7014 54.5115 22.8154 54.9268 22.8154C55.2338 22.8154 55.4871 22.7303 55.6865 22.56C55.8857 22.3898 55.9854 22.1344 55.9854 21.7942H56.1471V21.9189C56.1471 22.2095 56.0641 22.5084 55.8981 22.8154C55.7318 23.1224 55.5141 23.4006 55.2445 23.6496C54.9745 23.8986 54.6717 24.1041 54.3355 24.2662C53.9993 24.4283 53.657 24.5091 53.3082 24.5091C52.8765 24.5091 52.4947 24.4176 52.1627 24.2352C51.8308 24.0525 51.5316 23.8095 51.2662 23.5068C51.0005 23.2037 50.764 22.8571 50.5563 22.4671C50.3486 22.0767 50.1495 21.6763 49.9586 21.2653C49.7677 20.8542 49.5789 20.4478 49.3919 20.0449C49.2053 19.6424 49.0058 19.277 48.7942 18.9489C48.5826 18.6212 48.3479 18.3491 48.0907 18.1333C47.8332 17.9174 47.5386 17.7845 47.2067 17.7347V19.9263L47.2059 19.9267ZM43.4827 14.4848L42.3371 15.6303L41.1916 14.4848L42.3371 13.3517L43.4827 14.4848ZM43.4827 17.1869L42.3371 18.3324L41.1916 17.1869L42.3371 16.0538L43.4827 17.1869ZM43.4827 19.7148L42.3371 20.8603L41.1916 19.7148L42.3371 18.5817L43.4827 19.7148Z" stroke="#6F6F71" stroke-width="0.4" mask="url(#path-1-outside-1_46_49)"/>
<path d="M83.518 8.37035L82.3725 9.51586L83.518 10.6493L84.6511 9.51586L83.518 8.37035Z" stroke="#6F6F71" stroke-width="0.4" mask="url(#path-1-outside-1_46_49)"/>
<path d="M85.055 15.0326V21.1221H80.5171C80.2097 21.1221 79.8945 21.0348 79.5707 20.8606C79.2469 20.6861 78.9541 20.4621 78.6927 20.1882C78.4312 19.9142 78.2132 19.609 78.0391 19.2727C77.8645 18.9365 77.7691 18.6109 77.7523 18.2953C77.6195 18.6608 77.4763 19.0134 77.3228 19.354C77.1693 19.6945 77.0072 19.9951 76.8373 20.2565C76.667 20.518 76.4864 20.7278 76.2955 20.8856C76.1046 21.0434 75.9094 21.1221 75.7103 21.1221C75.6202 21.1221 75.5329 21.1153 75.4488 21.1014V21.1221H73.2198C72.896 21.1221 72.5701 21.0309 72.2424 20.8482C71.9143 20.6655 71.6176 20.4332 71.3519 20.1508C71.0862 19.8686 70.8703 19.5573 70.7043 19.2168C70.538 18.8767 70.4554 18.5443 70.4554 18.2205V15.8422C70.4554 15.5929 70.4511 15.3546 70.4429 15.1259C70.4344 14.898 70.4073 14.6964 70.362 14.5222C70.3161 14.3477 70.2498 14.2087 70.1626 14.1051C70.0753 14.0011 69.9528 13.9494 69.7953 13.9494C69.6379 13.9494 69.4673 14.0032 69.2846 14.1111C69.1018 14.2191 68.9337 14.3687 68.7802 14.5596C68.6267 14.7505 68.5002 14.9767 68.4005 15.2381C68.3008 15.4996 68.2512 15.7842 68.2512 16.0912V21.1221H65.8726V15.8422C65.8726 15.5929 65.8683 15.3546 65.8601 15.1259C65.8519 14.898 65.8249 14.6964 65.7793 14.5222C65.7337 14.3477 65.6671 14.2087 65.5802 14.1051C65.4929 14.0011 65.3704 13.9494 65.2126 13.9494C65.0633 13.9494 64.9013 13.9972 64.7271 14.0926C64.5525 14.1881 64.3908 14.3227 64.2412 14.4973C64.092 14.6714 63.9652 14.8791 63.8615 15.1199C63.7575 15.3607 63.6934 15.6221 63.6685 15.9042V21.1221H59.3475C59.0401 21.1221 58.7249 21.0348 58.4011 20.8606C58.0773 20.6861 57.7845 20.4621 57.5231 20.1882C57.2616 19.9142 57.0436 19.609 56.8695 19.2727C56.6949 18.9365 56.5995 18.6109 56.5831 18.2953C56.4502 18.6608 56.307 19.0134 56.1532 19.354C55.9996 19.6945 55.8376 19.9951 55.6677 20.2565C55.4974 20.518 55.3168 20.7278 55.1259 20.8856C54.935 21.0434 54.7398 21.1221 54.5407 21.1221C54.2087 21.1221 53.9159 21.0288 53.6627 20.8418C53.4094 20.6551 53.2 20.4104 53.034 20.1073C52.8676 19.8042 52.7433 19.4576 52.6603 19.0672C52.5773 18.6772 52.5357 18.2829 52.5357 17.8843V17.7475C52.5524 17.4319 52.5855 17.1185 52.6354 16.8072C52.6853 16.4959 52.7601 16.2073 52.8594 15.9416C52.951 15.7012 53.0878 15.4519 53.2705 15.1947C53.4529 14.9372 53.6627 14.686 53.8995 14.441C54.136 14.1963 54.3975 13.964 54.6839 13.7439C54.9702 13.5238 55.2648 13.3307 55.5679 13.1647C55.871 12.9988 56.1781 12.868 56.4894 12.7726C56.8007 12.6771 57.0978 12.6294 57.3799 12.6294C57.4711 12.6294 57.5811 12.6315 57.7101 12.6354C57.8387 12.6397 57.9754 12.6461 58.1208 12.6543C58.2661 12.6625 58.4136 12.675 58.5628 12.6914C58.7124 12.7081 58.8495 12.7288 58.9738 12.7537L58.9614 14.5347C58.8866 14.5179 58.7623 14.4973 58.5877 14.4723C58.4136 14.4474 58.2287 14.4267 58.0339 14.41C57.8387 14.3936 57.6517 14.379 57.4732 14.3665C57.2948 14.3541 57.1598 14.3477 57.0686 14.3477H57.0187C56.5706 14.3893 56.2052 14.5407 55.9231 14.8022C55.6406 15.064 55.4247 15.3813 55.2755 15.755C55.1259 16.1286 55.0326 16.529 54.9952 16.9568C54.9578 17.3842 54.9535 17.7785 54.9827 18.1397C55.0119 18.5009 55.0678 18.7997 55.1508 19.0362C55.2338 19.2727 55.3168 19.391 55.3998 19.391C55.4746 19.391 55.5576 19.3144 55.6491 19.1609C55.7403 19.0074 55.8358 18.804 55.9355 18.5507C56.0349 18.2975 56.1389 18.0132 56.2468 17.6977C56.3544 17.3821 56.4605 17.0647 56.5642 16.7448C56.6679 16.4253 56.7654 16.1162 56.857 15.8173C56.9482 15.5185 57.0312 15.2652 57.106 15.0576H58.9614V19.0426C58.9614 19.1588 58.9927 19.2624 59.0547 19.354C59.117 19.4451 59.1979 19.5075 59.2976 19.5406C59.3806 19.5655 59.4761 19.5801 59.584 19.5841C59.6919 19.5883 59.8041 19.5905 59.9203 19.5905H61.2898V14.6465C61.2898 14.5304 61.261 14.4185 61.2029 14.3103C61.1445 14.2027 61.0658 14.1485 60.966 14.1485H59.8454L60.493 12.6294H60.929C61.1114 12.6294 61.3418 12.6999 61.62 12.841C61.8982 12.9824 62.1742 13.163 62.4482 13.3827C62.7221 13.6029 62.971 13.8394 63.1951 14.0926C63.4195 14.3459 63.5645 14.5845 63.6311 14.8086C63.7223 14.4185 63.8615 14.0759 64.0482 13.7813C64.2352 13.4867 64.4532 13.2374 64.7021 13.034C64.9511 12.8306 65.2208 12.6771 65.5114 12.5731C65.8021 12.4695 66.0966 12.4174 66.3955 12.4174C66.736 12.4174 67.016 12.4905 67.2361 12.6354C67.4562 12.7808 67.6347 12.9678 67.7718 13.1957C67.9086 13.4244 68.0101 13.6816 68.0767 13.968C68.143 14.2543 68.1889 14.5389 68.2138 14.821C68.305 14.431 68.4443 14.0884 68.6309 13.7938C68.8176 13.4989 69.0356 13.2477 69.2846 13.0401C69.5339 12.8328 69.8035 12.6771 70.0942 12.5731C70.3845 12.4695 70.6794 12.4174 70.9783 12.4174C71.2771 12.4174 71.5428 12.478 71.7505 12.598C71.9578 12.7184 72.132 12.8741 72.2734 13.065C72.4144 13.2563 72.5224 13.4743 72.5972 13.719C72.672 13.964 72.7257 14.2152 72.7589 14.4723C72.792 14.7299 72.813 14.981 72.8212 15.2257C72.8294 15.4707 72.8337 15.6845 72.8337 15.8672V19.0426C72.8337 19.1588 72.8629 19.2624 72.9209 19.354C72.979 19.4451 73.0581 19.5075 73.1574 19.5406C73.2404 19.5655 73.3359 19.5801 73.4438 19.5841C73.5518 19.5883 73.6639 19.5905 73.7801 19.5905H73.9749C73.9176 19.4259 73.8688 19.2514 73.8299 19.0672C73.7466 18.6772 73.7053 18.2829 73.7053 17.8843V17.7475C73.722 17.4319 73.7551 17.1185 73.805 16.8072C73.8549 16.4959 73.9293 16.2073 74.0291 15.9416C74.1202 15.7012 74.2574 15.4519 74.4401 15.1947C74.6225 14.9372 74.8323 14.686 75.0688 14.441C75.3056 14.1963 75.5671 13.964 75.8535 13.7439C76.1398 13.5238 76.4344 13.3307 76.7375 13.1647C77.0407 12.9988 77.3477 12.868 77.659 12.7726C77.9703 12.6771 78.267 12.6294 78.5495 12.6294C78.6407 12.6294 78.7507 12.6315 78.8793 12.6354C79.0079 12.6397 79.1451 12.6461 79.2904 12.6543C79.4357 12.6625 79.5832 12.675 79.7324 12.6914C79.882 12.7081 80.0188 12.7288 80.1435 12.7537L80.131 14.5347C80.0562 14.5179 79.9319 14.4973 79.7573 14.4723C79.5832 14.4474 79.3983 14.4267 79.2031 14.41C79.0079 14.3936 78.8213 14.379 78.6428 14.3665C78.4644 14.3541 78.3294 14.3477 78.2382 14.3477H78.1883C77.7399 14.3893 77.3748 14.5407 77.0927 14.8022C76.8102 15.064 76.5944 15.3813 76.4451 15.755C76.2955 16.1286 76.2022 16.529 76.1648 16.9568C76.1274 17.3842 76.1231 17.7785 76.1523 18.1397C76.1812 18.5009 76.2374 18.7997 76.3204 19.0362C76.4034 19.2727 76.4864 19.391 76.5694 19.391C76.6442 19.391 76.7272 19.3144 76.8184 19.1609C76.9099 19.0074 77.0054 18.804 77.1048 18.5507C77.2045 18.2975 77.3082 18.0132 77.4161 17.6977C77.524 17.3821 77.6298 17.0647 77.7338 16.7448C77.8375 16.4253 77.9351 16.1162 78.0266 15.8173C78.1178 15.5185 78.2008 15.2652 78.2756 15.0576H80.131V19.0426C80.131 19.1588 80.162 19.2624 80.2243 19.354C80.2867 19.4451 80.3675 19.5075 80.4672 19.5406C80.5502 19.5655 80.6457 19.5801 80.7536 19.5841C80.8615 19.5883 80.9734 19.5905 81.0899 19.5905H82.6763V14.6465C82.6763 14.5304 82.6471 14.4185 82.5891 14.3103C82.531 14.2027 82.448 14.1485 82.3401 14.1485H81.2195L81.8795 12.6294H82.3027C82.4356 12.6294 82.5955 12.6689 82.7821 12.7476C82.9691 12.8267 83.164 12.9304 83.3677 13.059C83.5707 13.1875 83.7741 13.335 83.9779 13.501C84.1809 13.667 84.3615 13.8394 84.5193 14.0178C84.6771 14.1963 84.806 14.3726 84.9054 14.5471C85.0051 14.7213 85.055 14.8834 85.055 15.0326Z" stroke="#6F6F71" stroke-width="0.4" mask="url(#path-1-outside-1_46_49)"/>
</svg>
