<svg width="129" height="30" viewBox="0 0 129 30" fill="none" xmlns="http://www.w3.org/2000/svg">
<mask id="path-1-outside-1_46_33" maskUnits="userSpaceOnUse" x="-0.380737" y="-0.608398" width="129" height="31" fill="black">
<rect fill="white" x="-0.380737" y="-0.608398" width="129" height="31"/>
<path d="M27.0629 14.8283L29.4641 12.4272L17.4575 0.420411L15.0562 2.82176L12.626 0.391602L0.619263 12.3983L3.04942 14.8285L0.648275 17.2297L12.6548 29.2364L15.0562 26.8351L17.4863 29.2652L29.4929 17.2585L27.0629 14.8283ZM22.9516 21.6479L20.5503 19.2467L19.4744 20.3227L21.8758 22.724L17.4863 27.1132L16.1321 25.7592L18.9751 22.9161L17.8992 21.8402L15.0562 24.6831L12.242 21.869L11.1661 22.9449L13.9803 25.7592L12.6548 27.0844L8.2656 22.695L10.6668 20.2938L9.59085 19.2179L7.1895 21.6191L2.80028 17.2297L4.12553 15.9044L6.93974 18.7187L8.01564 17.6427L5.20144 14.8285L8.04446 11.9855L6.96856 10.9096L4.12553 13.7526L2.77127 12.3983L7.16068 8.00873L9.56183 10.4101L10.6379 9.33418L8.23658 6.93283L12.626 2.54341L13.9803 3.89766L11.1372 6.74088L12.2131 7.81678L15.0564 4.97376L17.8704 7.7878L18.9465 6.7119L16.1323 3.89766L17.4575 2.57241L21.847 6.96186L19.4456 9.36301L20.5217 10.4389L22.9229 8.03776L27.3123 12.4272L25.987 13.7524L23.1728 10.9382L22.0969 12.0143L24.9111 14.8285L22.0679 17.6715L23.1438 18.7474L25.987 15.9044L27.3411 17.2585L22.9516 21.6479Z"/>
<path d="M15.0562 10.965L18.9195 14.8283L15.0562 18.6917L11.1928 14.8283L15.0562 10.965ZM15.0562 8.81295L9.04084 14.8283L15.0562 20.8437L21.0715 14.8283L15.0562 8.81295Z"/>
<path d="M41.5359 18.3686V19.8382H34.3917V10.4896L41.2092 10.5101V11.9185H36.2287V14.4903H40.8009V15.7763L40.7397 15.8375H36.2287V18.3686H41.5359Z"/>
<path d="M53.7012 19.8382H51.9458V14.8782C51.9458 14.7443 51.8719 14.4034 51.825 14.2642C51.4298 13.0881 50.0435 13.5036 49.4389 14.2899C49.3838 14.3617 49.0882 14.8769 49.0882 14.919V19.8382H47.3328V14.7557C47.3328 14.4724 47.1446 13.9698 46.9254 13.7751C46.2971 13.2158 45.2924 13.689 44.8499 14.2728C44.7964 14.343 44.4752 14.8814 44.4752 14.919V19.8382H42.7198V12.3879L42.781 12.3267H44.4752V14.0821L44.8903 13.3746C46.1097 11.7115 48.7094 11.716 49.007 14.0413C49.2082 13.7678 49.3515 13.462 49.5773 13.2032C50.9477 11.6323 53.4392 11.8642 53.6555 14.1891C53.7568 16.0661 53.6751 17.9567 53.7012 19.8382Z"/>
<path d="M86.4824 19.8382H84.727V14.8782C84.727 14.7443 84.6531 14.4034 84.6062 14.2642C84.211 13.0881 82.8246 13.5036 82.22 14.2899C82.1649 14.3617 81.8694 14.8769 81.8694 14.919V19.8382H80.114V14.7557C80.114 14.4724 79.9258 13.9698 79.7065 13.7751C79.0783 13.2158 78.0736 13.689 77.6311 14.2728C77.5776 14.343 77.2563 14.8814 77.2563 14.919V19.8382H75.5009V12.3879L75.5621 12.3267H77.2563V14.0821L77.6715 13.3746C78.8909 11.7115 81.4905 11.716 81.7881 14.0413C81.9894 13.7678 82.1327 13.462 82.3584 13.2032C83.7289 11.6323 86.2203 11.8642 86.4367 14.1891C86.5379 16.0661 86.4563 17.9567 86.4824 19.8382Z"/>
<path d="M61.9141 13.5241C60.8261 11.6021 58.1457 11.8683 57.1643 13.7282L56.8038 14.4903V9.67318H55.0484V19.8382H56.8038V18.3686L57.2321 19.1038C58.1849 20.2611 60.2652 20.2187 61.336 19.2467C62.6897 18.0171 62.7747 15.0447 61.9141 13.5241ZM60.5306 17.2573C60.1611 18.3849 59.0924 18.9054 57.9563 18.5433C55.9347 17.8991 56.7561 13.838 58.6723 13.562C60.7045 13.2693 60.9976 15.8322 60.5306 17.2573Z"/>
<path d="M72.4808 17.2659C72.3457 18.0722 71.7227 18.627 70.9099 18.6964C69.3864 18.8266 68.6683 17.9166 68.5201 16.4907H74.0313C74.2497 14.9345 73.9402 13.2746 72.3853 12.5647C71.0516 11.9556 68.9986 12.0944 67.8886 13.1036C66.4275 14.432 66.3749 17.4831 67.7237 18.8997C69.4321 20.6934 73.8402 20.2999 74.2354 17.43L72.4808 17.2659ZM71.3239 13.5849C72.251 13.9143 72.4126 14.8386 72.3167 15.715H68.5201C68.5564 14.1846 69.7677 13.0325 71.3239 13.5849Z"/>
<path d="M101.056 10.4488L97.2418 19.8406L95.4023 19.7974L91.6261 10.4488H93.4428L96.3412 18.0016L99.2397 10.4488H101.056Z"/>
<path d="M109.012 14.3932C108.487 11.3604 104.324 11.9744 102.432 13.2734C102.386 13.3052 102.231 13.3897 102.245 13.4424L102.955 14.5724C103.849 13.8233 105.184 13.1897 106.364 13.5714C106.903 13.7461 107.302 14.2634 107.302 14.8373V15.715C105.539 15.2276 101.996 15.077 101.83 17.6113C101.65 20.3701 105.206 20.571 106.732 18.9613C106.95 18.7315 107.088 18.4359 107.302 18.2053V19.8382H109.058C109.033 18.0244 109.111 16.2029 109.012 14.3932ZM107.09 17.6868C106.625 18.4592 105.725 18.8539 104.833 18.776C103.106 18.6253 103.107 16.3286 105.008 16.1351C105.588 16.0763 106.323 16.1629 106.887 16.3139C106.98 16.3388 107.27 16.3976 107.297 16.4756C107.326 16.9671 107.346 17.2614 107.09 17.6868Z"/>
<path d="M117.141 12.3267V19.8382H115.385V18.1236L115.035 18.6915C113.712 20.4285 110.595 20.6224 110.247 17.9754C110.019 16.2413 110.324 14.2323 110.199 12.4675L110.262 12.3267H111.956V17.4909C111.956 17.7031 112.179 18.1775 112.344 18.3273C113.09 19.0017 114.431 18.5433 115.017 17.857C115.081 17.7819 115.385 17.3451 115.385 17.2867V12.3879L115.447 12.3267H117.141Z"/>
<path d="M128.446 19.1805C127.038 20.1546 124.108 20.4603 123.121 18.7776C122.851 18.3175 122.76 17.775 122.732 17.2476C122.67 16.0767 122.782 14.85 122.734 13.6739H121.55V12.3267H122.734V10.5101L122.795 10.4488H124.489V12.3267H128.122V13.6739H124.489V17.2867C124.489 17.4002 124.583 17.7187 124.633 17.8374C125.123 19.0111 127.009 18.591 127.776 17.9207L128.446 19.1805Z"/>
<path d="M65.4584 9.67318H63.703V19.8382H65.4584V9.67318Z"/>
<path d="M120.447 9.67318H118.692V19.8382H120.447V9.67318Z"/>
</mask>
<path d="M27.0629 14.8283L29.4641 12.4272L17.4575 0.420411L15.0562 2.82176L12.626 0.391602L0.619263 12.3983L3.04942 14.8285L0.648275 17.2297L12.6548 29.2364L15.0562 26.8351L17.4863 29.2652L29.4929 17.2585L27.0629 14.8283ZM22.9516 21.6479L20.5503 19.2467L19.4744 20.3227L21.8758 22.724L17.4863 27.1132L16.1321 25.7592L18.9751 22.9161L17.8992 21.8402L15.0562 24.6831L12.242 21.869L11.1661 22.9449L13.9803 25.7592L12.6548 27.0844L8.2656 22.695L10.6668 20.2938L9.59085 19.2179L7.1895 21.6191L2.80028 17.2297L4.12553 15.9044L6.93974 18.7187L8.01564 17.6427L5.20144 14.8285L8.04446 11.9855L6.96856 10.9096L4.12553 13.7526L2.77127 12.3983L7.16068 8.00873L9.56183 10.4101L10.6379 9.33418L8.23658 6.93283L12.626 2.54341L13.9803 3.89766L11.1372 6.74088L12.2131 7.81678L15.0564 4.97376L17.8704 7.7878L18.9465 6.7119L16.1323 3.89766L17.4575 2.57241L21.847 6.96186L19.4456 9.36301L20.5217 10.4389L22.9229 8.03776L27.3123 12.4272L25.987 13.7524L23.1728 10.9382L22.0969 12.0143L24.9111 14.8285L22.0679 17.6715L23.1438 18.7474L25.987 15.9044L27.3411 17.2585L22.9516 21.6479Z" fill="#6F6F71"/>
<path d="M15.0562 10.965L18.9195 14.8283L15.0562 18.6917L11.1928 14.8283L15.0562 10.965ZM15.0562 8.81295L9.04084 14.8283L15.0562 20.8437L21.0715 14.8283L15.0562 8.81295Z" fill="#6F6F71"/>
<path d="M41.5359 18.3686V19.8382H34.3917V10.4896L41.2092 10.5101V11.9185H36.2287V14.4903H40.8009V15.7763L40.7397 15.8375H36.2287V18.3686H41.5359Z" fill="#6F6F71"/>
<path d="M53.7012 19.8382H51.9458V14.8782C51.9458 14.7443 51.8719 14.4034 51.825 14.2642C51.4298 13.0881 50.0435 13.5036 49.4389 14.2899C49.3838 14.3617 49.0882 14.8769 49.0882 14.919V19.8382H47.3328V14.7557C47.3328 14.4724 47.1446 13.9698 46.9254 13.7751C46.2971 13.2158 45.2924 13.689 44.8499 14.2728C44.7964 14.343 44.4752 14.8814 44.4752 14.919V19.8382H42.7198V12.3879L42.781 12.3267H44.4752V14.0821L44.8903 13.3746C46.1097 11.7115 48.7094 11.716 49.007 14.0413C49.2082 13.7678 49.3515 13.462 49.5773 13.2032C50.9477 11.6323 53.4392 11.8642 53.6555 14.1891C53.7568 16.0661 53.6751 17.9567 53.7012 19.8382Z" fill="#6F6F71"/>
<path d="M86.4824 19.8382H84.727V14.8782C84.727 14.7443 84.6531 14.4034 84.6062 14.2642C84.211 13.0881 82.8246 13.5036 82.22 14.2899C82.1649 14.3617 81.8694 14.8769 81.8694 14.919V19.8382H80.114V14.7557C80.114 14.4724 79.9258 13.9698 79.7065 13.7751C79.0783 13.2158 78.0736 13.689 77.6311 14.2728C77.5776 14.343 77.2563 14.8814 77.2563 14.919V19.8382H75.5009V12.3879L75.5621 12.3267H77.2563V14.0821L77.6715 13.3746C78.8909 11.7115 81.4905 11.716 81.7881 14.0413C81.9894 13.7678 82.1327 13.462 82.3584 13.2032C83.7289 11.6323 86.2203 11.8642 86.4367 14.1891C86.5379 16.0661 86.4563 17.9567 86.4824 19.8382Z" fill="#6F6F71"/>
<path d="M61.9141 13.5241C60.8261 11.6021 58.1457 11.8683 57.1643 13.7282L56.8038 14.4903V9.67318H55.0484V19.8382H56.8038V18.3686L57.2321 19.1038C58.1849 20.2611 60.2652 20.2187 61.336 19.2467C62.6897 18.0171 62.7747 15.0447 61.9141 13.5241ZM60.5306 17.2573C60.1611 18.3849 59.0924 18.9054 57.9563 18.5433C55.9347 17.8991 56.7561 13.838 58.6723 13.562C60.7045 13.2693 60.9976 15.8322 60.5306 17.2573Z" fill="#6F6F71"/>
<path d="M72.4808 17.2659C72.3457 18.0722 71.7227 18.627 70.9099 18.6964C69.3864 18.8266 68.6683 17.9166 68.5201 16.4907H74.0313C74.2497 14.9345 73.9402 13.2746 72.3853 12.5647C71.0516 11.9556 68.9986 12.0944 67.8886 13.1036C66.4275 14.432 66.3749 17.4831 67.7237 18.8997C69.4321 20.6934 73.8402 20.2999 74.2354 17.43L72.4808 17.2659ZM71.3239 13.5849C72.251 13.9143 72.4126 14.8386 72.3167 15.715H68.5201C68.5564 14.1846 69.7677 13.0325 71.3239 13.5849Z" fill="#6F6F71"/>
<path d="M101.056 10.4488L97.2418 19.8406L95.4023 19.7974L91.6261 10.4488H93.4428L96.3412 18.0016L99.2397 10.4488H101.056Z" fill="#6F6F71"/>
<path d="M109.012 14.3932C108.487 11.3604 104.324 11.9744 102.432 13.2734C102.386 13.3052 102.231 13.3897 102.245 13.4424L102.955 14.5724C103.849 13.8233 105.184 13.1897 106.364 13.5714C106.903 13.7461 107.302 14.2634 107.302 14.8373V15.715C105.539 15.2276 101.996 15.077 101.83 17.6113C101.65 20.3701 105.206 20.571 106.732 18.9613C106.95 18.7315 107.088 18.4359 107.302 18.2053V19.8382H109.058C109.033 18.0244 109.111 16.2029 109.012 14.3932ZM107.09 17.6868C106.625 18.4592 105.725 18.8539 104.833 18.776C103.106 18.6253 103.107 16.3286 105.008 16.1351C105.588 16.0763 106.323 16.1629 106.887 16.3139C106.98 16.3388 107.27 16.3976 107.297 16.4756C107.326 16.9671 107.346 17.2614 107.09 17.6868Z" fill="#6F6F71"/>
<path d="M117.141 12.3267V19.8382H115.385V18.1236L115.035 18.6915C113.712 20.4285 110.595 20.6224 110.247 17.9754C110.019 16.2413 110.324 14.2323 110.199 12.4675L110.262 12.3267H111.956V17.4909C111.956 17.7031 112.179 18.1775 112.344 18.3273C113.09 19.0017 114.431 18.5433 115.017 17.857C115.081 17.7819 115.385 17.3451 115.385 17.2867V12.3879L115.447 12.3267H117.141Z" fill="#6F6F71"/>
<path d="M128.446 19.1805C127.038 20.1546 124.108 20.4603 123.121 18.7776C122.851 18.3175 122.76 17.775 122.732 17.2476C122.67 16.0767 122.782 14.85 122.734 13.6739H121.55V12.3267H122.734V10.5101L122.795 10.4488H124.489V12.3267H128.122V13.6739H124.489V17.2867C124.489 17.4002 124.583 17.7187 124.633 17.8374C125.123 19.0111 127.009 18.591 127.776 17.9207L128.446 19.1805Z" fill="#6F6F71"/>
<path d="M65.4584 9.67318H63.703V19.8382H65.4584V9.67318Z" fill="#6F6F71"/>
<path d="M120.447 9.67318H118.692V19.8382H120.447V9.67318Z" fill="#6F6F71"/>
<path d="M27.0629 14.8283L29.4641 12.4272L17.4575 0.420411L15.0562 2.82176L12.626 0.391602L0.619263 12.3983L3.04942 14.8285L0.648275 17.2297L12.6548 29.2364L15.0562 26.8351L17.4863 29.2652L29.4929 17.2585L27.0629 14.8283ZM22.9516 21.6479L20.5503 19.2467L19.4744 20.3227L21.8758 22.724L17.4863 27.1132L16.1321 25.7592L18.9751 22.9161L17.8992 21.8402L15.0562 24.6831L12.242 21.869L11.1661 22.9449L13.9803 25.7592L12.6548 27.0844L8.2656 22.695L10.6668 20.2938L9.59085 19.2179L7.1895 21.6191L2.80028 17.2297L4.12553 15.9044L6.93974 18.7187L8.01564 17.6427L5.20144 14.8285L8.04446 11.9855L6.96856 10.9096L4.12553 13.7526L2.77127 12.3983L7.16068 8.00873L9.56183 10.4101L10.6379 9.33418L8.23658 6.93283L12.626 2.54341L13.9803 3.89766L11.1372 6.74088L12.2131 7.81678L15.0564 4.97376L17.8704 7.7878L18.9465 6.7119L16.1323 3.89766L17.4575 2.57241L21.847 6.96186L19.4456 9.36301L20.5217 10.4389L22.9229 8.03776L27.3123 12.4272L25.987 13.7524L23.1728 10.9382L22.0969 12.0143L24.9111 14.8285L22.0679 17.6715L23.1438 18.7474L25.987 15.9044L27.3411 17.2585L22.9516 21.6479Z" stroke="#6F6F71" stroke-width="0.2" mask="url(#path-1-outside-1_46_33)"/>
<path d="M15.0562 10.965L18.9195 14.8283L15.0562 18.6917L11.1928 14.8283L15.0562 10.965ZM15.0562 8.81295L9.04084 14.8283L15.0562 20.8437L21.0715 14.8283L15.0562 8.81295Z" stroke="#6F6F71" stroke-width="0.2" mask="url(#path-1-outside-1_46_33)"/>
<path d="M41.5359 18.3686V19.8382H34.3917V10.4896L41.2092 10.5101V11.9185H36.2287V14.4903H40.8009V15.7763L40.7397 15.8375H36.2287V18.3686H41.5359Z" stroke="#6F6F71" stroke-width="0.2" mask="url(#path-1-outside-1_46_33)"/>
<path d="M53.7012 19.8382H51.9458V14.8782C51.9458 14.7443 51.8719 14.4034 51.825 14.2642C51.4298 13.0881 50.0435 13.5036 49.4389 14.2899C49.3838 14.3617 49.0882 14.8769 49.0882 14.919V19.8382H47.3328V14.7557C47.3328 14.4724 47.1446 13.9698 46.9254 13.7751C46.2971 13.2158 45.2924 13.689 44.8499 14.2728C44.7964 14.343 44.4752 14.8814 44.4752 14.919V19.8382H42.7198V12.3879L42.781 12.3267H44.4752V14.0821L44.8903 13.3746C46.1097 11.7115 48.7094 11.716 49.007 14.0413C49.2082 13.7678 49.3515 13.462 49.5773 13.2032C50.9477 11.6323 53.4392 11.8642 53.6555 14.1891C53.7568 16.0661 53.6751 17.9567 53.7012 19.8382Z" stroke="#6F6F71" stroke-width="0.2" mask="url(#path-1-outside-1_46_33)"/>
<path d="M86.4824 19.8382H84.727V14.8782C84.727 14.7443 84.6531 14.4034 84.6062 14.2642C84.211 13.0881 82.8246 13.5036 82.22 14.2899C82.1649 14.3617 81.8694 14.8769 81.8694 14.919V19.8382H80.114V14.7557C80.114 14.4724 79.9258 13.9698 79.7065 13.7751C79.0783 13.2158 78.0736 13.689 77.6311 14.2728C77.5776 14.343 77.2563 14.8814 77.2563 14.919V19.8382H75.5009V12.3879L75.5621 12.3267H77.2563V14.0821L77.6715 13.3746C78.8909 11.7115 81.4905 11.716 81.7881 14.0413C81.9894 13.7678 82.1327 13.462 82.3584 13.2032C83.7289 11.6323 86.2203 11.8642 86.4367 14.1891C86.5379 16.0661 86.4563 17.9567 86.4824 19.8382Z" stroke="#6F6F71" stroke-width="0.2" mask="url(#path-1-outside-1_46_33)"/>
<path d="M61.9141 13.5241C60.8261 11.6021 58.1457 11.8683 57.1643 13.7282L56.8038 14.4903V9.67318H55.0484V19.8382H56.8038V18.3686L57.2321 19.1038C58.1849 20.2611 60.2652 20.2187 61.336 19.2467C62.6897 18.0171 62.7747 15.0447 61.9141 13.5241ZM60.5306 17.2573C60.1611 18.3849 59.0924 18.9054 57.9563 18.5433C55.9347 17.8991 56.7561 13.838 58.6723 13.562C60.7045 13.2693 60.9976 15.8322 60.5306 17.2573Z" stroke="#6F6F71" stroke-width="0.2" mask="url(#path-1-outside-1_46_33)"/>
<path d="M72.4808 17.2659C72.3457 18.0722 71.7227 18.627 70.9099 18.6964C69.3864 18.8266 68.6683 17.9166 68.5201 16.4907H74.0313C74.2497 14.9345 73.9402 13.2746 72.3853 12.5647C71.0516 11.9556 68.9986 12.0944 67.8886 13.1036C66.4275 14.432 66.3749 17.4831 67.7237 18.8997C69.4321 20.6934 73.8402 20.2999 74.2354 17.43L72.4808 17.2659ZM71.3239 13.5849C72.251 13.9143 72.4126 14.8386 72.3167 15.715H68.5201C68.5564 14.1846 69.7677 13.0325 71.3239 13.5849Z" stroke="#6F6F71" stroke-width="0.2" mask="url(#path-1-outside-1_46_33)"/>
<path d="M101.056 10.4488L97.2418 19.8406L95.4023 19.7974L91.6261 10.4488H93.4428L96.3412 18.0016L99.2397 10.4488H101.056Z" stroke="#6F6F71" stroke-width="0.2" mask="url(#path-1-outside-1_46_33)"/>
<path d="M109.012 14.3932C108.487 11.3604 104.324 11.9744 102.432 13.2734C102.386 13.3052 102.231 13.3897 102.245 13.4424L102.955 14.5724C103.849 13.8233 105.184 13.1897 106.364 13.5714C106.903 13.7461 107.302 14.2634 107.302 14.8373V15.715C105.539 15.2276 101.996 15.077 101.83 17.6113C101.65 20.3701 105.206 20.571 106.732 18.9613C106.95 18.7315 107.088 18.4359 107.302 18.2053V19.8382H109.058C109.033 18.0244 109.111 16.2029 109.012 14.3932ZM107.09 17.6868C106.625 18.4592 105.725 18.8539 104.833 18.776C103.106 18.6253 103.107 16.3286 105.008 16.1351C105.588 16.0763 106.323 16.1629 106.887 16.3139C106.98 16.3388 107.27 16.3976 107.297 16.4756C107.326 16.9671 107.346 17.2614 107.09 17.6868Z" stroke="#6F6F71" stroke-width="0.2" mask="url(#path-1-outside-1_46_33)"/>
<path d="M117.141 12.3267V19.8382H115.385V18.1236L115.035 18.6915C113.712 20.4285 110.595 20.6224 110.247 17.9754C110.019 16.2413 110.324 14.2323 110.199 12.4675L110.262 12.3267H111.956V17.4909C111.956 17.7031 112.179 18.1775 112.344 18.3273C113.09 19.0017 114.431 18.5433 115.017 17.857C115.081 17.7819 115.385 17.3451 115.385 17.2867V12.3879L115.447 12.3267H117.141Z" stroke="#6F6F71" stroke-width="0.2" mask="url(#path-1-outside-1_46_33)"/>
<path d="M128.446 19.1805C127.038 20.1546 124.108 20.4603 123.121 18.7776C122.851 18.3175 122.76 17.775 122.732 17.2476C122.67 16.0767 122.782 14.85 122.734 13.6739H121.55V12.3267H122.734V10.5101L122.795 10.4488H124.489V12.3267H128.122V13.6739H124.489V17.2867C124.489 17.4002 124.583 17.7187 124.633 17.8374C125.123 19.0111 127.009 18.591 127.776 17.9207L128.446 19.1805Z" stroke="#6F6F71" stroke-width="0.2" mask="url(#path-1-outside-1_46_33)"/>
<path d="M65.4584 9.67318H63.703V19.8382H65.4584V9.67318Z" stroke="#6F6F71" stroke-width="0.2" mask="url(#path-1-outside-1_46_33)"/>
<path d="M120.447 9.67318H118.692V19.8382H120.447V9.67318Z" stroke="#6F6F71" stroke-width="0.2" mask="url(#path-1-outside-1_46_33)"/>
</svg>
