<svg width="76" height="18" viewBox="0 0 76 18" fill="none" xmlns="http://www.w3.org/2000/svg">
<path d="M72.9957 10.2906L71.3395 9.36211C70.036 8.64087 69.6829 8.06052 69.6829 7.24812C69.6829 6.5973 70.1696 6.017 71.141 6.017C71.2201 6.017 71.3228 6.02947 71.4145 6.05226C71.4773 6.06882 71.5313 6.11026 71.569 6.16622L73.113 8.47296C73.4803 9.02219 74.3327 8.87297 74.4873 8.23258L74.8174 6.86885C74.8509 6.72373 74.8802 6.55382 74.9033 6.39009C74.9614 5.96105 74.6293 5.57764 74.1928 5.57764H71.2955C68.3563 5.57764 66.5451 7.11133 66.5451 9.45741C66.5451 11.2233 67.4289 12.3155 69.2632 13.3372L70.7208 14.1497C71.6486 14.6616 72.0474 15.0554 72.0474 15.7538C72.0474 16.7072 71.3851 17.2419 70.4117 17.2419C70.1759 17.2419 70.0255 17.2233 69.7767 17.1528C69.7164 17.1362 69.6619 17.0968 69.6263 17.0471L67.8051 14.4813C67.4834 14.0295 66.773 14.1828 66.6708 14.7279L66.2842 16.7984C66.2779 16.8295 66.2758 16.8875 66.2737 16.96C66.2716 17.0802 66.303 17.1901 66.3533 17.2896H65.7141C65.5632 17.2896 65.4401 17.1611 65.4401 17.0015V0.846012C65.4401 0.647077 65.2541 0.508184 65.0765 0.574513L63.9302 0.570374C63.8757 0.56414 63.8212 0.557957 63.7651 0.557957H59.3846C59.2112 0.557957 59.0713 0.696797 59.0713 0.868802V1.50301C59.0713 2.36728 59.777 3.06987 60.6504 3.06987H60.6776C60.8343 3.06987 60.9637 3.18387 60.9868 3.33723C61.0056 3.45537 61.0203 3.33099 61.0203 3.36002V5.9196C61.0203 6.13929 60.7945 6.27608 60.6127 6.16831C60.0175 5.81807 59.3154 5.57554 58.3692 5.57554C55.737 5.57554 53.809 7.63153 53.3495 10.703C52.9733 7.54446 50.4815 5.57554 47.1268 5.57554C43.7716 5.57554 41.4552 7.82015 41.0981 10.7673V9.86157C41.0981 9.70198 40.9748 9.57352 40.8244 9.57352H35.2323C34.9754 9.57352 34.8605 9.91134 35.059 10.0833L36.3583 11.2066C36.4209 11.2606 36.4585 11.3434 36.4585 11.4284V15.4263C36.4585 16.1289 35.6543 16.4875 35.1739 15.9963C32.0029 12.7424 29.6528 7.63567 29.6528 4.01906C29.6528 1.9735 30.5135 1.02221 31.5976 1.02221C32.3204 1.02221 33.5591 2.19318 34.7769 3.59007C36.3645 5.40768 39.2305 4.67816 39.8363 2.29267L40.0014 1.64185C40.0348 1.51129 39.9763 1.37036 39.8614 1.31026C38.2947 0.491629 36.4962 -0.00164795 34.2485 -0.00164795C29.3395 -0.00164795 26.3711 3.39522 26.039 7.78488C25.8343 7.42427 25.5627 7.10509 25.2389 6.82531C24.5621 6.12063 23.572 5.64187 22.4481 5.64187C19.9352 5.64187 18.216 7.23979 17.4306 9.38281C17.4326 9.28337 17.4368 9.18387 17.4368 9.08024C17.4368 3.78282 14.0569 0.924758 8.24561 0.924758H0.719203C0.568784 0.924758 0.445557 1.05328 0.445557 1.21286V2.1476C0.445557 3.01805 1.15579 3.72477 2.0352 3.72477H2.08953C2.26919 3.72477 2.41332 3.86781 2.41332 4.04605V14.9248C2.41332 15.103 2.26919 15.2461 2.08953 15.2461C1.29159 15.2461 0.646116 15.8886 0.646116 16.6782V17.4699C0.646116 17.5735 0.72549 17.6564 0.823674 17.6564H7.95729C12.5425 17.6564 15.7741 15.76 16.948 12.2761C16.971 13.8388 17.675 15.2149 18.5272 16.1455C18.5272 16.1455 18.5293 16.1434 18.5314 16.1414C19.3336 17.0968 20.6914 17.6543 22.4607 17.6543H25.358C25.7946 17.6543 26.1267 17.2709 26.0683 16.8419C26.0453 16.6761 26.0181 16.5082 25.9826 16.3631L25.6526 14.9994C25.498 14.3569 24.6457 14.2077 24.2781 14.759L22.7344 17.0658C22.6967 17.1217 22.6424 17.1632 22.5797 17.1797C22.4879 17.2046 22.3855 17.215 22.304 17.215C21.3327 17.215 20.846 16.6346 20.846 15.9839C20.846 15.1715 21.199 14.5891 22.5025 13.8699L24.159 12.9414C25.1826 12.3632 25.8761 11.6502 26.2228 10.8067C27.0584 14.8502 30.2524 17.6585 35.0402 17.6585C37.3526 17.6585 39.4123 16.902 40.9894 15.6087C41.0563 15.5549 41.0939 15.4699 41.0939 15.3808V12.3507C41.4782 15.6232 44.196 17.6585 47.1436 17.6585C50.7487 17.6585 52.7711 15.6523 53.2725 12.9372C53.502 16.0087 55.0915 17.6585 57.1721 17.6585C58.3105 17.6585 59.4993 17.0388 60.5603 16.046C60.7379 15.8802 61.0161 16.0108 61.0161 16.2595V17.3704C61.0161 17.53 61.1392 17.6585 61.2896 17.6585H66.3633C66.4492 17.6585 66.5184 17.5921 66.5325 17.5072C66.652 17.6004 66.8002 17.6585 66.9632 17.6585H70.276C72.9936 17.6585 75.3146 16.1704 75.3146 13.7559C75.3146 12.3155 74.5187 11.1528 72.9936 10.2948L72.9957 10.2906ZM7.62727 17.2854H7.54789C7.39748 17.2854 7.27425 17.1569 7.27425 16.9973V1.588C7.27425 1.42841 7.39748 1.29989 7.54789 1.29989H7.82573C10.7209 1.29989 12.3545 4.01906 12.3545 9.10717C12.3545 14.1953 10.4765 17.2854 7.62727 17.2854ZM20.5932 6.80666C21.5436 6.80666 23.2064 8.16829 23.2064 10.8958C23.2064 12.0025 22.5296 12.7466 21.4475 11.8719C20.4553 11.0719 19.6887 9.4056 19.6887 8.17663C19.6887 7.3165 20.0208 6.80666 20.5953 6.80666H20.5932ZM49.6228 16.8212C47.8116 16.8212 43.989 9.82636 43.989 7.55069C43.989 6.82945 44.3212 6.41288 44.8729 6.41288C46.8177 6.41288 50.5297 13.6854 50.5297 15.6377C50.5297 16.4274 50.2206 16.8232 49.6228 16.8232V16.8212ZM61.0224 15.0699C61.0224 15.1901 60.9511 15.2979 60.8448 15.3393C60.6001 15.4367 60.3622 15.4968 60.0945 15.4968C58.6134 15.4968 57.9742 13.9403 57.9742 10.8274C57.9742 7.94657 58.791 6.48335 59.94 6.48335C60.2596 6.48335 60.598 6.56833 60.882 6.7362C60.97 6.78801 61.0245 6.88331 61.0245 6.98904V15.0699H61.0224Z" fill="#6F6F71"/>
</svg>
