<svg width="66" height="23" viewBox="0 0 66 23" fill="none" xmlns="http://www.w3.org/2000/svg">
<path fill-rule="evenodd" clip-rule="evenodd" d="M64.5918 1.68596C64.5918 2.27126 63.991 2.74576 63.2504 2.74576C62.5099 2.74576 61.9091 2.27126 61.9091 1.68596C61.9091 1.10067 62.5099 0.626221 63.2504 0.626221C63.991 0.626221 64.5918 1.10067 64.5918 1.68596ZM64.271 1.68596C64.271 2.06629 63.9237 2.39148 63.4706 2.47283C63.4223 2.48157 63.4051 2.41522 63.4471 2.38912C63.4827 2.36693 63.5166 2.3429 63.5483 2.31679C63.8053 2.10751 63.8898 1.75909 63.9634 1.45564C63.9777 1.39688 63.9915 1.33979 64.0065 1.28574C64.0203 1.23469 64.0795 1.21336 64.1128 1.25464C64.2129 1.3794 64.271 1.52733 64.271 1.68596ZM62.7123 2.21497C62.8255 2.19715 62.8859 2.12298 62.8566 2.03513C62.8284 1.9494 62.7985 1.86397 62.7686 1.77853C62.7514 1.72845 62.7335 1.67831 62.7163 1.62812C62.6933 1.55999 62.6703 1.49186 62.6473 1.42367C62.6295 1.37026 62.6117 1.31679 62.5933 1.26338C62.5823 1.23083 62.5714 1.19829 62.5599 1.16575C62.5501 1.13689 62.5151 1.12631 62.4921 1.14643C62.3288 1.28936 62.2299 1.47852 62.2299 1.68596C62.2299 1.9214 62.3506 2.27195 62.7123 2.21497ZM63.1648 0.882359C63.1245 0.885004 63.0981 0.923756 63.1078 0.96268C63.132 1.05893 63.1579 1.16075 63.1688 1.19668C63.1895 1.26355 63.2102 1.33047 63.2303 1.39745C63.2453 1.44673 63.2602 1.496 63.2757 1.54527C63.3522 1.79106 63.4051 1.44949 63.4344 1.25901C63.4419 1.21456 63.4471 1.17834 63.4517 1.15977C63.4591 1.12654 63.4747 1.04501 63.4885 0.968543C63.4948 0.932609 63.4712 0.897998 63.435 0.892766C63.3752 0.884084 63.3137 0.879542 63.2504 0.879542C63.2217 0.879542 63.1929 0.88052 63.1648 0.882359Z" fill="#6F6F71"/>
<path d="M47.5544 0.735345C46.9495 0.735345 46.4591 1.22543 46.458 1.83033C46.4562 3.15357 46.4522 4.70748 46.4522 4.70748H45.3167C44.7119 4.70748 44.222 5.19779 44.222 5.80258V8.10921C44.222 8.71405 44.7119 9.20431 45.3167 9.20431H46.4419C46.4419 9.20431 46.4447 12.5462 46.4591 14.2231C46.435 15.9249 46.8121 17.7851 48.2374 18.8779C49.5592 19.939 51.2513 19.9453 52.8698 19.9514C53.0583 19.9521 53.2452 19.9528 53.4309 19.9552C53.7954 19.959 54.0858 19.6645 54.0858 19.3003V16.7039C54.0858 16.099 53.5954 15.6086 52.9905 15.6086H52.4874C51.9844 15.6086 51.8027 15.1939 51.8159 14.7268C51.8245 14.0492 51.8193 13.3324 51.8142 12.6068C51.8061 11.4541 51.7975 10.2794 51.8446 9.20431H52.9629C53.5591 9.20431 54.045 8.72802 54.0478 8.13197C54.0519 7.3455 54.0484 6.46285 54.0444 5.79062C54.0404 5.19015 53.5522 4.70748 52.952 4.70748H51.8147V1.83062C51.8147 1.22572 51.3243 0.735345 50.7195 0.735345H47.5544Z" fill="#6F6F71"/>
<path fill-rule="evenodd" clip-rule="evenodd" d="M19.8842 1.93721C15.6338 2.69298 14.0738 7.05401 14.1202 10.86C14.0701 14.3489 15.4006 18.5697 19.1598 19.6379C20.1412 19.9291 21.1429 20.014 22.1673 19.9209C26.7551 19.5813 28.6389 15.3742 28.7262 11.324C28.9282 5.84593 26.1012 0.883106 19.8842 1.93721ZM21.4856 7.02112C17.9115 6.93988 18.083 14.7166 21.4856 14.6387C24.868 14.5613 24.8276 7.09707 21.4856 7.02112Z" fill="#6F6F71"/>
<path d="M0.495827 4.14719C0.291894 3.44547 0.818717 2.74553 1.54953 2.74553H4.66499C5.17974 2.74553 5.62452 3.10412 5.73779 3.60623C6.35016 6.3206 7.04314 8.98485 7.86957 11.6507C8.41778 8.99899 8.93104 6.36419 9.32752 3.69126C9.4079 3.14978 9.87056 2.74553 10.4179 2.74553H13.0412C13.6944 2.74553 14.2031 3.31254 14.1374 3.96246C14.1084 4.24879 14.0796 4.53971 14.0503 4.83448L14.0501 4.83701L14.05 4.83747C13.5393 9.98888 12.9124 16.3121 9.46263 19.8676C7.20154 22.1979 4.00662 22.2103 1.18208 22.1816C0.577181 22.1754 0.0870972 21.6829 0.0870972 21.078V19.0472C0.0870972 18.4423 0.577354 17.9641 1.1822 17.956C2.64929 17.9362 4.27282 17.7109 3.83069 16.012C2.96649 12.6913 1.27367 6.82386 0.495827 4.14719Z" fill="#6F6F71"/>
<path d="M58.7176 15.7363C59.8054 15.7363 60.2182 15.207 60.0532 14.7666C59.9037 14.3684 59.6139 14.2456 59.1861 14.0646C59.1407 14.0454 59.0941 14.0255 59.0453 14.0046C58.5405 13.7865 58.1616 13.6194 57.9092 13.5031C57.6562 13.3723 57.317 13.1687 56.8909 12.8926C56.4804 12.6018 56.1648 12.3038 55.944 11.9986C55.3127 11.17 54.9971 10.1162 54.9971 8.83697C54.9971 7.55783 55.5099 6.48217 56.5356 5.60997C57.5774 4.72329 58.9349 4.27995 60.608 4.27995C61.7446 4.27995 62.7939 4.3962 63.757 4.62877C64.0852 4.70317 64.3848 4.80723 64.636 4.91204C65.1161 5.11218 65.2892 5.6658 65.0937 6.14772L64.3946 7.87043C64.1715 8.42048 63.5511 8.69215 62.9848 8.51472C62.3938 8.32976 61.6854 8.13928 61.2709 8.13928C60.4821 8.13928 60.0871 8.40093 60.0871 8.92419C60.0871 9.24398 60.3791 9.52748 60.9633 9.7746C61.0898 9.83272 61.2709 9.91264 61.5078 10.0144C61.7446 10.1162 62.0131 10.2397 62.3127 10.3851C62.6283 10.5159 62.9601 10.6904 63.3073 10.9084C63.6701 11.1119 64.0571 11.3881 64.467 11.7369C65.3036 12.4637 65.7221 13.4231 65.7221 14.6151C65.7221 16.1705 65.2564 17.4424 64.325 18.4308C63.3942 19.4193 61.9574 19.928 60.0164 19.9571H56.0918C55.4869 19.9571 54.9965 19.4668 54.9965 18.8619V16.8747C54.9965 16.2817 55.4685 15.7964 56.0613 15.782C56.9185 15.7613 58.0817 15.7363 58.7176 15.7363Z" fill="#6F6F71"/>
<path fill-rule="evenodd" clip-rule="evenodd" d="M29.3243 10.86C29.2779 7.05401 30.8379 2.69298 35.0883 1.93721C41.3053 0.883106 44.1323 5.84593 43.9305 11.324C43.8431 15.3742 41.959 19.5813 37.3715 19.9209C36.3471 20.014 35.3453 19.9291 34.364 19.6379C30.6048 18.5697 29.2743 14.3489 29.3243 10.86ZM36.7293 7.02112C33.185 6.93896 33.3552 14.8054 36.7293 14.7266C40.0835 14.6482 40.0433 7.09793 36.7293 7.02112Z" fill="#6F6F71"/>
</svg>
