<svg width="118" height="26" viewBox="0 0 118 26" fill="none" xmlns="http://www.w3.org/2000/svg">
<path d="M36.4576 18.8368V11.3101H34.0915V8.96262H36.4576V7.95658C36.4576 6.22394 37.6685 5.16201 39.6993 5.16201H42.2889V7.52808H40.0346C39.4943 7.52808 39.2149 7.7889 39.2149 8.29192V8.96262H42.9037V11.3101H39.2149V18.8368H36.4576ZM43.7495 14.6076V8.96262H46.5068V14.1978C46.5068 15.7627 47.3638 16.6197 48.9288 16.6197C50.4378 16.6197 51.4998 15.6137 51.4998 14.1978V8.96262H54.2571V18.8368H51.5929V17.9052H51.5557C50.7173 18.7063 49.5995 19.1162 48.2208 19.1162C45.4076 19.1162 43.7495 17.4581 43.7495 14.6076ZM56.1256 18.8368V8.96262H58.7898V9.89414H58.827C59.6468 9.13029 60.8391 8.68316 62.1619 8.68316C64.9564 8.68316 66.894 10.5276 66.894 13.2104V18.8368H64.1367V13.5643C64.1367 12.0553 63.1493 11.1424 61.5657 11.1424C59.9821 11.1424 58.8829 12.1298 58.8829 13.5643V18.8368H56.1256ZM68.6429 18.8368V5.23653H71.4002V12.9309H71.4375L75.8902 8.96262H79.7467L75.1077 12.9868L79.933 18.8368H76.5609L73.2633 14.6635H73.226L71.4002 16.2099V18.8368H68.6429ZM82.3366 23.0286L84.684 18.2965L80.1196 8.96262H83.1563L86.1558 15.4088H86.1931L89.1553 8.96262H92.2107L85.3734 23.0286H82.3366ZM95.7396 17.868H95.7024V18.8368H93.15V5.23653H95.9073V9.7451H95.9445C96.7084 9.05577 97.8262 8.68316 99.149 8.68316C102.148 8.68316 104.421 10.9374 104.421 13.8997C104.477 16.9178 102.148 19.1721 99.0745 19.1162C97.6399 19.1162 96.4848 18.6877 95.7396 17.868ZM101.664 13.8997C101.664 12.2416 100.453 11.1051 98.7205 11.1051C97.2114 11.1051 95.9073 12.0739 95.9073 13.2476V14.4959C95.9073 15.7068 97.1555 16.6756 98.7205 16.6756C100.509 16.6756 101.664 15.5951 101.664 13.8997ZM105.867 18.8368V8.96262H108.624V18.8368H105.867ZM105.811 7.34177V4.58447H108.662V7.34177H105.811ZM117.922 11.3101H114.736V15.4833C114.736 16.0981 114.941 16.2844 115.742 16.2844H117.549V18.8368H115.463C112.985 18.8368 111.979 17.868 111.979 15.6509V11.3101H109.65V8.96262H111.979V6.48477H114.736V8.96262H117.922V11.3101Z" fill="#6F6F71"/>
<path fill-rule="evenodd" clip-rule="evenodd" d="M10.3563 12.8284C10.3563 11.481 11.4588 10.3785 12.8062 10.3785C14.1537 10.3785 15.2561 11.481 15.2561 12.8284C15.2561 14.1759 14.1537 15.2783 12.8062 15.2783C11.4588 15.2783 10.3563 14.1759 10.3563 12.8284ZM11.5813 12.8284C11.5813 13.5634 12.0712 14.0534 12.8062 14.0534C13.5412 14.0534 14.0312 13.5634 14.0312 12.8284C14.0312 12.0935 13.5412 11.6035 12.8062 11.6035C12.0712 11.6035 11.5813 12.0935 11.5813 12.8284Z" fill="#6F6F71"/>
<path fill-rule="evenodd" clip-rule="evenodd" d="M0.556702 12.8284C0.556702 6.0912 6.06898 0.578918 12.8062 0.578918C19.5434 0.578918 25.0557 6.0912 25.0557 12.8284C25.0557 13.4131 25.0142 13.9884 24.934 14.5517H21.6091V16.6942H19.4666V23.0956C17.5463 24.3484 15.2573 25.0779 12.8062 25.0779C6.06898 25.0779 0.556702 19.5657 0.556702 12.8284ZM7.90641 12.8284C7.90641 15.5233 10.1113 17.7282 12.8062 17.7282C15.5011 17.7282 17.706 15.5233 17.706 12.8284C17.706 10.1335 15.5011 7.92863 12.8062 7.92863C10.1113 7.92863 7.90641 10.1335 7.90641 12.8284ZM20.6776 13.7134H18.5351V15.8559H20.6776V13.7134ZM16.3926 18.7436H18.5351V20.8861H16.3926V18.7436Z" fill="#6F6F71"/>
<path d="M20.4913 17.8121H22.6338V19.9546H20.4913V17.8121Z" fill="#6F6F71"/>
<path d="M23.5653 15.3901H25.8009V17.6258H23.5653V15.3901Z" fill="#6F6F71"/>
<path d="M26.7325 17.6258H28.875V19.7683H26.7325V17.6258Z" fill="#6F6F71"/>
<path d="M23.5653 19.6751H25.8009V21.8176H23.5653V19.6751Z" fill="#6F6F71"/>
<path d="M20.4913 21.445H22.6338V23.5875H20.4913V21.445Z" fill="#6F6F71"/>
<path d="M14.4364 12.9216C14.4364 13.8219 13.7065 14.5518 12.8062 14.5518C11.9059 14.5518 11.1761 13.8219 11.1761 12.9216C11.1761 12.0213 11.9059 11.2914 12.8062 11.2914C13.7065 11.2914 14.4364 12.0213 14.4364 12.9216Z" fill="#6F6F71"/>
</svg>
