<svg width="14" height="15" viewBox="0 0 14 15" fill="none" xmlns="http://www.w3.org/2000/svg">
<path d="M6.93839 0.369629C3.12228 0.369629 0 3.49191 0 7.30802C0 11.1241 3.12228 14.2464 6.93839 14.2464C10.7545 14.2464 13.8768 11.1241 13.8768 7.30802C13.8768 3.49191 10.7545 0.369629 6.93839 0.369629ZM9.85252 6.1285L6.52209 9.45893C6.24455 9.73646 5.82825 9.73646 5.55072 9.45893L4.02427 7.93248C3.74673 7.65494 3.74673 7.23864 4.02427 6.9611C4.3018 6.68357 4.71811 6.68357 4.99564 6.9611L6.0364 8.00186L8.88114 5.15712C9.15868 4.87958 9.57498 4.87958 9.85252 5.15712C10.1301 5.43466 10.1301 5.85096 9.85252 6.1285Z" fill="black"/>
<g clip-path="url(#paint0_diamond_1_104_clip_path)" data-figma-skip-parse="true"><g transform="matrix(0 0.0130831 -0.0130831 0 6.93839 1.16333)"><rect x="0" y="0" width="1076.43" height="606.768" fill="url(#paint0_diamond_1_104)" opacity="1" shape-rendering="crispEdges"/><rect x="0" y="0" width="1076.43" height="606.768" transform="scale(1 -1)" fill="url(#paint0_diamond_1_104)" opacity="1" shape-rendering="crispEdges"/><rect x="0" y="0" width="1076.43" height="606.768" transform="scale(-1 1)" fill="url(#paint0_diamond_1_104)" opacity="1" shape-rendering="crispEdges"/><rect x="0" y="0" width="1076.43" height="606.768" transform="scale(-1)" fill="url(#paint0_diamond_1_104)" opacity="1" shape-rendering="crispEdges"/></g></g><path d="M6.93839 0.369629C3.12228 0.369629 0 3.49191 0 7.30802C0 11.1241 3.12228 14.2464 6.93839 14.2464C10.7545 14.2464 13.8768 11.1241 13.8768 7.30802C13.8768 3.49191 10.7545 0.369629 6.93839 0.369629ZM9.85252 6.1285L6.52209 9.45893C6.24455 9.73646 5.82825 9.73646 5.55072 9.45893L4.02427 7.93248C3.74673 7.65494 3.74673 7.23864 4.02427 6.9611C4.3018 6.68357 4.71811 6.68357 4.99564 6.9611L6.0364 8.00186L8.88114 5.15712C9.15868 4.87958 9.57498 4.87958 9.85252 5.15712C10.1301 5.43466 10.1301 5.85096 9.85252 6.1285Z" data-figma-gradient-fill="{&#34;type&#34;:&#34;GRADIENT_DIAMOND&#34;,&#34;stops&#34;:[{&#34;color&#34;:{&#34;r&#34;:0.68235296010971069,&#34;g&#34;:0.73333334922790527,&#34;b&#34;:1.0,&#34;a&#34;:1.0},&#34;position&#34;:0.0},{&#34;color&#34;:{&#34;r&#34;:0.85490196943283081,&#34;g&#34;:0.58039218187332153,&#34;b&#34;:0.93725490570068359,&#34;a&#34;:1.0},&#34;position&#34;:0.37019231915473938},{&#34;color&#34;:{&#34;r&#34;:0.82745099067687988,&#34;g&#34;:0.65490198135375977,&#34;b&#34;:0.81568628549575806,&#34;a&#34;:1.0},&#34;position&#34;:0.750},{&#34;color&#34;:{&#34;r&#34;:0.49803921580314636,&#34;g&#34;:0.49803921580314636,&#34;b&#34;:0.99607843160629272,&#34;a&#34;:1.0},&#34;position&#34;:1.0}],&#34;stopsVar&#34;:[{&#34;color&#34;:{&#34;r&#34;:0.68235296010971069,&#34;g&#34;:0.73333334922790527,&#34;b&#34;:1.0,&#34;a&#34;:1.0},&#34;position&#34;:0.0},{&#34;color&#34;:{&#34;r&#34;:0.85490196943283081,&#34;g&#34;:0.58039218187332153,&#34;b&#34;:0.93725490570068359,&#34;a&#34;:1.0},&#34;position&#34;:0.37019231915473938},{&#34;color&#34;:{&#34;r&#34;:0.82745099067687988,&#34;g&#34;:0.65490198135375977,&#34;b&#34;:0.81568628549575806,&#34;a&#34;:1.0},&#34;position&#34;:0.750},{&#34;color&#34;:{&#34;r&#34;:0.49803921580314636,&#34;g&#34;:0.49803921580314636,&#34;b&#34;:0.99607843160629272,&#34;a&#34;:1.0},&#34;position&#34;:1.0}],&#34;transform&#34;:{&#34;m00&#34;:-3.9994876442801808e-14,&#34;m01&#34;:-26.166170120239258,&#34;m02&#34;:20.021478652954102,&#34;m10&#34;:26.166170120239258,&#34;m11&#34;:1.6022158651698309e-15,&#34;m12&#34;:-11.919752120971680},&#34;opacity&#34;:1.0,&#34;blendMode&#34;:&#34;NORMAL&#34;,&#34;visible&#34;:true}"/>
<defs>
<clipPath id="paint0_diamond_1_104_clip_path"><path d="M6.93839 0.369629C3.12228 0.369629 0 3.49191 0 7.30802C0 11.1241 3.12228 14.2464 6.93839 14.2464C10.7545 14.2464 13.8768 11.1241 13.8768 7.30802C13.8768 3.49191 10.7545 0.369629 6.93839 0.369629ZM9.85252 6.1285L6.52209 9.45893C6.24455 9.73646 5.82825 9.73646 5.55072 9.45893L4.02427 7.93248C3.74673 7.65494 3.74673 7.23864 4.02427 6.9611C4.3018 6.68357 4.71811 6.68357 4.99564 6.9611L6.0364 8.00186L8.88114 5.15712C9.15868 4.87958 9.57498 4.87958 9.85252 5.15712C10.1301 5.43466 10.1301 5.85096 9.85252 6.1285Z"/></clipPath><linearGradient id="paint0_diamond_1_104" x1="0" y1="0" x2="500" y2="500" gradientUnits="userSpaceOnUse">
<stop stop-color="#AEBBFF"/>
<stop offset="0.370192" stop-color="#DA94EF"/>
<stop offset="0.75" stop-color="#D3A7D0"/>
<stop offset="1" stop-color="#7F7FFE"/>
</linearGradient>
</defs>
</svg>
