<svg width="65" height="65" viewBox="0 0 65 65" fill="none" xmlns="http://www.w3.org/2000/svg">
<mask id="path-1-outside-1_1_114" maskUnits="userSpaceOnUse" x="0.241211" y="0.169434" width="64" height="64" fill="black">
<rect fill="white" x="0.241211" y="0.169434" width="64" height="64"/>
<path d="M2.24121 12.1694C2.24121 6.64659 6.71836 2.16943 12.2412 2.16943H52.2412C57.7641 2.16943 62.2412 6.64659 62.2412 12.1694V52.1694C62.2412 57.6923 57.7641 62.1694 52.2412 62.1694H12.2412C6.71836 62.1694 2.24121 57.6923 2.24121 52.1694V12.1694Z"/>
</mask>
<path d="M2.24121 12.1694C2.24121 6.64659 6.71836 2.16943 12.2412 2.16943H52.2412C57.7641 2.16943 62.2412 6.64659 62.2412 12.1694V52.1694C62.2412 57.6923 57.7641 62.1694 52.2412 62.1694H12.2412C6.71836 62.1694 2.24121 57.6923 2.24121 52.1694V12.1694Z" fill="white"/>
<path d="M12.2412 2.16943V4.16943H52.2412V2.16943V0.169434H12.2412V2.16943ZM62.2412 12.1694H60.2412V52.1694H62.2412H64.2412V12.1694H62.2412ZM52.2412 62.1694V60.1694H12.2412V62.1694V64.1694H52.2412V62.1694ZM2.24121 52.1694H4.24121V12.1694H2.24121H0.241211V52.1694H2.24121ZM12.2412 62.1694V60.1694C7.82293 60.1694 4.24121 56.5877 4.24121 52.1694H2.24121H0.241211C0.241211 58.7969 5.6138 64.1694 12.2412 64.1694V62.1694ZM62.2412 52.1694H60.2412C60.2412 56.5877 56.6595 60.1694 52.2412 60.1694V62.1694V64.1694C58.8686 64.1694 64.2412 58.7968 64.2412 52.1694H62.2412ZM52.2412 2.16943V4.16943C56.6595 4.16943 60.2412 7.75116 60.2412 12.1694H62.2412H64.2412C64.2412 5.54202 58.8686 0.169434 52.2412 0.169434V2.16943ZM12.2412 2.16943V0.169434C5.61379 0.169434 0.241211 5.54202 0.241211 12.1694H2.24121H4.24121C4.24121 7.75116 7.82293 4.16943 12.2412 4.16943V2.16943Z" fill="black" mask="url(#path-1-outside-1_1_114)"/>
<g clip-path="url(#paint0_diamond_1_114_clip_path)" data-figma-skip-parse="true" mask="url(#path-1-outside-1_1_114)"><g transform="matrix(0 0.0565682 -0.0565682 0 32.2412 5.60123)"><rect x="0" y="0" width="1035.36" height="565.689" fill="url(#paint0_diamond_1_114)" opacity="1" shape-rendering="crispEdges"/><rect x="0" y="0" width="1035.36" height="565.689" transform="scale(1 -1)" fill="url(#paint0_diamond_1_114)" opacity="1" shape-rendering="crispEdges"/><rect x="0" y="0" width="1035.36" height="565.689" transform="scale(-1 1)" fill="url(#paint0_diamond_1_114)" opacity="1" shape-rendering="crispEdges"/><rect x="0" y="0" width="1035.36" height="565.689" transform="scale(-1)" fill="url(#paint0_diamond_1_114)" opacity="1" shape-rendering="crispEdges"/></g></g><path d="M12.2412 2.16943V4.16943H52.2412V2.16943V0.169434H12.2412V2.16943ZM62.2412 12.1694H60.2412V52.1694H62.2412H64.2412V12.1694H62.2412ZM52.2412 62.1694V60.1694H12.2412V62.1694V64.1694H52.2412V62.1694ZM2.24121 52.1694H4.24121V12.1694H2.24121H0.241211V52.1694H2.24121ZM12.2412 62.1694V60.1694C7.82293 60.1694 4.24121 56.5877 4.24121 52.1694H2.24121H0.241211C0.241211 58.7969 5.6138 64.1694 12.2412 64.1694V62.1694ZM62.2412 52.1694H60.2412C60.2412 56.5877 56.6595 60.1694 52.2412 60.1694V62.1694V64.1694C58.8686 64.1694 64.2412 58.7968 64.2412 52.1694H62.2412ZM52.2412 2.16943V4.16943C56.6595 4.16943 60.2412 7.75116 60.2412 12.1694H62.2412H64.2412C64.2412 5.54202 58.8686 0.169434 52.2412 0.169434V2.16943ZM12.2412 2.16943V0.169434C5.61379 0.169434 0.241211 5.54202 0.241211 12.1694H2.24121H4.24121C4.24121 7.75116 7.82293 4.16943 12.2412 4.16943V2.16943Z" data-figma-gradient-fill="{&#34;type&#34;:&#34;GRADIENT_DIAMOND&#34;,&#34;stops&#34;:[{&#34;color&#34;:{&#34;r&#34;:0.68235296010971069,&#34;g&#34;:0.73333334922790527,&#34;b&#34;:1.0,&#34;a&#34;:1.0},&#34;position&#34;:0.0},{&#34;color&#34;:{&#34;r&#34;:0.85490196943283081,&#34;g&#34;:0.58039218187332153,&#34;b&#34;:0.93725490570068359,&#34;a&#34;:1.0},&#34;position&#34;:0.37019231915473938},{&#34;color&#34;:{&#34;r&#34;:0.82745099067687988,&#34;g&#34;:0.65490198135375977,&#34;b&#34;:0.81568628549575806,&#34;a&#34;:1.0},&#34;position&#34;:0.750},{&#34;color&#34;:{&#34;r&#34;:0.49803921580314636,&#34;g&#34;:0.49803921580314636,&#34;b&#34;:0.99607843160629272,&#34;a&#34;:1.0},&#34;position&#34;:1.0}],&#34;stopsVar&#34;:[{&#34;color&#34;:{&#34;r&#34;:0.68235296010971069,&#34;g&#34;:0.73333334922790527,&#34;b&#34;:1.0,&#34;a&#34;:1.0},&#34;position&#34;:0.0},{&#34;color&#34;:{&#34;r&#34;:0.85490196943283081,&#34;g&#34;:0.58039218187332153,&#34;b&#34;:0.93725490570068359,&#34;a&#34;:1.0},&#34;position&#34;:0.37019231915473938},{&#34;color&#34;:{&#34;r&#34;:0.82745099067687988,&#34;g&#34;:0.65490198135375977,&#34;b&#34;:0.81568628549575806,&#34;a&#34;:1.0},&#34;position&#34;:0.750},{&#34;color&#34;:{&#34;r&#34;:0.49803921580314636,&#34;g&#34;:0.49803921580314636,&#34;b&#34;:0.99607843160629272,&#34;a&#34;:1.0},&#34;position&#34;:1.0}],&#34;transform&#34;:{&#34;m00&#34;:-1.7292851178796198e-13,&#34;m01&#34;:-113.13641357421875,&#34;m02&#34;:88.809417724609375,&#34;m10&#34;:113.13641357421875,&#34;m11&#34;:6.9276080369180121e-15,&#34;m12&#34;:-50.966983795166016},&#34;opacity&#34;:1.0,&#34;blendMode&#34;:&#34;NORMAL&#34;,&#34;visible&#34;:true}" mask="url(#path-1-outside-1_1_114)"/>
<path d="M22.1612 52.1554C20.0732 52.1554 18.2372 51.2734 16.6532 49.5094C15.0692 47.7454 13.8452 45.3514 12.9812 42.3274C12.1172 39.3034 11.6852 35.9194 11.6852 32.1754C11.6852 28.4314 12.1172 25.0654 12.9812 22.0774C13.8452 19.0534 15.0692 16.6594 16.6532 14.8954C18.2372 13.1314 20.0732 12.2494 22.1612 12.2494C24.2492 12.2494 26.0672 13.1314 27.6152 14.8954C29.1992 16.6594 30.4232 19.0534 31.2872 22.0774C32.1872 25.0654 32.6372 28.4314 32.6372 32.1754C32.6372 35.9194 32.1872 39.3034 31.2872 42.3274C30.4232 45.3514 29.1992 47.7454 27.6152 49.5094C26.0672 51.2734 24.2492 52.1554 22.1612 52.1554ZM22.1612 50.6974C24.4292 50.6974 26.0852 49.1674 27.1292 46.1074C28.2092 43.0474 28.7492 38.4034 28.7492 32.1754C28.7492 25.9474 28.2092 21.3214 27.1292 18.2974C26.0852 15.2374 24.4292 13.7074 22.1612 13.7074C19.8932 13.7074 18.2192 15.2374 17.1392 18.2974C16.0952 21.3214 15.5732 25.9474 15.5732 32.1754C15.5732 38.4034 16.0952 43.0474 17.1392 46.1074C18.2192 49.1674 19.8932 50.6974 22.1612 50.6974ZM34.1547 51.6694C33.5067 51.6694 33.1827 51.4354 33.1827 50.9674C33.1827 50.7154 33.3087 50.3914 33.5607 49.9954L40.0407 40.1134C42.7407 36.0094 44.6847 32.4814 45.8727 29.5294C47.0967 26.5414 47.7087 23.8054 47.7087 21.3214C47.7087 19.0894 47.2407 17.3794 46.3047 16.1914C45.4047 15.0034 44.0907 14.4094 42.3627 14.4094C40.6347 14.4094 39.0687 15.0214 37.6647 16.2454C36.2607 17.4334 35.3607 19.3414 34.9647 21.9694C34.8567 22.5454 34.5867 22.8334 34.1547 22.8334C33.6147 22.8334 33.3807 22.4734 33.4527 21.7534C33.7047 19.3774 34.3167 17.5054 35.2887 16.1374C36.2967 14.7334 37.5027 13.7434 38.9067 13.1674C40.3107 12.5554 41.7327 12.2494 43.1727 12.2494C45.6567 12.2494 47.6727 13.0054 49.2207 14.5174C50.8047 15.9934 51.5967 18.0634 51.5967 20.7274C51.5967 22.5994 51.1467 24.5254 50.2467 26.5054C49.3827 28.4494 48.1767 30.5914 46.6287 32.9314C45.1167 35.2354 43.3707 37.8814 41.3907 40.8694L37.1787 47.2414C36.9627 47.5654 36.9447 47.8534 37.1247 48.1054C37.3407 48.3214 37.6287 48.4294 37.9887 48.4294H43.7667C45.1347 48.4294 46.2687 48.2854 47.1687 47.9974C48.0687 47.6734 48.7887 47.0974 49.3287 46.2694C49.8687 45.4054 50.2827 44.1814 50.5707 42.5974L51.0567 40.0594C51.1647 39.5914 51.4347 39.3574 51.8667 39.3574C52.3707 39.3574 52.5867 39.6634 52.5147 40.2754L51.8667 50.4274C51.7947 51.2554 51.3447 51.6694 50.5167 51.6694H34.1547Z" fill="black"/>
<path d="M22.1612 52.1554C20.0732 52.1554 18.2372 51.2734 16.6532 49.5094C15.0692 47.7454 13.8452 45.3514 12.9812 42.3274C12.1172 39.3034 11.6852 35.9194 11.6852 32.1754C11.6852 28.4314 12.1172 25.0654 12.9812 22.0774C13.8452 19.0534 15.0692 16.6594 16.6532 14.8954C18.2372 13.1314 20.0732 12.2494 22.1612 12.2494C24.2492 12.2494 26.0672 13.1314 27.6152 14.8954C29.1992 16.6594 30.4232 19.0534 31.2872 22.0774C32.1872 25.0654 32.6372 28.4314 32.6372 32.1754C32.6372 35.9194 32.1872 39.3034 31.2872 42.3274C30.4232 45.3514 29.1992 47.7454 27.6152 49.5094C26.0672 51.2734 24.2492 52.1554 22.1612 52.1554ZM22.1612 50.6974C24.4292 50.6974 26.0852 49.1674 27.1292 46.1074C28.2092 43.0474 28.7492 38.4034 28.7492 32.1754C28.7492 25.9474 28.2092 21.3214 27.1292 18.2974C26.0852 15.2374 24.4292 13.7074 22.1612 13.7074C19.8932 13.7074 18.2192 15.2374 17.1392 18.2974C16.0952 21.3214 15.5732 25.9474 15.5732 32.1754C15.5732 38.4034 16.0952 43.0474 17.1392 46.1074C18.2192 49.1674 19.8932 50.6974 22.1612 50.6974ZM34.1547 51.6694C33.5067 51.6694 33.1827 51.4354 33.1827 50.9674C33.1827 50.7154 33.3087 50.3914 33.5607 49.9954L40.0407 40.1134C42.7407 36.0094 44.6847 32.4814 45.8727 29.5294C47.0967 26.5414 47.7087 23.8054 47.7087 21.3214C47.7087 19.0894 47.2407 17.3794 46.3047 16.1914C45.4047 15.0034 44.0907 14.4094 42.3627 14.4094C40.6347 14.4094 39.0687 15.0214 37.6647 16.2454C36.2607 17.4334 35.3607 19.3414 34.9647 21.9694C34.8567 22.5454 34.5867 22.8334 34.1547 22.8334C33.6147 22.8334 33.3807 22.4734 33.4527 21.7534C33.7047 19.3774 34.3167 17.5054 35.2887 16.1374C36.2967 14.7334 37.5027 13.7434 38.9067 13.1674C40.3107 12.5554 41.7327 12.2494 43.1727 12.2494C45.6567 12.2494 47.6727 13.0054 49.2207 14.5174C50.8047 15.9934 51.5967 18.0634 51.5967 20.7274C51.5967 22.5994 51.1467 24.5254 50.2467 26.5054C49.3827 28.4494 48.1767 30.5914 46.6287 32.9314C45.1167 35.2354 43.3707 37.8814 41.3907 40.8694L37.1787 47.2414C36.9627 47.5654 36.9447 47.8534 37.1247 48.1054C37.3407 48.3214 37.6287 48.4294 37.9887 48.4294H43.7667C45.1347 48.4294 46.2687 48.2854 47.1687 47.9974C48.0687 47.6734 48.7887 47.0974 49.3287 46.2694C49.8687 45.4054 50.2827 44.1814 50.5707 42.5974L51.0567 40.0594C51.1647 39.5914 51.4347 39.3574 51.8667 39.3574C52.3707 39.3574 52.5867 39.6634 52.5147 40.2754L51.8667 50.4274C51.7947 51.2554 51.3447 51.6694 50.5167 51.6694H34.1547Z" fill="#F8F8FB"/>
<g clip-path="url(#paint1_diamond_1_114_clip_path)" data-figma-skip-parse="true"><g transform="matrix(0 0.0367693 -0.0424262 0 32.2412 14.9001)"><rect x="0" y="0" width="1013.6" height="542.118" fill="url(#paint1_diamond_1_114)" opacity="1" shape-rendering="crispEdges"/><rect x="0" y="0" width="1013.6" height="542.118" transform="scale(1 -1)" fill="url(#paint1_diamond_1_114)" opacity="1" shape-rendering="crispEdges"/><rect x="0" y="0" width="1013.6" height="542.118" transform="scale(-1 1)" fill="url(#paint1_diamond_1_114)" opacity="1" shape-rendering="crispEdges"/><rect x="0" y="0" width="1013.6" height="542.118" transform="scale(-1)" fill="url(#paint1_diamond_1_114)" opacity="1" shape-rendering="crispEdges"/></g></g><path d="M22.1612 52.1554C20.0732 52.1554 18.2372 51.2734 16.6532 49.5094C15.0692 47.7454 13.8452 45.3514 12.9812 42.3274C12.1172 39.3034 11.6852 35.9194 11.6852 32.1754C11.6852 28.4314 12.1172 25.0654 12.9812 22.0774C13.8452 19.0534 15.0692 16.6594 16.6532 14.8954C18.2372 13.1314 20.0732 12.2494 22.1612 12.2494C24.2492 12.2494 26.0672 13.1314 27.6152 14.8954C29.1992 16.6594 30.4232 19.0534 31.2872 22.0774C32.1872 25.0654 32.6372 28.4314 32.6372 32.1754C32.6372 35.9194 32.1872 39.3034 31.2872 42.3274C30.4232 45.3514 29.1992 47.7454 27.6152 49.5094C26.0672 51.2734 24.2492 52.1554 22.1612 52.1554ZM22.1612 50.6974C24.4292 50.6974 26.0852 49.1674 27.1292 46.1074C28.2092 43.0474 28.7492 38.4034 28.7492 32.1754C28.7492 25.9474 28.2092 21.3214 27.1292 18.2974C26.0852 15.2374 24.4292 13.7074 22.1612 13.7074C19.8932 13.7074 18.2192 15.2374 17.1392 18.2974C16.0952 21.3214 15.5732 25.9474 15.5732 32.1754C15.5732 38.4034 16.0952 43.0474 17.1392 46.1074C18.2192 49.1674 19.8932 50.6974 22.1612 50.6974ZM34.1547 51.6694C33.5067 51.6694 33.1827 51.4354 33.1827 50.9674C33.1827 50.7154 33.3087 50.3914 33.5607 49.9954L40.0407 40.1134C42.7407 36.0094 44.6847 32.4814 45.8727 29.5294C47.0967 26.5414 47.7087 23.8054 47.7087 21.3214C47.7087 19.0894 47.2407 17.3794 46.3047 16.1914C45.4047 15.0034 44.0907 14.4094 42.3627 14.4094C40.6347 14.4094 39.0687 15.0214 37.6647 16.2454C36.2607 17.4334 35.3607 19.3414 34.9647 21.9694C34.8567 22.5454 34.5867 22.8334 34.1547 22.8334C33.6147 22.8334 33.3807 22.4734 33.4527 21.7534C33.7047 19.3774 34.3167 17.5054 35.2887 16.1374C36.2967 14.7334 37.5027 13.7434 38.9067 13.1674C40.3107 12.5554 41.7327 12.2494 43.1727 12.2494C45.6567 12.2494 47.6727 13.0054 49.2207 14.5174C50.8047 15.9934 51.5967 18.0634 51.5967 20.7274C51.5967 22.5994 51.1467 24.5254 50.2467 26.5054C49.3827 28.4494 48.1767 30.5914 46.6287 32.9314C45.1167 35.2354 43.3707 37.8814 41.3907 40.8694L37.1787 47.2414C36.9627 47.5654 36.9447 47.8534 37.1247 48.1054C37.3407 48.3214 37.6287 48.4294 37.9887 48.4294H43.7667C45.1347 48.4294 46.2687 48.2854 47.1687 47.9974C48.0687 47.6734 48.7887 47.0974 49.3287 46.2694C49.8687 45.4054 50.2827 44.1814 50.5707 42.5974L51.0567 40.0594C51.1647 39.5914 51.4347 39.3574 51.8667 39.3574C52.3707 39.3574 52.5867 39.6634 52.5147 40.2754L51.8667 50.4274C51.7947 51.2554 51.3447 51.6694 50.5167 51.6694H34.1547Z" data-figma-gradient-fill="{&#34;type&#34;:&#34;GRADIENT_DIAMOND&#34;,&#34;stops&#34;:[{&#34;color&#34;:{&#34;r&#34;:0.68235296010971069,&#34;g&#34;:0.73333334922790527,&#34;b&#34;:1.0,&#34;a&#34;:1.0},&#34;position&#34;:0.0},{&#34;color&#34;:{&#34;r&#34;:0.85490196943283081,&#34;g&#34;:0.58039218187332153,&#34;b&#34;:0.93725490570068359,&#34;a&#34;:1.0},&#34;position&#34;:0.37019231915473938},{&#34;color&#34;:{&#34;r&#34;:0.82745099067687988,&#34;g&#34;:0.65490198135375977,&#34;b&#34;:0.81568628549575806,&#34;a&#34;:1.0},&#34;position&#34;:0.750},{&#34;color&#34;:{&#34;r&#34;:0.49803921580314636,&#34;g&#34;:0.49803921580314636,&#34;b&#34;:0.99607843160629272,&#34;a&#34;:1.0},&#34;position&#34;:1.0}],&#34;stopsVar&#34;:[{&#34;color&#34;:{&#34;r&#34;:0.68235296010971069,&#34;g&#34;:0.73333334922790527,&#34;b&#34;:1.0,&#34;a&#34;:1.0},&#34;position&#34;:0.0},{&#34;color&#34;:{&#34;r&#34;:0.85490196943283081,&#34;g&#34;:0.58039218187332153,&#34;b&#34;:0.93725490570068359,&#34;a&#34;:1.0},&#34;position&#34;:0.37019231915473938},{&#34;color&#34;:{&#34;r&#34;:0.82745099067687988,&#34;g&#34;:0.65490198135375977,&#34;b&#34;:0.81568628549575806,&#34;a&#34;:1.0},&#34;position&#34;:0.750},{&#34;color&#34;:{&#34;r&#34;:0.49803921580314636,&#34;g&#34;:0.49803921580314636,&#34;b&#34;:0.99607843160629272,&#34;a&#34;:1.0},&#34;position&#34;:1.0}],&#34;transform&#34;:{&#34;m00&#34;:-1.2969638384097149e-13,&#34;m01&#34;:-84.852310180664062,&#34;m02&#34;:74.667366027832031,&#34;m10&#34;:73.538673400878906,&#34;m11&#34;:4.5029453087000026e-15,&#34;m12&#34;:-21.869235992431641},&#34;opacity&#34;:1.0,&#34;blendMode&#34;:&#34;NORMAL&#34;,&#34;visible&#34;:true}"/>
<defs>
<clipPath id="paint0_diamond_1_114_clip_path"><path d="M12.2412 2.16943V4.16943H52.2412V2.16943V0.169434H12.2412V2.16943ZM62.2412 12.1694H60.2412V52.1694H62.2412H64.2412V12.1694H62.2412ZM52.2412 62.1694V60.1694H12.2412V62.1694V64.1694H52.2412V62.1694ZM2.24121 52.1694H4.24121V12.1694H2.24121H0.241211V52.1694H2.24121ZM12.2412 62.1694V60.1694C7.82293 60.1694 4.24121 56.5877 4.24121 52.1694H2.24121H0.241211C0.241211 58.7969 5.6138 64.1694 12.2412 64.1694V62.1694ZM62.2412 52.1694H60.2412C60.2412 56.5877 56.6595 60.1694 52.2412 60.1694V62.1694V64.1694C58.8686 64.1694 64.2412 58.7968 64.2412 52.1694H62.2412ZM52.2412 2.16943V4.16943C56.6595 4.16943 60.2412 7.75116 60.2412 12.1694H62.2412H64.2412C64.2412 5.54202 58.8686 0.169434 52.2412 0.169434V2.16943ZM12.2412 2.16943V0.169434C5.61379 0.169434 0.241211 5.54202 0.241211 12.1694H2.24121H4.24121C4.24121 7.75116 7.82293 4.16943 12.2412 4.16943V2.16943Z" mask="url(#path-1-outside-1_1_114)"/></clipPath><clipPath id="paint1_diamond_1_114_clip_path"><path d="M22.1612 52.1554C20.0732 52.1554 18.2372 51.2734 16.6532 49.5094C15.0692 47.7454 13.8452 45.3514 12.9812 42.3274C12.1172 39.3034 11.6852 35.9194 11.6852 32.1754C11.6852 28.4314 12.1172 25.0654 12.9812 22.0774C13.8452 19.0534 15.0692 16.6594 16.6532 14.8954C18.2372 13.1314 20.0732 12.2494 22.1612 12.2494C24.2492 12.2494 26.0672 13.1314 27.6152 14.8954C29.1992 16.6594 30.4232 19.0534 31.2872 22.0774C32.1872 25.0654 32.6372 28.4314 32.6372 32.1754C32.6372 35.9194 32.1872 39.3034 31.2872 42.3274C30.4232 45.3514 29.1992 47.7454 27.6152 49.5094C26.0672 51.2734 24.2492 52.1554 22.1612 52.1554ZM22.1612 50.6974C24.4292 50.6974 26.0852 49.1674 27.1292 46.1074C28.2092 43.0474 28.7492 38.4034 28.7492 32.1754C28.7492 25.9474 28.2092 21.3214 27.1292 18.2974C26.0852 15.2374 24.4292 13.7074 22.1612 13.7074C19.8932 13.7074 18.2192 15.2374 17.1392 18.2974C16.0952 21.3214 15.5732 25.9474 15.5732 32.1754C15.5732 38.4034 16.0952 43.0474 17.1392 46.1074C18.2192 49.1674 19.8932 50.6974 22.1612 50.6974ZM34.1547 51.6694C33.5067 51.6694 33.1827 51.4354 33.1827 50.9674C33.1827 50.7154 33.3087 50.3914 33.5607 49.9954L40.0407 40.1134C42.7407 36.0094 44.6847 32.4814 45.8727 29.5294C47.0967 26.5414 47.7087 23.8054 47.7087 21.3214C47.7087 19.0894 47.2407 17.3794 46.3047 16.1914C45.4047 15.0034 44.0907 14.4094 42.3627 14.4094C40.6347 14.4094 39.0687 15.0214 37.6647 16.2454C36.2607 17.4334 35.3607 19.3414 34.9647 21.9694C34.8567 22.5454 34.5867 22.8334 34.1547 22.8334C33.6147 22.8334 33.3807 22.4734 33.4527 21.7534C33.7047 19.3774 34.3167 17.5054 35.2887 16.1374C36.2967 14.7334 37.5027 13.7434 38.9067 13.1674C40.3107 12.5554 41.7327 12.2494 43.1727 12.2494C45.6567 12.2494 47.6727 13.0054 49.2207 14.5174C50.8047 15.9934 51.5967 18.0634 51.5967 20.7274C51.5967 22.5994 51.1467 24.5254 50.2467 26.5054C49.3827 28.4494 48.1767 30.5914 46.6287 32.9314C45.1167 35.2354 43.3707 37.8814 41.3907 40.8694L37.1787 47.2414C36.9627 47.5654 36.9447 47.8534 37.1247 48.1054C37.3407 48.3214 37.6287 48.4294 37.9887 48.4294H43.7667C45.1347 48.4294 46.2687 48.2854 47.1687 47.9974C48.0687 47.6734 48.7887 47.0974 49.3287 46.2694C49.8687 45.4054 50.2827 44.1814 50.5707 42.5974L51.0567 40.0594C51.1647 39.5914 51.4347 39.3574 51.8667 39.3574C52.3707 39.3574 52.5867 39.6634 52.5147 40.2754L51.8667 50.4274C51.7947 51.2554 51.3447 51.6694 50.5167 51.6694H34.1547Z"/></clipPath><linearGradient id="paint0_diamond_1_114" x1="0" y1="0" x2="500" y2="500" gradientUnits="userSpaceOnUse">
<stop stop-color="#AEBBFF"/>
<stop offset="0.370192" stop-color="#DA94EF"/>
<stop offset="0.75" stop-color="#D3A7D0"/>
<stop offset="1" stop-color="#7F7FFE"/>
</linearGradient>
<linearGradient id="paint1_diamond_1_114" x1="0" y1="0" x2="500" y2="500" gradientUnits="userSpaceOnUse">
<stop stop-color="#AEBBFF"/>
<stop offset="0.370192" stop-color="#DA94EF"/>
<stop offset="0.75" stop-color="#D3A7D0"/>
<stop offset="1" stop-color="#7F7FFE"/>
</linearGradient>
</defs>
</svg>
