<svg width="65" height="65" viewBox="0 0 65 65" fill="none" xmlns="http://www.w3.org/2000/svg">
<mask id="path-1-outside-1_1_96" maskUnits="userSpaceOnUse" x="0.241211" y="0.169434" width="64" height="64" fill="black">
<rect fill="white" x="0.241211" y="0.169434" width="64" height="64"/>
<path d="M2.24121 12.1694C2.24121 6.64659 6.71836 2.16943 12.2412 2.16943H52.2412C57.7641 2.16943 62.2412 6.64659 62.2412 12.1694V52.1694C62.2412 57.6923 57.7641 62.1694 52.2412 62.1694H12.2412C6.71836 62.1694 2.24121 57.6923 2.24121 52.1694V12.1694Z"/>
</mask>
<path d="M2.24121 12.1694C2.24121 6.64659 6.71836 2.16943 12.2412 2.16943H52.2412C57.7641 2.16943 62.2412 6.64659 62.2412 12.1694V52.1694C62.2412 57.6923 57.7641 62.1694 52.2412 62.1694H12.2412C6.71836 62.1694 2.24121 57.6923 2.24121 52.1694V12.1694Z" fill="white"/>
<path d="M12.2412 2.16943V4.16943H52.2412V2.16943V0.169434H12.2412V2.16943ZM62.2412 12.1694H60.2412V52.1694H62.2412H64.2412V12.1694H62.2412ZM52.2412 62.1694V60.1694H12.2412V62.1694V64.1694H52.2412V62.1694ZM2.24121 52.1694H4.24121V12.1694H2.24121H0.241211V52.1694H2.24121ZM12.2412 62.1694V60.1694C7.82293 60.1694 4.24121 56.5877 4.24121 52.1694H2.24121H0.241211C0.241211 58.7969 5.6138 64.1694 12.2412 64.1694V62.1694ZM62.2412 52.1694H60.2412C60.2412 56.5877 56.6595 60.1694 52.2412 60.1694V62.1694V64.1694C58.8686 64.1694 64.2412 58.7968 64.2412 52.1694H62.2412ZM52.2412 2.16943V4.16943C56.6595 4.16943 60.2412 7.75116 60.2412 12.1694H62.2412H64.2412C64.2412 5.54202 58.8686 0.169434 52.2412 0.169434V2.16943ZM12.2412 2.16943V0.169434C5.61379 0.169434 0.241211 5.54202 0.241211 12.1694H2.24121H4.24121C4.24121 7.75116 7.82293 4.16943 12.2412 4.16943V2.16943Z" fill="black" mask="url(#path-1-outside-1_1_96)"/>
<g clip-path="url(#paint0_diamond_1_96_clip_path)" data-figma-skip-parse="true" mask="url(#path-1-outside-1_1_96)"><g transform="matrix(0 0.0565682 -0.0565682 0 32.2412 5.60123)"><rect x="0" y="0" width="1035.36" height="565.689" fill="url(#paint0_diamond_1_96)" opacity="1" shape-rendering="crispEdges"/><rect x="0" y="0" width="1035.36" height="565.689" transform="scale(1 -1)" fill="url(#paint0_diamond_1_96)" opacity="1" shape-rendering="crispEdges"/><rect x="0" y="0" width="1035.36" height="565.689" transform="scale(-1 1)" fill="url(#paint0_diamond_1_96)" opacity="1" shape-rendering="crispEdges"/><rect x="0" y="0" width="1035.36" height="565.689" transform="scale(-1)" fill="url(#paint0_diamond_1_96)" opacity="1" shape-rendering="crispEdges"/></g></g><path d="M12.2412 2.16943V4.16943H52.2412V2.16943V0.169434H12.2412V2.16943ZM62.2412 12.1694H60.2412V52.1694H62.2412H64.2412V12.1694H62.2412ZM52.2412 62.1694V60.1694H12.2412V62.1694V64.1694H52.2412V62.1694ZM2.24121 52.1694H4.24121V12.1694H2.24121H0.241211V52.1694H2.24121ZM12.2412 62.1694V60.1694C7.82293 60.1694 4.24121 56.5877 4.24121 52.1694H2.24121H0.241211C0.241211 58.7969 5.6138 64.1694 12.2412 64.1694V62.1694ZM62.2412 52.1694H60.2412C60.2412 56.5877 56.6595 60.1694 52.2412 60.1694V62.1694V64.1694C58.8686 64.1694 64.2412 58.7968 64.2412 52.1694H62.2412ZM52.2412 2.16943V4.16943C56.6595 4.16943 60.2412 7.75116 60.2412 12.1694H62.2412H64.2412C64.2412 5.54202 58.8686 0.169434 52.2412 0.169434V2.16943ZM12.2412 2.16943V0.169434C5.61379 0.169434 0.241211 5.54202 0.241211 12.1694H2.24121H4.24121C4.24121 7.75116 7.82293 4.16943 12.2412 4.16943V2.16943Z" data-figma-gradient-fill="{&#34;type&#34;:&#34;GRADIENT_DIAMOND&#34;,&#34;stops&#34;:[{&#34;color&#34;:{&#34;r&#34;:0.68235296010971069,&#34;g&#34;:0.73333334922790527,&#34;b&#34;:1.0,&#34;a&#34;:1.0},&#34;position&#34;:0.0},{&#34;color&#34;:{&#34;r&#34;:0.85490196943283081,&#34;g&#34;:0.58039218187332153,&#34;b&#34;:0.93725490570068359,&#34;a&#34;:1.0},&#34;position&#34;:0.37019231915473938},{&#34;color&#34;:{&#34;r&#34;:0.82745099067687988,&#34;g&#34;:0.65490198135375977,&#34;b&#34;:0.81568628549575806,&#34;a&#34;:1.0},&#34;position&#34;:0.750},{&#34;color&#34;:{&#34;r&#34;:0.49803921580314636,&#34;g&#34;:0.49803921580314636,&#34;b&#34;:0.99607843160629272,&#34;a&#34;:1.0},&#34;position&#34;:1.0}],&#34;stopsVar&#34;:[{&#34;color&#34;:{&#34;r&#34;:0.68235296010971069,&#34;g&#34;:0.73333334922790527,&#34;b&#34;:1.0,&#34;a&#34;:1.0},&#34;position&#34;:0.0},{&#34;color&#34;:{&#34;r&#34;:0.85490196943283081,&#34;g&#34;:0.58039218187332153,&#34;b&#34;:0.93725490570068359,&#34;a&#34;:1.0},&#34;position&#34;:0.37019231915473938},{&#34;color&#34;:{&#34;r&#34;:0.82745099067687988,&#34;g&#34;:0.65490198135375977,&#34;b&#34;:0.81568628549575806,&#34;a&#34;:1.0},&#34;position&#34;:0.750},{&#34;color&#34;:{&#34;r&#34;:0.49803921580314636,&#34;g&#34;:0.49803921580314636,&#34;b&#34;:0.99607843160629272,&#34;a&#34;:1.0},&#34;position&#34;:1.0}],&#34;transform&#34;:{&#34;m00&#34;:-1.7292851178796198e-13,&#34;m01&#34;:-113.13641357421875,&#34;m02&#34;:88.809417724609375,&#34;m10&#34;:113.13641357421875,&#34;m11&#34;:6.9276080369180121e-15,&#34;m12&#34;:-50.966983795166016},&#34;opacity&#34;:1.0,&#34;blendMode&#34;:&#34;NORMAL&#34;,&#34;visible&#34;:true}" mask="url(#path-1-outside-1_1_96)"/>
<path d="M26.1612 52.1554C24.0732 52.1554 22.2372 51.2734 20.6532 49.5094C19.0692 47.7454 17.8452 45.3514 16.9812 42.3274C16.1172 39.3034 15.6852 35.9194 15.6852 32.1754C15.6852 28.4314 16.1172 25.0654 16.9812 22.0774C17.8452 19.0534 19.0692 16.6594 20.6532 14.8954C22.2372 13.1314 24.0732 12.2494 26.1612 12.2494C28.2492 12.2494 30.0672 13.1314 31.6152 14.8954C33.1992 16.6594 34.4232 19.0534 35.2872 22.0774C36.1872 25.0654 36.6372 28.4314 36.6372 32.1754C36.6372 35.9194 36.1872 39.3034 35.2872 42.3274C34.4232 45.3514 33.1992 47.7454 31.6152 49.5094C30.0672 51.2734 28.2492 52.1554 26.1612 52.1554ZM26.1612 50.6974C28.4292 50.6974 30.0852 49.1674 31.1292 46.1074C32.2092 43.0474 32.7492 38.4034 32.7492 32.1754C32.7492 25.9474 32.2092 21.3214 31.1292 18.2974C30.0852 15.2374 28.4292 13.7074 26.1612 13.7074C23.8932 13.7074 22.2192 15.2374 21.1392 18.2974C20.0952 21.3214 19.5732 25.9474 19.5732 32.1754C19.5732 38.4034 20.0952 43.0474 21.1392 46.1074C22.2192 49.1674 23.8932 50.6974 26.1612 50.6974ZM37.4991 51.6694C36.9591 51.6694 36.6891 51.4714 36.6891 51.0754C36.6891 50.6794 36.9231 50.4634 37.3911 50.4274L39.4971 50.2114C40.2531 50.1394 40.7571 49.9594 41.0091 49.6714C41.2971 49.3834 41.4411 48.8614 41.4411 48.1054V16.0294C41.4411 15.4174 41.2611 15.0214 40.9011 14.8414C40.5771 14.6254 40.1451 14.5534 39.6051 14.6254L37.6611 14.8414C37.0131 14.8774 36.6891 14.6434 36.6891 14.1394C36.6891 13.7434 36.9771 13.4914 37.5531 13.3834C39.4611 13.0594 40.8651 12.7534 41.7651 12.4654C42.6651 12.1414 43.3311 11.9794 43.7631 11.9794C44.5191 11.9794 44.8971 12.3754 44.8971 13.1674V48.1054C44.8971 48.8614 45.0231 49.3834 45.2751 49.6714C45.5631 49.9594 46.0851 50.1394 46.8411 50.2114L48.6231 50.4274C49.0911 50.4634 49.3251 50.6794 49.3251 51.0754C49.3251 51.4714 49.0551 51.6694 48.5151 51.6694H37.4991Z" fill="black"/>
<path d="M26.1612 52.1554C24.0732 52.1554 22.2372 51.2734 20.6532 49.5094C19.0692 47.7454 17.8452 45.3514 16.9812 42.3274C16.1172 39.3034 15.6852 35.9194 15.6852 32.1754C15.6852 28.4314 16.1172 25.0654 16.9812 22.0774C17.8452 19.0534 19.0692 16.6594 20.6532 14.8954C22.2372 13.1314 24.0732 12.2494 26.1612 12.2494C28.2492 12.2494 30.0672 13.1314 31.6152 14.8954C33.1992 16.6594 34.4232 19.0534 35.2872 22.0774C36.1872 25.0654 36.6372 28.4314 36.6372 32.1754C36.6372 35.9194 36.1872 39.3034 35.2872 42.3274C34.4232 45.3514 33.1992 47.7454 31.6152 49.5094C30.0672 51.2734 28.2492 52.1554 26.1612 52.1554ZM26.1612 50.6974C28.4292 50.6974 30.0852 49.1674 31.1292 46.1074C32.2092 43.0474 32.7492 38.4034 32.7492 32.1754C32.7492 25.9474 32.2092 21.3214 31.1292 18.2974C30.0852 15.2374 28.4292 13.7074 26.1612 13.7074C23.8932 13.7074 22.2192 15.2374 21.1392 18.2974C20.0952 21.3214 19.5732 25.9474 19.5732 32.1754C19.5732 38.4034 20.0952 43.0474 21.1392 46.1074C22.2192 49.1674 23.8932 50.6974 26.1612 50.6974ZM37.4991 51.6694C36.9591 51.6694 36.6891 51.4714 36.6891 51.0754C36.6891 50.6794 36.9231 50.4634 37.3911 50.4274L39.4971 50.2114C40.2531 50.1394 40.7571 49.9594 41.0091 49.6714C41.2971 49.3834 41.4411 48.8614 41.4411 48.1054V16.0294C41.4411 15.4174 41.2611 15.0214 40.9011 14.8414C40.5771 14.6254 40.1451 14.5534 39.6051 14.6254L37.6611 14.8414C37.0131 14.8774 36.6891 14.6434 36.6891 14.1394C36.6891 13.7434 36.9771 13.4914 37.5531 13.3834C39.4611 13.0594 40.8651 12.7534 41.7651 12.4654C42.6651 12.1414 43.3311 11.9794 43.7631 11.9794C44.5191 11.9794 44.8971 12.3754 44.8971 13.1674V48.1054C44.8971 48.8614 45.0231 49.3834 45.2751 49.6714C45.5631 49.9594 46.0851 50.1394 46.8411 50.2114L48.6231 50.4274C49.0911 50.4634 49.3251 50.6794 49.3251 51.0754C49.3251 51.4714 49.0551 51.6694 48.5151 51.6694H37.4991Z" fill="#F8F8FB"/>
<g clip-path="url(#paint1_diamond_1_96_clip_path)" data-figma-skip-parse="true"><g transform="matrix(0 0.0367693 -0.0348837 0 32.2412 14.9001)"><rect x="0" y="0" width="1013.6" height="544.667" fill="url(#paint1_diamond_1_96)" opacity="1" shape-rendering="crispEdges"/><rect x="0" y="0" width="1013.6" height="544.667" transform="scale(1 -1)" fill="url(#paint1_diamond_1_96)" opacity="1" shape-rendering="crispEdges"/><rect x="0" y="0" width="1013.6" height="544.667" transform="scale(-1 1)" fill="url(#paint1_diamond_1_96)" opacity="1" shape-rendering="crispEdges"/><rect x="0" y="0" width="1013.6" height="544.667" transform="scale(-1)" fill="url(#paint1_diamond_1_96)" opacity="1" shape-rendering="crispEdges"/></g></g><path d="M26.1612 52.1554C24.0732 52.1554 22.2372 51.2734 20.6532 49.5094C19.0692 47.7454 17.8452 45.3514 16.9812 42.3274C16.1172 39.3034 15.6852 35.9194 15.6852 32.1754C15.6852 28.4314 16.1172 25.0654 16.9812 22.0774C17.8452 19.0534 19.0692 16.6594 20.6532 14.8954C22.2372 13.1314 24.0732 12.2494 26.1612 12.2494C28.2492 12.2494 30.0672 13.1314 31.6152 14.8954C33.1992 16.6594 34.4232 19.0534 35.2872 22.0774C36.1872 25.0654 36.6372 28.4314 36.6372 32.1754C36.6372 35.9194 36.1872 39.3034 35.2872 42.3274C34.4232 45.3514 33.1992 47.7454 31.6152 49.5094C30.0672 51.2734 28.2492 52.1554 26.1612 52.1554ZM26.1612 50.6974C28.4292 50.6974 30.0852 49.1674 31.1292 46.1074C32.2092 43.0474 32.7492 38.4034 32.7492 32.1754C32.7492 25.9474 32.2092 21.3214 31.1292 18.2974C30.0852 15.2374 28.4292 13.7074 26.1612 13.7074C23.8932 13.7074 22.2192 15.2374 21.1392 18.2974C20.0952 21.3214 19.5732 25.9474 19.5732 32.1754C19.5732 38.4034 20.0952 43.0474 21.1392 46.1074C22.2192 49.1674 23.8932 50.6974 26.1612 50.6974ZM37.4991 51.6694C36.9591 51.6694 36.6891 51.4714 36.6891 51.0754C36.6891 50.6794 36.9231 50.4634 37.3911 50.4274L39.4971 50.2114C40.2531 50.1394 40.7571 49.9594 41.0091 49.6714C41.2971 49.3834 41.4411 48.8614 41.4411 48.1054V16.0294C41.4411 15.4174 41.2611 15.0214 40.9011 14.8414C40.5771 14.6254 40.1451 14.5534 39.6051 14.6254L37.6611 14.8414C37.0131 14.8774 36.6891 14.6434 36.6891 14.1394C36.6891 13.7434 36.9771 13.4914 37.5531 13.3834C39.4611 13.0594 40.8651 12.7534 41.7651 12.4654C42.6651 12.1414 43.3311 11.9794 43.7631 11.9794C44.5191 11.9794 44.8971 12.3754 44.8971 13.1674V48.1054C44.8971 48.8614 45.0231 49.3834 45.2751 49.6714C45.5631 49.9594 46.0851 50.1394 46.8411 50.2114L48.6231 50.4274C49.0911 50.4634 49.3251 50.6794 49.3251 51.0754C49.3251 51.4714 49.0551 51.6694 48.5151 51.6694H37.4991Z" data-figma-gradient-fill="{&#34;type&#34;:&#34;GRADIENT_DIAMOND&#34;,&#34;stops&#34;:[{&#34;color&#34;:{&#34;r&#34;:0.68235296010971069,&#34;g&#34;:0.73333334922790527,&#34;b&#34;:1.0,&#34;a&#34;:1.0},&#34;position&#34;:0.0},{&#34;color&#34;:{&#34;r&#34;:0.85490196943283081,&#34;g&#34;:0.58039218187332153,&#34;b&#34;:0.93725490570068359,&#34;a&#34;:1.0},&#34;position&#34;:0.37019231915473938},{&#34;color&#34;:{&#34;r&#34;:0.82745099067687988,&#34;g&#34;:0.65490198135375977,&#34;b&#34;:0.81568628549575806,&#34;a&#34;:1.0},&#34;position&#34;:0.750},{&#34;color&#34;:{&#34;r&#34;:0.49803921580314636,&#34;g&#34;:0.49803921580314636,&#34;b&#34;:0.99607843160629272,&#34;a&#34;:1.0},&#34;position&#34;:1.0}],&#34;stopsVar&#34;:[{&#34;color&#34;:{&#34;r&#34;:0.68235296010971069,&#34;g&#34;:0.73333334922790527,&#34;b&#34;:1.0,&#34;a&#34;:1.0},&#34;position&#34;:0.0},{&#34;color&#34;:{&#34;r&#34;:0.85490196943283081,&#34;g&#34;:0.58039218187332153,&#34;b&#34;:0.93725490570068359,&#34;a&#34;:1.0},&#34;position&#34;:0.37019231915473938},{&#34;color&#34;:{&#34;r&#34;:0.82745099067687988,&#34;g&#34;:0.65490198135375977,&#34;b&#34;:0.81568628549575806,&#34;a&#34;:1.0},&#34;position&#34;:0.750},{&#34;color&#34;:{&#34;r&#34;:0.49803921580314636,&#34;g&#34;:0.49803921580314636,&#34;b&#34;:0.99607843160629272,&#34;a&#34;:1.0},&#34;position&#34;:1.0}],&#34;transform&#34;:{&#34;m00&#34;:-1.0663925254991713e-13,&#34;m01&#34;:-69.76745605468750,&#34;m02&#34;:67.124938964843750,&#34;m10&#34;:73.538673400878906,&#34;m11&#34;:4.5029453087000026e-15,&#34;m12&#34;:-21.869235992431641},&#34;opacity&#34;:1.0,&#34;blendMode&#34;:&#34;NORMAL&#34;,&#34;visible&#34;:true}"/>
<defs>
<clipPath id="paint0_diamond_1_96_clip_path"><path d="M12.2412 2.16943V4.16943H52.2412V2.16943V0.169434H12.2412V2.16943ZM62.2412 12.1694H60.2412V52.1694H62.2412H64.2412V12.1694H62.2412ZM52.2412 62.1694V60.1694H12.2412V62.1694V64.1694H52.2412V62.1694ZM2.24121 52.1694H4.24121V12.1694H2.24121H0.241211V52.1694H2.24121ZM12.2412 62.1694V60.1694C7.82293 60.1694 4.24121 56.5877 4.24121 52.1694H2.24121H0.241211C0.241211 58.7969 5.6138 64.1694 12.2412 64.1694V62.1694ZM62.2412 52.1694H60.2412C60.2412 56.5877 56.6595 60.1694 52.2412 60.1694V62.1694V64.1694C58.8686 64.1694 64.2412 58.7968 64.2412 52.1694H62.2412ZM52.2412 2.16943V4.16943C56.6595 4.16943 60.2412 7.75116 60.2412 12.1694H62.2412H64.2412C64.2412 5.54202 58.8686 0.169434 52.2412 0.169434V2.16943ZM12.2412 2.16943V0.169434C5.61379 0.169434 0.241211 5.54202 0.241211 12.1694H2.24121H4.24121C4.24121 7.75116 7.82293 4.16943 12.2412 4.16943V2.16943Z" mask="url(#path-1-outside-1_1_96)"/></clipPath><clipPath id="paint1_diamond_1_96_clip_path"><path d="M26.1612 52.1554C24.0732 52.1554 22.2372 51.2734 20.6532 49.5094C19.0692 47.7454 17.8452 45.3514 16.9812 42.3274C16.1172 39.3034 15.6852 35.9194 15.6852 32.1754C15.6852 28.4314 16.1172 25.0654 16.9812 22.0774C17.8452 19.0534 19.0692 16.6594 20.6532 14.8954C22.2372 13.1314 24.0732 12.2494 26.1612 12.2494C28.2492 12.2494 30.0672 13.1314 31.6152 14.8954C33.1992 16.6594 34.4232 19.0534 35.2872 22.0774C36.1872 25.0654 36.6372 28.4314 36.6372 32.1754C36.6372 35.9194 36.1872 39.3034 35.2872 42.3274C34.4232 45.3514 33.1992 47.7454 31.6152 49.5094C30.0672 51.2734 28.2492 52.1554 26.1612 52.1554ZM26.1612 50.6974C28.4292 50.6974 30.0852 49.1674 31.1292 46.1074C32.2092 43.0474 32.7492 38.4034 32.7492 32.1754C32.7492 25.9474 32.2092 21.3214 31.1292 18.2974C30.0852 15.2374 28.4292 13.7074 26.1612 13.7074C23.8932 13.7074 22.2192 15.2374 21.1392 18.2974C20.0952 21.3214 19.5732 25.9474 19.5732 32.1754C19.5732 38.4034 20.0952 43.0474 21.1392 46.1074C22.2192 49.1674 23.8932 50.6974 26.1612 50.6974ZM37.4991 51.6694C36.9591 51.6694 36.6891 51.4714 36.6891 51.0754C36.6891 50.6794 36.9231 50.4634 37.3911 50.4274L39.4971 50.2114C40.2531 50.1394 40.7571 49.9594 41.0091 49.6714C41.2971 49.3834 41.4411 48.8614 41.4411 48.1054V16.0294C41.4411 15.4174 41.2611 15.0214 40.9011 14.8414C40.5771 14.6254 40.1451 14.5534 39.6051 14.6254L37.6611 14.8414C37.0131 14.8774 36.6891 14.6434 36.6891 14.1394C36.6891 13.7434 36.9771 13.4914 37.5531 13.3834C39.4611 13.0594 40.8651 12.7534 41.7651 12.4654C42.6651 12.1414 43.3311 11.9794 43.7631 11.9794C44.5191 11.9794 44.8971 12.3754 44.8971 13.1674V48.1054C44.8971 48.8614 45.0231 49.3834 45.2751 49.6714C45.5631 49.9594 46.0851 50.1394 46.8411 50.2114L48.6231 50.4274C49.0911 50.4634 49.3251 50.6794 49.3251 51.0754C49.3251 51.4714 49.0551 51.6694 48.5151 51.6694H37.4991Z"/></clipPath><linearGradient id="paint0_diamond_1_96" x1="0" y1="0" x2="500" y2="500" gradientUnits="userSpaceOnUse">
<stop stop-color="#AEBBFF"/>
<stop offset="0.370192" stop-color="#DA94EF"/>
<stop offset="0.75" stop-color="#D3A7D0"/>
<stop offset="1" stop-color="#7F7FFE"/>
</linearGradient>
<linearGradient id="paint1_diamond_1_96" x1="0" y1="0" x2="500" y2="500" gradientUnits="userSpaceOnUse">
<stop stop-color="#AEBBFF"/>
<stop offset="0.370192" stop-color="#DA94EF"/>
<stop offset="0.75" stop-color="#D3A7D0"/>
<stop offset="1" stop-color="#7F7FFE"/>
</linearGradient>
</defs>
</svg>
