<svg width="65" height="65" viewBox="0 0 65 65" fill="none" xmlns="http://www.w3.org/2000/svg">
<mask id="path-1-outside-1_1_132" maskUnits="userSpaceOnUse" x="0.241211" y="0.169434" width="64" height="64" fill="black">
<rect fill="white" x="0.241211" y="0.169434" width="64" height="64"/>
<path d="M2.24121 12.1694C2.24121 6.64659 6.71836 2.16943 12.2412 2.16943H52.2412C57.7641 2.16943 62.2412 6.64659 62.2412 12.1694V52.1694C62.2412 57.6923 57.7641 62.1694 52.2412 62.1694H12.2412C6.71836 62.1694 2.24121 57.6923 2.24121 52.1694V12.1694Z"/>
</mask>
<path d="M2.24121 12.1694C2.24121 6.64659 6.71836 2.16943 12.2412 2.16943H52.2412C57.7641 2.16943 62.2412 6.64659 62.2412 12.1694V52.1694C62.2412 57.6923 57.7641 62.1694 52.2412 62.1694H12.2412C6.71836 62.1694 2.24121 57.6923 2.24121 52.1694V12.1694Z" fill="white"/>
<path d="M12.2412 2.16943V4.16943H52.2412V2.16943V0.169434H12.2412V2.16943ZM62.2412 12.1694H60.2412V52.1694H62.2412H64.2412V12.1694H62.2412ZM52.2412 62.1694V60.1694H12.2412V62.1694V64.1694H52.2412V62.1694ZM2.24121 52.1694H4.24121V12.1694H2.24121H0.241211V52.1694H2.24121ZM12.2412 62.1694V60.1694C7.82293 60.1694 4.24121 56.5877 4.24121 52.1694H2.24121H0.241211C0.241211 58.7969 5.6138 64.1694 12.2412 64.1694V62.1694ZM62.2412 52.1694H60.2412C60.2412 56.5877 56.6595 60.1694 52.2412 60.1694V62.1694V64.1694C58.8686 64.1694 64.2412 58.7968 64.2412 52.1694H62.2412ZM52.2412 2.16943V4.16943C56.6595 4.16943 60.2412 7.75116 60.2412 12.1694H62.2412H64.2412C64.2412 5.54202 58.8686 0.169434 52.2412 0.169434V2.16943ZM12.2412 2.16943V0.169434C5.61379 0.169434 0.241211 5.54202 0.241211 12.1694H2.24121H4.24121C4.24121 7.75116 7.82293 4.16943 12.2412 4.16943V2.16943Z" fill="black" mask="url(#path-1-outside-1_1_132)"/>
<g clip-path="url(#paint0_diamond_1_132_clip_path)" data-figma-skip-parse="true" mask="url(#path-1-outside-1_1_132)"><g transform="matrix(0 0.0565682 -0.0565682 0 32.2412 5.60123)"><rect x="0" y="0" width="1035.36" height="565.689" fill="url(#paint0_diamond_1_132)" opacity="1" shape-rendering="crispEdges"/><rect x="0" y="0" width="1035.36" height="565.689" transform="scale(1 -1)" fill="url(#paint0_diamond_1_132)" opacity="1" shape-rendering="crispEdges"/><rect x="0" y="0" width="1035.36" height="565.689" transform="scale(-1 1)" fill="url(#paint0_diamond_1_132)" opacity="1" shape-rendering="crispEdges"/><rect x="0" y="0" width="1035.36" height="565.689" transform="scale(-1)" fill="url(#paint0_diamond_1_132)" opacity="1" shape-rendering="crispEdges"/></g></g><path d="M12.2412 2.16943V4.16943H52.2412V2.16943V0.169434H12.2412V2.16943ZM62.2412 12.1694H60.2412V52.1694H62.2412H64.2412V12.1694H62.2412ZM52.2412 62.1694V60.1694H12.2412V62.1694V64.1694H52.2412V62.1694ZM2.24121 52.1694H4.24121V12.1694H2.24121H0.241211V52.1694H2.24121ZM12.2412 62.1694V60.1694C7.82293 60.1694 4.24121 56.5877 4.24121 52.1694H2.24121H0.241211C0.241211 58.7969 5.6138 64.1694 12.2412 64.1694V62.1694ZM62.2412 52.1694H60.2412C60.2412 56.5877 56.6595 60.1694 52.2412 60.1694V62.1694V64.1694C58.8686 64.1694 64.2412 58.7968 64.2412 52.1694H62.2412ZM52.2412 2.16943V4.16943C56.6595 4.16943 60.2412 7.75116 60.2412 12.1694H62.2412H64.2412C64.2412 5.54202 58.8686 0.169434 52.2412 0.169434V2.16943ZM12.2412 2.16943V0.169434C5.61379 0.169434 0.241211 5.54202 0.241211 12.1694H2.24121H4.24121C4.24121 7.75116 7.82293 4.16943 12.2412 4.16943V2.16943Z" data-figma-gradient-fill="{&#34;type&#34;:&#34;GRADIENT_DIAMOND&#34;,&#34;stops&#34;:[{&#34;color&#34;:{&#34;r&#34;:0.68235296010971069,&#34;g&#34;:0.73333334922790527,&#34;b&#34;:1.0,&#34;a&#34;:1.0},&#34;position&#34;:0.0},{&#34;color&#34;:{&#34;r&#34;:0.85490196943283081,&#34;g&#34;:0.58039218187332153,&#34;b&#34;:0.93725490570068359,&#34;a&#34;:1.0},&#34;position&#34;:0.37019231915473938},{&#34;color&#34;:{&#34;r&#34;:0.82745099067687988,&#34;g&#34;:0.65490198135375977,&#34;b&#34;:0.81568628549575806,&#34;a&#34;:1.0},&#34;position&#34;:0.750},{&#34;color&#34;:{&#34;r&#34;:0.49803921580314636,&#34;g&#34;:0.49803921580314636,&#34;b&#34;:0.99607843160629272,&#34;a&#34;:1.0},&#34;position&#34;:1.0}],&#34;stopsVar&#34;:[{&#34;color&#34;:{&#34;r&#34;:0.68235296010971069,&#34;g&#34;:0.73333334922790527,&#34;b&#34;:1.0,&#34;a&#34;:1.0},&#34;position&#34;:0.0},{&#34;color&#34;:{&#34;r&#34;:0.85490196943283081,&#34;g&#34;:0.58039218187332153,&#34;b&#34;:0.93725490570068359,&#34;a&#34;:1.0},&#34;position&#34;:0.37019231915473938},{&#34;color&#34;:{&#34;r&#34;:0.82745099067687988,&#34;g&#34;:0.65490198135375977,&#34;b&#34;:0.81568628549575806,&#34;a&#34;:1.0},&#34;position&#34;:0.750},{&#34;color&#34;:{&#34;r&#34;:0.49803921580314636,&#34;g&#34;:0.49803921580314636,&#34;b&#34;:0.99607843160629272,&#34;a&#34;:1.0},&#34;position&#34;:1.0}],&#34;transform&#34;:{&#34;m00&#34;:-1.7292851178796198e-13,&#34;m01&#34;:-113.13641357421875,&#34;m02&#34;:88.809417724609375,&#34;m10&#34;:113.13641357421875,&#34;m11&#34;:6.9276080369180121e-15,&#34;m12&#34;:-50.966983795166016},&#34;opacity&#34;:1.0,&#34;blendMode&#34;:&#34;NORMAL&#34;,&#34;visible&#34;:true}" mask="url(#path-1-outside-1_1_132)"/>
<path d="M23.1612 52.1554C21.0732 52.1554 19.2372 51.2734 17.6532 49.5094C16.0692 47.7454 14.8452 45.3514 13.9812 42.3274C13.1172 39.3034 12.6852 35.9194 12.6852 32.1754C12.6852 28.4314 13.1172 25.0654 13.9812 22.0774C14.8452 19.0534 16.0692 16.6594 17.6532 14.8954C19.2372 13.1314 21.0732 12.2494 23.1612 12.2494C25.2492 12.2494 27.0672 13.1314 28.6152 14.8954C30.1992 16.6594 31.4232 19.0534 32.2872 22.0774C33.1872 25.0654 33.6372 28.4314 33.6372 32.1754C33.6372 35.9194 33.1872 39.3034 32.2872 42.3274C31.4232 45.3514 30.1992 47.7454 28.6152 49.5094C27.0672 51.2734 25.2492 52.1554 23.1612 52.1554ZM23.1612 50.6974C25.4292 50.6974 27.0852 49.1674 28.1292 46.1074C29.2092 43.0474 29.7492 38.4034 29.7492 32.1754C29.7492 25.9474 29.2092 21.3214 28.1292 18.2974C27.0852 15.2374 25.4292 13.7074 23.1612 13.7074C20.8932 13.7074 19.2192 15.2374 18.1392 18.2974C17.0952 21.3214 16.5732 25.9474 16.5732 32.1754C16.5732 38.4034 17.0952 43.0474 18.1392 46.1074C19.2192 49.1674 20.8932 50.6974 23.1612 50.6974ZM40.7091 52.1554C38.8371 52.1554 37.3251 51.8134 36.1731 51.1294C35.0571 50.4454 34.4991 49.5454 34.4991 48.4294C34.4991 47.8174 34.6791 47.3494 35.0391 47.0254C35.3991 46.6654 35.8671 46.4854 36.4431 46.4854C37.1271 46.4854 37.5771 46.7014 37.7931 47.1334C38.0091 47.5654 38.1711 48.0514 38.2791 48.5914C38.3871 49.1314 38.6211 49.6174 38.9811 50.0494C39.3771 50.4814 40.0611 50.6974 41.0331 50.6974C43.0851 50.6974 44.7411 49.7434 46.0011 47.8354C47.2971 45.8914 47.9451 43.3534 47.9451 40.2214C47.9451 33.2734 45.9651 29.7994 42.0051 29.7994C40.5651 29.7994 39.3411 30.1414 38.3331 30.8254C37.7571 31.2574 37.3251 31.3114 37.0371 30.9874C36.8211 30.6274 36.9651 30.1954 37.4691 29.6914L41.3571 26.0194C42.9411 24.5434 44.0931 23.1934 44.8131 21.9694C45.5331 20.7454 45.8931 19.5214 45.8931 18.2974C45.8931 16.9654 45.5871 15.9394 44.9751 15.2194C44.3991 14.4634 43.5891 14.0854 42.5451 14.0854C41.1771 14.0854 40.0251 14.5894 39.0891 15.5974C38.1531 16.6054 37.5411 17.9914 37.2531 19.7554C37.1811 20.2954 36.9111 20.5654 36.4431 20.5654C35.9391 20.5654 35.7231 20.2414 35.7951 19.5934C36.0471 17.3614 36.8751 15.5794 38.2791 14.2474C39.7191 12.9154 41.4831 12.2494 43.5711 12.2494C45.3711 12.2494 46.8111 12.7534 47.8911 13.7614C49.0071 14.7334 49.5651 16.0474 49.5651 17.7034C49.5651 20.5474 47.2431 23.5714 42.5991 26.7754L41.3571 27.6394C41.2131 27.7474 41.1591 27.8734 41.1951 28.0174C41.2671 28.1254 41.3931 28.1614 41.5731 28.1254C42.1851 27.9454 42.7971 27.8554 43.4091 27.8554C45.0651 27.8554 46.5231 28.3234 47.7831 29.2594C49.0431 30.1954 50.0331 31.5094 50.7531 33.2014C51.4731 34.8574 51.8331 36.7654 51.8331 38.9254C51.8331 40.6534 51.5271 42.3094 50.9151 43.8934C50.3031 45.4774 49.4751 46.8994 48.4311 48.1594C47.3871 49.3834 46.1991 50.3554 44.8671 51.0754C43.5351 51.7954 42.1491 52.1554 40.7091 52.1554Z" fill="black"/>
<path d="M23.1612 52.1554C21.0732 52.1554 19.2372 51.2734 17.6532 49.5094C16.0692 47.7454 14.8452 45.3514 13.9812 42.3274C13.1172 39.3034 12.6852 35.9194 12.6852 32.1754C12.6852 28.4314 13.1172 25.0654 13.9812 22.0774C14.8452 19.0534 16.0692 16.6594 17.6532 14.8954C19.2372 13.1314 21.0732 12.2494 23.1612 12.2494C25.2492 12.2494 27.0672 13.1314 28.6152 14.8954C30.1992 16.6594 31.4232 19.0534 32.2872 22.0774C33.1872 25.0654 33.6372 28.4314 33.6372 32.1754C33.6372 35.9194 33.1872 39.3034 32.2872 42.3274C31.4232 45.3514 30.1992 47.7454 28.6152 49.5094C27.0672 51.2734 25.2492 52.1554 23.1612 52.1554ZM23.1612 50.6974C25.4292 50.6974 27.0852 49.1674 28.1292 46.1074C29.2092 43.0474 29.7492 38.4034 29.7492 32.1754C29.7492 25.9474 29.2092 21.3214 28.1292 18.2974C27.0852 15.2374 25.4292 13.7074 23.1612 13.7074C20.8932 13.7074 19.2192 15.2374 18.1392 18.2974C17.0952 21.3214 16.5732 25.9474 16.5732 32.1754C16.5732 38.4034 17.0952 43.0474 18.1392 46.1074C19.2192 49.1674 20.8932 50.6974 23.1612 50.6974ZM40.7091 52.1554C38.8371 52.1554 37.3251 51.8134 36.1731 51.1294C35.0571 50.4454 34.4991 49.5454 34.4991 48.4294C34.4991 47.8174 34.6791 47.3494 35.0391 47.0254C35.3991 46.6654 35.8671 46.4854 36.4431 46.4854C37.1271 46.4854 37.5771 46.7014 37.7931 47.1334C38.0091 47.5654 38.1711 48.0514 38.2791 48.5914C38.3871 49.1314 38.6211 49.6174 38.9811 50.0494C39.3771 50.4814 40.0611 50.6974 41.0331 50.6974C43.0851 50.6974 44.7411 49.7434 46.0011 47.8354C47.2971 45.8914 47.9451 43.3534 47.9451 40.2214C47.9451 33.2734 45.9651 29.7994 42.0051 29.7994C40.5651 29.7994 39.3411 30.1414 38.3331 30.8254C37.7571 31.2574 37.3251 31.3114 37.0371 30.9874C36.8211 30.6274 36.9651 30.1954 37.4691 29.6914L41.3571 26.0194C42.9411 24.5434 44.0931 23.1934 44.8131 21.9694C45.5331 20.7454 45.8931 19.5214 45.8931 18.2974C45.8931 16.9654 45.5871 15.9394 44.9751 15.2194C44.3991 14.4634 43.5891 14.0854 42.5451 14.0854C41.1771 14.0854 40.0251 14.5894 39.0891 15.5974C38.1531 16.6054 37.5411 17.9914 37.2531 19.7554C37.1811 20.2954 36.9111 20.5654 36.4431 20.5654C35.9391 20.5654 35.7231 20.2414 35.7951 19.5934C36.0471 17.3614 36.8751 15.5794 38.2791 14.2474C39.7191 12.9154 41.4831 12.2494 43.5711 12.2494C45.3711 12.2494 46.8111 12.7534 47.8911 13.7614C49.0071 14.7334 49.5651 16.0474 49.5651 17.7034C49.5651 20.5474 47.2431 23.5714 42.5991 26.7754L41.3571 27.6394C41.2131 27.7474 41.1591 27.8734 41.1951 28.0174C41.2671 28.1254 41.3931 28.1614 41.5731 28.1254C42.1851 27.9454 42.7971 27.8554 43.4091 27.8554C45.0651 27.8554 46.5231 28.3234 47.7831 29.2594C49.0431 30.1954 50.0331 31.5094 50.7531 33.2014C51.4731 34.8574 51.8331 36.7654 51.8331 38.9254C51.8331 40.6534 51.5271 42.3094 50.9151 43.8934C50.3031 45.4774 49.4751 46.8994 48.4311 48.1594C47.3871 49.3834 46.1991 50.3554 44.8671 51.0754C43.5351 51.7954 42.1491 52.1554 40.7091 52.1554Z" fill="#F8F8FB"/>
<g clip-path="url(#paint1_diamond_1_132_clip_path)" data-figma-skip-parse="true"><g transform="matrix(0 0.0367693 -0.0405405 0 32.2412 14.9001)"><rect x="0" y="0" width="1013.6" height="542.667" fill="url(#paint1_diamond_1_132)" opacity="1" shape-rendering="crispEdges"/><rect x="0" y="0" width="1013.6" height="542.667" transform="scale(1 -1)" fill="url(#paint1_diamond_1_132)" opacity="1" shape-rendering="crispEdges"/><rect x="0" y="0" width="1013.6" height="542.667" transform="scale(-1 1)" fill="url(#paint1_diamond_1_132)" opacity="1" shape-rendering="crispEdges"/><rect x="0" y="0" width="1013.6" height="542.667" transform="scale(-1)" fill="url(#paint1_diamond_1_132)" opacity="1" shape-rendering="crispEdges"/></g></g><path d="M23.1612 52.1554C21.0732 52.1554 19.2372 51.2734 17.6532 49.5094C16.0692 47.7454 14.8452 45.3514 13.9812 42.3274C13.1172 39.3034 12.6852 35.9194 12.6852 32.1754C12.6852 28.4314 13.1172 25.0654 13.9812 22.0774C14.8452 19.0534 16.0692 16.6594 17.6532 14.8954C19.2372 13.1314 21.0732 12.2494 23.1612 12.2494C25.2492 12.2494 27.0672 13.1314 28.6152 14.8954C30.1992 16.6594 31.4232 19.0534 32.2872 22.0774C33.1872 25.0654 33.6372 28.4314 33.6372 32.1754C33.6372 35.9194 33.1872 39.3034 32.2872 42.3274C31.4232 45.3514 30.1992 47.7454 28.6152 49.5094C27.0672 51.2734 25.2492 52.1554 23.1612 52.1554ZM23.1612 50.6974C25.4292 50.6974 27.0852 49.1674 28.1292 46.1074C29.2092 43.0474 29.7492 38.4034 29.7492 32.1754C29.7492 25.9474 29.2092 21.3214 28.1292 18.2974C27.0852 15.2374 25.4292 13.7074 23.1612 13.7074C20.8932 13.7074 19.2192 15.2374 18.1392 18.2974C17.0952 21.3214 16.5732 25.9474 16.5732 32.1754C16.5732 38.4034 17.0952 43.0474 18.1392 46.1074C19.2192 49.1674 20.8932 50.6974 23.1612 50.6974ZM40.7091 52.1554C38.8371 52.1554 37.3251 51.8134 36.1731 51.1294C35.0571 50.4454 34.4991 49.5454 34.4991 48.4294C34.4991 47.8174 34.6791 47.3494 35.0391 47.0254C35.3991 46.6654 35.8671 46.4854 36.4431 46.4854C37.1271 46.4854 37.5771 46.7014 37.7931 47.1334C38.0091 47.5654 38.1711 48.0514 38.2791 48.5914C38.3871 49.1314 38.6211 49.6174 38.9811 50.0494C39.3771 50.4814 40.0611 50.6974 41.0331 50.6974C43.0851 50.6974 44.7411 49.7434 46.0011 47.8354C47.2971 45.8914 47.9451 43.3534 47.9451 40.2214C47.9451 33.2734 45.9651 29.7994 42.0051 29.7994C40.5651 29.7994 39.3411 30.1414 38.3331 30.8254C37.7571 31.2574 37.3251 31.3114 37.0371 30.9874C36.8211 30.6274 36.9651 30.1954 37.4691 29.6914L41.3571 26.0194C42.9411 24.5434 44.0931 23.1934 44.8131 21.9694C45.5331 20.7454 45.8931 19.5214 45.8931 18.2974C45.8931 16.9654 45.5871 15.9394 44.9751 15.2194C44.3991 14.4634 43.5891 14.0854 42.5451 14.0854C41.1771 14.0854 40.0251 14.5894 39.0891 15.5974C38.1531 16.6054 37.5411 17.9914 37.2531 19.7554C37.1811 20.2954 36.9111 20.5654 36.4431 20.5654C35.9391 20.5654 35.7231 20.2414 35.7951 19.5934C36.0471 17.3614 36.8751 15.5794 38.2791 14.2474C39.7191 12.9154 41.4831 12.2494 43.5711 12.2494C45.3711 12.2494 46.8111 12.7534 47.8911 13.7614C49.0071 14.7334 49.5651 16.0474 49.5651 17.7034C49.5651 20.5474 47.2431 23.5714 42.5991 26.7754L41.3571 27.6394C41.2131 27.7474 41.1591 27.8734 41.1951 28.0174C41.2671 28.1254 41.3931 28.1614 41.5731 28.1254C42.1851 27.9454 42.7971 27.8554 43.4091 27.8554C45.0651 27.8554 46.5231 28.3234 47.7831 29.2594C49.0431 30.1954 50.0331 31.5094 50.7531 33.2014C51.4731 34.8574 51.8331 36.7654 51.8331 38.9254C51.8331 40.6534 51.5271 42.3094 50.9151 43.8934C50.3031 45.4774 49.4751 46.8994 48.4311 48.1594C47.3871 49.3834 46.1991 50.3554 44.8671 51.0754C43.5351 51.7954 42.1491 52.1554 40.7091 52.1554Z" data-figma-gradient-fill="{&#34;type&#34;:&#34;GRADIENT_DIAMOND&#34;,&#34;stops&#34;:[{&#34;color&#34;:{&#34;r&#34;:0.68235296010971069,&#34;g&#34;:0.73333334922790527,&#34;b&#34;:1.0,&#34;a&#34;:1.0},&#34;position&#34;:0.0},{&#34;color&#34;:{&#34;r&#34;:0.85490196943283081,&#34;g&#34;:0.58039218187332153,&#34;b&#34;:0.93725490570068359,&#34;a&#34;:1.0},&#34;position&#34;:0.37019231915473938},{&#34;color&#34;:{&#34;r&#34;:0.82745099067687988,&#34;g&#34;:0.65490198135375977,&#34;b&#34;:0.81568628549575806,&#34;a&#34;:1.0},&#34;position&#34;:0.750},{&#34;color&#34;:{&#34;r&#34;:0.49803921580314636,&#34;g&#34;:0.49803921580314636,&#34;b&#34;:0.99607843160629272,&#34;a&#34;:1.0},&#34;position&#34;:1.0}],&#34;stopsVar&#34;:[{&#34;color&#34;:{&#34;r&#34;:0.68235296010971069,&#34;g&#34;:0.73333334922790527,&#34;b&#34;:1.0,&#34;a&#34;:1.0},&#34;position&#34;:0.0},{&#34;color&#34;:{&#34;r&#34;:0.85490196943283081,&#34;g&#34;:0.58039218187332153,&#34;b&#34;:0.93725490570068359,&#34;a&#34;:1.0},&#34;position&#34;:0.37019231915473938},{&#34;color&#34;:{&#34;r&#34;:0.82745099067687988,&#34;g&#34;:0.65490198135375977,&#34;b&#34;:0.81568628549575806,&#34;a&#34;:1.0},&#34;position&#34;:0.750},{&#34;color&#34;:{&#34;r&#34;:0.49803921580314636,&#34;g&#34;:0.49803921580314636,&#34;b&#34;:0.99607843160629272,&#34;a&#34;:1.0},&#34;position&#34;:1.0}],&#34;transform&#34;:{&#34;m00&#34;:-1.2393210101820790e-13,&#34;m01&#34;:-81.081100463867188,&#34;m02&#34;:72.781761169433594,&#34;m10&#34;:73.538673400878906,&#34;m11&#34;:4.5029453087000026e-15,&#34;m12&#34;:-21.869235992431641},&#34;opacity&#34;:1.0,&#34;blendMode&#34;:&#34;NORMAL&#34;,&#34;visible&#34;:true}"/>
<defs>
<clipPath id="paint0_diamond_1_132_clip_path"><path d="M12.2412 2.16943V4.16943H52.2412V2.16943V0.169434H12.2412V2.16943ZM62.2412 12.1694H60.2412V52.1694H62.2412H64.2412V12.1694H62.2412ZM52.2412 62.1694V60.1694H12.2412V62.1694V64.1694H52.2412V62.1694ZM2.24121 52.1694H4.24121V12.1694H2.24121H0.241211V52.1694H2.24121ZM12.2412 62.1694V60.1694C7.82293 60.1694 4.24121 56.5877 4.24121 52.1694H2.24121H0.241211C0.241211 58.7969 5.6138 64.1694 12.2412 64.1694V62.1694ZM62.2412 52.1694H60.2412C60.2412 56.5877 56.6595 60.1694 52.2412 60.1694V62.1694V64.1694C58.8686 64.1694 64.2412 58.7968 64.2412 52.1694H62.2412ZM52.2412 2.16943V4.16943C56.6595 4.16943 60.2412 7.75116 60.2412 12.1694H62.2412H64.2412C64.2412 5.54202 58.8686 0.169434 52.2412 0.169434V2.16943ZM12.2412 2.16943V0.169434C5.61379 0.169434 0.241211 5.54202 0.241211 12.1694H2.24121H4.24121C4.24121 7.75116 7.82293 4.16943 12.2412 4.16943V2.16943Z" mask="url(#path-1-outside-1_1_132)"/></clipPath><clipPath id="paint1_diamond_1_132_clip_path"><path d="M23.1612 52.1554C21.0732 52.1554 19.2372 51.2734 17.6532 49.5094C16.0692 47.7454 14.8452 45.3514 13.9812 42.3274C13.1172 39.3034 12.6852 35.9194 12.6852 32.1754C12.6852 28.4314 13.1172 25.0654 13.9812 22.0774C14.8452 19.0534 16.0692 16.6594 17.6532 14.8954C19.2372 13.1314 21.0732 12.2494 23.1612 12.2494C25.2492 12.2494 27.0672 13.1314 28.6152 14.8954C30.1992 16.6594 31.4232 19.0534 32.2872 22.0774C33.1872 25.0654 33.6372 28.4314 33.6372 32.1754C33.6372 35.9194 33.1872 39.3034 32.2872 42.3274C31.4232 45.3514 30.1992 47.7454 28.6152 49.5094C27.0672 51.2734 25.2492 52.1554 23.1612 52.1554ZM23.1612 50.6974C25.4292 50.6974 27.0852 49.1674 28.1292 46.1074C29.2092 43.0474 29.7492 38.4034 29.7492 32.1754C29.7492 25.9474 29.2092 21.3214 28.1292 18.2974C27.0852 15.2374 25.4292 13.7074 23.1612 13.7074C20.8932 13.7074 19.2192 15.2374 18.1392 18.2974C17.0952 21.3214 16.5732 25.9474 16.5732 32.1754C16.5732 38.4034 17.0952 43.0474 18.1392 46.1074C19.2192 49.1674 20.8932 50.6974 23.1612 50.6974ZM40.7091 52.1554C38.8371 52.1554 37.3251 51.8134 36.1731 51.1294C35.0571 50.4454 34.4991 49.5454 34.4991 48.4294C34.4991 47.8174 34.6791 47.3494 35.0391 47.0254C35.3991 46.6654 35.8671 46.4854 36.4431 46.4854C37.1271 46.4854 37.5771 46.7014 37.7931 47.1334C38.0091 47.5654 38.1711 48.0514 38.2791 48.5914C38.3871 49.1314 38.6211 49.6174 38.9811 50.0494C39.3771 50.4814 40.0611 50.6974 41.0331 50.6974C43.0851 50.6974 44.7411 49.7434 46.0011 47.8354C47.2971 45.8914 47.9451 43.3534 47.9451 40.2214C47.9451 33.2734 45.9651 29.7994 42.0051 29.7994C40.5651 29.7994 39.3411 30.1414 38.3331 30.8254C37.7571 31.2574 37.3251 31.3114 37.0371 30.9874C36.8211 30.6274 36.9651 30.1954 37.4691 29.6914L41.3571 26.0194C42.9411 24.5434 44.0931 23.1934 44.8131 21.9694C45.5331 20.7454 45.8931 19.5214 45.8931 18.2974C45.8931 16.9654 45.5871 15.9394 44.9751 15.2194C44.3991 14.4634 43.5891 14.0854 42.5451 14.0854C41.1771 14.0854 40.0251 14.5894 39.0891 15.5974C38.1531 16.6054 37.5411 17.9914 37.2531 19.7554C37.1811 20.2954 36.9111 20.5654 36.4431 20.5654C35.9391 20.5654 35.7231 20.2414 35.7951 19.5934C36.0471 17.3614 36.8751 15.5794 38.2791 14.2474C39.7191 12.9154 41.4831 12.2494 43.5711 12.2494C45.3711 12.2494 46.8111 12.7534 47.8911 13.7614C49.0071 14.7334 49.5651 16.0474 49.5651 17.7034C49.5651 20.5474 47.2431 23.5714 42.5991 26.7754L41.3571 27.6394C41.2131 27.7474 41.1591 27.8734 41.1951 28.0174C41.2671 28.1254 41.3931 28.1614 41.5731 28.1254C42.1851 27.9454 42.7971 27.8554 43.4091 27.8554C45.0651 27.8554 46.5231 28.3234 47.7831 29.2594C49.0431 30.1954 50.0331 31.5094 50.7531 33.2014C51.4731 34.8574 51.8331 36.7654 51.8331 38.9254C51.8331 40.6534 51.5271 42.3094 50.9151 43.8934C50.3031 45.4774 49.4751 46.8994 48.4311 48.1594C47.3871 49.3834 46.1991 50.3554 44.8671 51.0754C43.5351 51.7954 42.1491 52.1554 40.7091 52.1554Z"/></clipPath><linearGradient id="paint0_diamond_1_132" x1="0" y1="0" x2="500" y2="500" gradientUnits="userSpaceOnUse">
<stop stop-color="#AEBBFF"/>
<stop offset="0.370192" stop-color="#DA94EF"/>
<stop offset="0.75" stop-color="#D3A7D0"/>
<stop offset="1" stop-color="#7F7FFE"/>
</linearGradient>
<linearGradient id="paint1_diamond_1_132" x1="0" y1="0" x2="500" y2="500" gradientUnits="userSpaceOnUse">
<stop stop-color="#AEBBFF"/>
<stop offset="0.370192" stop-color="#DA94EF"/>
<stop offset="0.75" stop-color="#D3A7D0"/>
<stop offset="1" stop-color="#7F7FFE"/>
</linearGradient>
</defs>
</svg>
