<svg width="64" height="64" viewBox="0 0 64 64" fill="none" xmlns="http://www.w3.org/2000/svg">
<mask id="path-1-outside-1_1_150" maskUnits="userSpaceOnUse" x="0" y="0" width="64" height="64" fill="black">
<rect fill="white" width="64" height="64"/>
<path d="M2 12C2 6.47715 6.47715 2 12 2H52C57.5228 2 62 6.47715 62 12V52C62 57.5228 57.5228 62 52 62H12C6.47715 62 2 57.5228 2 52V12Z"/>
</mask>
<path d="M2 12C2 6.47715 6.47715 2 12 2H52C57.5228 2 62 6.47715 62 12V52C62 57.5228 57.5228 62 52 62H12C6.47715 62 2 57.5228 2 52V12Z" fill="white"/>
<path d="M12 2V4H52V2V0H12V2ZM62 12H60V52H62H64V12H62ZM52 62V60H12V62V64H52V62ZM2 52H4V12H2H0V52H2ZM12 62V60C7.58172 60 4 56.4183 4 52H2H0C0 58.6274 5.37258 64 12 64V62ZM62 52H60C60 56.4183 56.4183 60 52 60V62V64C58.6274 64 64 58.6274 64 52H62ZM52 2V4C56.4183 4 60 7.58172 60 12H62H64C64 5.37258 58.6274 0 52 0V2ZM12 2V0C5.37258 0 0 5.37258 0 12H2H4C4 7.58172 7.58172 4 12 4V2Z" fill="black" mask="url(#path-1-outside-1_1_150)"/>
<g clip-path="url(#paint0_diamond_1_150_clip_path)" data-figma-skip-parse="true" mask="url(#path-1-outside-1_1_150)"><g transform="matrix(0 0.0565682 -0.0565682 0 32 5.43179)"><rect x="0" y="0" width="1035.36" height="565.689" fill="url(#paint0_diamond_1_150)" opacity="1" shape-rendering="crispEdges"/><rect x="0" y="0" width="1035.36" height="565.689" transform="scale(1 -1)" fill="url(#paint0_diamond_1_150)" opacity="1" shape-rendering="crispEdges"/><rect x="0" y="0" width="1035.36" height="565.689" transform="scale(-1 1)" fill="url(#paint0_diamond_1_150)" opacity="1" shape-rendering="crispEdges"/><rect x="0" y="0" width="1035.36" height="565.689" transform="scale(-1)" fill="url(#paint0_diamond_1_150)" opacity="1" shape-rendering="crispEdges"/></g></g><path d="M12 2V4H52V2V0H12V2ZM62 12H60V52H62H64V12H62ZM52 62V60H12V62V64H52V62ZM2 52H4V12H2H0V52H2ZM12 62V60C7.58172 60 4 56.4183 4 52H2H0C0 58.6274 5.37258 64 12 64V62ZM62 52H60C60 56.4183 56.4183 60 52 60V62V64C58.6274 64 64 58.6274 64 52H62ZM52 2V4C56.4183 4 60 7.58172 60 12H62H64C64 5.37258 58.6274 0 52 0V2ZM12 2V0C5.37258 0 0 5.37258 0 12H2H4C4 7.58172 7.58172 4 12 4V2Z" data-figma-gradient-fill="{&#34;type&#34;:&#34;GRADIENT_DIAMOND&#34;,&#34;stops&#34;:[{&#34;color&#34;:{&#34;r&#34;:0.68235296010971069,&#34;g&#34;:0.73333334922790527,&#34;b&#34;:1.0,&#34;a&#34;:1.0},&#34;position&#34;:0.0},{&#34;color&#34;:{&#34;r&#34;:0.85490196943283081,&#34;g&#34;:0.58039218187332153,&#34;b&#34;:0.93725490570068359,&#34;a&#34;:1.0},&#34;position&#34;:0.37019231915473938},{&#34;color&#34;:{&#34;r&#34;:0.82745099067687988,&#34;g&#34;:0.65490198135375977,&#34;b&#34;:0.81568628549575806,&#34;a&#34;:1.0},&#34;position&#34;:0.750},{&#34;color&#34;:{&#34;r&#34;:0.49803921580314636,&#34;g&#34;:0.49803921580314636,&#34;b&#34;:0.99607843160629272,&#34;a&#34;:1.0},&#34;position&#34;:1.0}],&#34;stopsVar&#34;:[{&#34;color&#34;:{&#34;r&#34;:0.68235296010971069,&#34;g&#34;:0.73333334922790527,&#34;b&#34;:1.0,&#34;a&#34;:1.0},&#34;position&#34;:0.0},{&#34;color&#34;:{&#34;r&#34;:0.85490196943283081,&#34;g&#34;:0.58039218187332153,&#34;b&#34;:0.93725490570068359,&#34;a&#34;:1.0},&#34;position&#34;:0.37019231915473938},{&#34;color&#34;:{&#34;r&#34;:0.82745099067687988,&#34;g&#34;:0.65490198135375977,&#34;b&#34;:0.81568628549575806,&#34;a&#34;:1.0},&#34;position&#34;:0.750},{&#34;color&#34;:{&#34;r&#34;:0.49803921580314636,&#34;g&#34;:0.49803921580314636,&#34;b&#34;:0.99607843160629272,&#34;a&#34;:1.0},&#34;position&#34;:1.0}],&#34;transform&#34;:{&#34;m00&#34;:-1.7292851178796198e-13,&#34;m01&#34;:-113.13641357421875,&#34;m02&#34;:88.568206787109375,&#34;m10&#34;:113.13641357421875,&#34;m11&#34;:6.9276080369180121e-15,&#34;m12&#34;:-51.136417388916016},&#34;opacity&#34;:1.0,&#34;blendMode&#34;:&#34;NORMAL&#34;,&#34;visible&#34;:true}" mask="url(#path-1-outside-1_1_150)"/>
<path d="M22.42 51.986C20.332 51.986 18.496 51.104 16.912 49.34C15.328 47.576 14.104 45.182 13.24 42.158C12.376 39.134 11.944 35.75 11.944 32.006C11.944 28.262 12.376 24.896 13.24 21.908C14.104 18.884 15.328 16.49 16.912 14.726C18.496 12.962 20.332 12.08 22.42 12.08C24.508 12.08 26.326 12.962 27.874 14.726C29.458 16.49 30.682 18.884 31.546 21.908C32.446 24.896 32.896 28.262 32.896 32.006C32.896 35.75 32.446 39.134 31.546 42.158C30.682 45.182 29.458 47.576 27.874 49.34C26.326 51.104 24.508 51.986 22.42 51.986ZM22.42 50.528C24.688 50.528 26.344 48.998 27.388 45.938C28.468 42.878 29.008 38.234 29.008 32.006C29.008 25.778 28.468 21.152 27.388 18.128C26.344 15.068 24.688 13.538 22.42 13.538C20.152 13.538 18.478 15.068 17.398 18.128C16.354 21.152 15.832 25.778 15.832 32.006C15.832 38.234 16.354 42.878 17.398 45.938C18.478 48.998 20.152 50.528 22.42 50.528ZM41.8579 51.5C41.3179 51.5 41.0479 51.302 41.0479 50.906C41.0479 50.51 41.2819 50.294 41.7499 50.258L44.0719 49.934C44.8279 49.826 45.3139 49.646 45.5299 49.394C45.7819 49.106 45.9079 48.62 45.9079 47.936V40.916C45.9079 40.412 45.6559 40.16 45.1519 40.16H34.2439C33.5599 40.16 33.2179 39.854 33.2179 39.242C33.2179 39.062 33.2539 38.882 33.3259 38.702C33.4339 38.486 33.5599 38.216 33.7039 37.892L46.6639 13.16C46.8079 12.8 47.0959 12.62 47.5279 12.62H48.6079C49.2559 12.62 49.4179 12.926 49.0939 13.538L36.1339 36.38C35.8819 36.884 36.0259 37.136 36.5659 37.136H45.1519C45.6559 37.136 45.9079 36.884 45.9079 36.38V25.796C45.9079 25.472 46.0879 25.184 46.4479 24.932L48.4459 23.798C48.6979 23.654 48.9139 23.636 49.0939 23.744C49.2739 23.816 49.3639 23.996 49.3639 24.284V36.38C49.3639 36.884 49.6159 37.136 50.1199 37.136H52.4959C52.9279 37.136 53.1439 37.352 53.1439 37.784V39.512C53.1439 39.944 52.9279 40.16 52.4959 40.16H50.1199C49.6159 40.16 49.3639 40.412 49.3639 40.916V47.936C49.3639 48.692 49.4719 49.196 49.6879 49.448C49.9399 49.7 50.4439 49.898 51.1999 50.042L52.4419 50.258C52.9099 50.366 53.1439 50.582 53.1439 50.906C53.1439 51.302 52.8739 51.5 52.3339 51.5H41.8579Z" fill="black"/>
<path d="M22.42 51.986C20.332 51.986 18.496 51.104 16.912 49.34C15.328 47.576 14.104 45.182 13.24 42.158C12.376 39.134 11.944 35.75 11.944 32.006C11.944 28.262 12.376 24.896 13.24 21.908C14.104 18.884 15.328 16.49 16.912 14.726C18.496 12.962 20.332 12.08 22.42 12.08C24.508 12.08 26.326 12.962 27.874 14.726C29.458 16.49 30.682 18.884 31.546 21.908C32.446 24.896 32.896 28.262 32.896 32.006C32.896 35.75 32.446 39.134 31.546 42.158C30.682 45.182 29.458 47.576 27.874 49.34C26.326 51.104 24.508 51.986 22.42 51.986ZM22.42 50.528C24.688 50.528 26.344 48.998 27.388 45.938C28.468 42.878 29.008 38.234 29.008 32.006C29.008 25.778 28.468 21.152 27.388 18.128C26.344 15.068 24.688 13.538 22.42 13.538C20.152 13.538 18.478 15.068 17.398 18.128C16.354 21.152 15.832 25.778 15.832 32.006C15.832 38.234 16.354 42.878 17.398 45.938C18.478 48.998 20.152 50.528 22.42 50.528ZM41.8579 51.5C41.3179 51.5 41.0479 51.302 41.0479 50.906C41.0479 50.51 41.2819 50.294 41.7499 50.258L44.0719 49.934C44.8279 49.826 45.3139 49.646 45.5299 49.394C45.7819 49.106 45.9079 48.62 45.9079 47.936V40.916C45.9079 40.412 45.6559 40.16 45.1519 40.16H34.2439C33.5599 40.16 33.2179 39.854 33.2179 39.242C33.2179 39.062 33.2539 38.882 33.3259 38.702C33.4339 38.486 33.5599 38.216 33.7039 37.892L46.6639 13.16C46.8079 12.8 47.0959 12.62 47.5279 12.62H48.6079C49.2559 12.62 49.4179 12.926 49.0939 13.538L36.1339 36.38C35.8819 36.884 36.0259 37.136 36.5659 37.136H45.1519C45.6559 37.136 45.9079 36.884 45.9079 36.38V25.796C45.9079 25.472 46.0879 25.184 46.4479 24.932L48.4459 23.798C48.6979 23.654 48.9139 23.636 49.0939 23.744C49.2739 23.816 49.3639 23.996 49.3639 24.284V36.38C49.3639 36.884 49.6159 37.136 50.1199 37.136H52.4959C52.9279 37.136 53.1439 37.352 53.1439 37.784V39.512C53.1439 39.944 52.9279 40.16 52.4959 40.16H50.1199C49.6159 40.16 49.3639 40.412 49.3639 40.916V47.936C49.3639 48.692 49.4719 49.196 49.6879 49.448C49.9399 49.7 50.4439 49.898 51.1999 50.042L52.4419 50.258C52.9099 50.366 53.1439 50.582 53.1439 50.906C53.1439 51.302 52.8739 51.5 52.3339 51.5H41.8579Z" fill="#F8F8FB"/>
<g clip-path="url(#paint1_diamond_1_150_clip_path)" data-figma-skip-parse="true"><g transform="matrix(0 0.0367693 -0.0414834 0 32 14.7307)"><rect x="0" y="0" width="1013.6" height="542.386" fill="url(#paint1_diamond_1_150)" opacity="1" shape-rendering="crispEdges"/><rect x="0" y="0" width="1013.6" height="542.386" transform="scale(1 -1)" fill="url(#paint1_diamond_1_150)" opacity="1" shape-rendering="crispEdges"/><rect x="0" y="0" width="1013.6" height="542.386" transform="scale(-1 1)" fill="url(#paint1_diamond_1_150)" opacity="1" shape-rendering="crispEdges"/><rect x="0" y="0" width="1013.6" height="542.386" transform="scale(-1)" fill="url(#paint1_diamond_1_150)" opacity="1" shape-rendering="crispEdges"/></g></g><path d="M22.42 51.986C20.332 51.986 18.496 51.104 16.912 49.34C15.328 47.576 14.104 45.182 13.24 42.158C12.376 39.134 11.944 35.75 11.944 32.006C11.944 28.262 12.376 24.896 13.24 21.908C14.104 18.884 15.328 16.49 16.912 14.726C18.496 12.962 20.332 12.08 22.42 12.08C24.508 12.08 26.326 12.962 27.874 14.726C29.458 16.49 30.682 18.884 31.546 21.908C32.446 24.896 32.896 28.262 32.896 32.006C32.896 35.75 32.446 39.134 31.546 42.158C30.682 45.182 29.458 47.576 27.874 49.34C26.326 51.104 24.508 51.986 22.42 51.986ZM22.42 50.528C24.688 50.528 26.344 48.998 27.388 45.938C28.468 42.878 29.008 38.234 29.008 32.006C29.008 25.778 28.468 21.152 27.388 18.128C26.344 15.068 24.688 13.538 22.42 13.538C20.152 13.538 18.478 15.068 17.398 18.128C16.354 21.152 15.832 25.778 15.832 32.006C15.832 38.234 16.354 42.878 17.398 45.938C18.478 48.998 20.152 50.528 22.42 50.528ZM41.8579 51.5C41.3179 51.5 41.0479 51.302 41.0479 50.906C41.0479 50.51 41.2819 50.294 41.7499 50.258L44.0719 49.934C44.8279 49.826 45.3139 49.646 45.5299 49.394C45.7819 49.106 45.9079 48.62 45.9079 47.936V40.916C45.9079 40.412 45.6559 40.16 45.1519 40.16H34.2439C33.5599 40.16 33.2179 39.854 33.2179 39.242C33.2179 39.062 33.2539 38.882 33.3259 38.702C33.4339 38.486 33.5599 38.216 33.7039 37.892L46.6639 13.16C46.8079 12.8 47.0959 12.62 47.5279 12.62H48.6079C49.2559 12.62 49.4179 12.926 49.0939 13.538L36.1339 36.38C35.8819 36.884 36.0259 37.136 36.5659 37.136H45.1519C45.6559 37.136 45.9079 36.884 45.9079 36.38V25.796C45.9079 25.472 46.0879 25.184 46.4479 24.932L48.4459 23.798C48.6979 23.654 48.9139 23.636 49.0939 23.744C49.2739 23.816 49.3639 23.996 49.3639 24.284V36.38C49.3639 36.884 49.6159 37.136 50.1199 37.136H52.4959C52.9279 37.136 53.1439 37.352 53.1439 37.784V39.512C53.1439 39.944 52.9279 40.16 52.4959 40.16H50.1199C49.6159 40.16 49.3639 40.412 49.3639 40.916V47.936C49.3639 48.692 49.4719 49.196 49.6879 49.448C49.9399 49.7 50.4439 49.898 51.1999 50.042L52.4419 50.258C52.9099 50.366 53.1439 50.582 53.1439 50.906C53.1439 51.302 52.8739 51.5 52.3339 51.5H41.8579Z" data-figma-gradient-fill="{&#34;type&#34;:&#34;GRADIENT_DIAMOND&#34;,&#34;stops&#34;:[{&#34;color&#34;:{&#34;r&#34;:0.68235296010971069,&#34;g&#34;:0.73333334922790527,&#34;b&#34;:1.0,&#34;a&#34;:1.0},&#34;position&#34;:0.0},{&#34;color&#34;:{&#34;r&#34;:0.85490196943283081,&#34;g&#34;:0.58039218187332153,&#34;b&#34;:0.93725490570068359,&#34;a&#34;:1.0},&#34;position&#34;:0.37019231915473938},{&#34;color&#34;:{&#34;r&#34;:0.82745099067687988,&#34;g&#34;:0.65490198135375977,&#34;b&#34;:0.81568628549575806,&#34;a&#34;:1.0},&#34;position&#34;:0.750},{&#34;color&#34;:{&#34;r&#34;:0.49803921580314636,&#34;g&#34;:0.49803921580314636,&#34;b&#34;:0.99607843160629272,&#34;a&#34;:1.0},&#34;position&#34;:1.0}],&#34;stopsVar&#34;:[{&#34;color&#34;:{&#34;r&#34;:0.68235296010971069,&#34;g&#34;:0.73333334922790527,&#34;b&#34;:1.0,&#34;a&#34;:1.0},&#34;position&#34;:0.0},{&#34;color&#34;:{&#34;r&#34;:0.85490196943283081,&#34;g&#34;:0.58039218187332153,&#34;b&#34;:0.93725490570068359,&#34;a&#34;:1.0},&#34;position&#34;:0.37019231915473938},{&#34;color&#34;:{&#34;r&#34;:0.82745099067687988,&#34;g&#34;:0.65490198135375977,&#34;b&#34;:0.81568628549575806,&#34;a&#34;:1.0},&#34;position&#34;:0.750},{&#34;color&#34;:{&#34;r&#34;:0.49803921580314636,&#34;g&#34;:0.49803921580314636,&#34;b&#34;:0.99607843160629272,&#34;a&#34;:1.0},&#34;position&#34;:1.0}],&#34;transform&#34;:{&#34;m00&#34;:-1.2681424920585327e-13,&#34;m01&#34;:-82.966705322265625,&#34;m02&#34;:73.483352661132812,&#34;m10&#34;:73.538673400878906,&#34;m11&#34;:4.5029453087000026e-15,&#34;m12&#34;:-22.038669586181641},&#34;opacity&#34;:1.0,&#34;blendMode&#34;:&#34;NORMAL&#34;,&#34;visible&#34;:true}"/>
<defs>
<clipPath id="paint0_diamond_1_150_clip_path"><path d="M12 2V4H52V2V0H12V2ZM62 12H60V52H62H64V12H62ZM52 62V60H12V62V64H52V62ZM2 52H4V12H2H0V52H2ZM12 62V60C7.58172 60 4 56.4183 4 52H2H0C0 58.6274 5.37258 64 12 64V62ZM62 52H60C60 56.4183 56.4183 60 52 60V62V64C58.6274 64 64 58.6274 64 52H62ZM52 2V4C56.4183 4 60 7.58172 60 12H62H64C64 5.37258 58.6274 0 52 0V2ZM12 2V0C5.37258 0 0 5.37258 0 12H2H4C4 7.58172 7.58172 4 12 4V2Z" mask="url(#path-1-outside-1_1_150)"/></clipPath><clipPath id="paint1_diamond_1_150_clip_path"><path d="M22.42 51.986C20.332 51.986 18.496 51.104 16.912 49.34C15.328 47.576 14.104 45.182 13.24 42.158C12.376 39.134 11.944 35.75 11.944 32.006C11.944 28.262 12.376 24.896 13.24 21.908C14.104 18.884 15.328 16.49 16.912 14.726C18.496 12.962 20.332 12.08 22.42 12.08C24.508 12.08 26.326 12.962 27.874 14.726C29.458 16.49 30.682 18.884 31.546 21.908C32.446 24.896 32.896 28.262 32.896 32.006C32.896 35.75 32.446 39.134 31.546 42.158C30.682 45.182 29.458 47.576 27.874 49.34C26.326 51.104 24.508 51.986 22.42 51.986ZM22.42 50.528C24.688 50.528 26.344 48.998 27.388 45.938C28.468 42.878 29.008 38.234 29.008 32.006C29.008 25.778 28.468 21.152 27.388 18.128C26.344 15.068 24.688 13.538 22.42 13.538C20.152 13.538 18.478 15.068 17.398 18.128C16.354 21.152 15.832 25.778 15.832 32.006C15.832 38.234 16.354 42.878 17.398 45.938C18.478 48.998 20.152 50.528 22.42 50.528ZM41.8579 51.5C41.3179 51.5 41.0479 51.302 41.0479 50.906C41.0479 50.51 41.2819 50.294 41.7499 50.258L44.0719 49.934C44.8279 49.826 45.3139 49.646 45.5299 49.394C45.7819 49.106 45.9079 48.62 45.9079 47.936V40.916C45.9079 40.412 45.6559 40.16 45.1519 40.16H34.2439C33.5599 40.16 33.2179 39.854 33.2179 39.242C33.2179 39.062 33.2539 38.882 33.3259 38.702C33.4339 38.486 33.5599 38.216 33.7039 37.892L46.6639 13.16C46.8079 12.8 47.0959 12.62 47.5279 12.62H48.6079C49.2559 12.62 49.4179 12.926 49.0939 13.538L36.1339 36.38C35.8819 36.884 36.0259 37.136 36.5659 37.136H45.1519C45.6559 37.136 45.9079 36.884 45.9079 36.38V25.796C45.9079 25.472 46.0879 25.184 46.4479 24.932L48.4459 23.798C48.6979 23.654 48.9139 23.636 49.0939 23.744C49.2739 23.816 49.3639 23.996 49.3639 24.284V36.38C49.3639 36.884 49.6159 37.136 50.1199 37.136H52.4959C52.9279 37.136 53.1439 37.352 53.1439 37.784V39.512C53.1439 39.944 52.9279 40.16 52.4959 40.16H50.1199C49.6159 40.16 49.3639 40.412 49.3639 40.916V47.936C49.3639 48.692 49.4719 49.196 49.6879 49.448C49.9399 49.7 50.4439 49.898 51.1999 50.042L52.4419 50.258C52.9099 50.366 53.1439 50.582 53.1439 50.906C53.1439 51.302 52.8739 51.5 52.3339 51.5H41.8579Z"/></clipPath><linearGradient id="paint0_diamond_1_150" x1="0" y1="0" x2="500" y2="500" gradientUnits="userSpaceOnUse">
<stop stop-color="#AEBBFF"/>
<stop offset="0.370192" stop-color="#DA94EF"/>
<stop offset="0.75" stop-color="#D3A7D0"/>
<stop offset="1" stop-color="#7F7FFE"/>
</linearGradient>
<linearGradient id="paint1_diamond_1_150" x1="0" y1="0" x2="500" y2="500" gradientUnits="userSpaceOnUse">
<stop stop-color="#AEBBFF"/>
<stop offset="0.370192" stop-color="#DA94EF"/>
<stop offset="0.75" stop-color="#D3A7D0"/>
<stop offset="1" stop-color="#7F7FFE"/>
</linearGradient>
</defs>
</svg>
